<?xml version="1.0" encoding="utf-8"?>
<!-- Generator: Adobe Illustrator 23.1.0, SVG Export Plug-In . SVG Version: 6.00 Build 0)  -->
<svg version="1.1" id="Layer_1" xmlns="http://www.w3.org/2000/svg" xmlns:xlink="http://www.w3.org/1999/xlink" x="0px" y="0px"
	 viewBox="0 0 700.4 459" style="enable-background:new 0 0 700.4 459;" xml:space="preserve">
<style type="text/css">
	.st0{opacity:0.58;}
	.st1{opacity:0.9;fill:#F4D0D0;enable-background:new    ;}
	.st2{opacity:0.22;fill:#CEA7A7;enable-background:new    ;}
</style>
<g id="Group_237_1_" transform="translate(166.37 -191.64)" class="st0">
	<path id="Path_116_1_" class="st1" d="M534,622.7c-27.1-5.8-55.1-43.7-55.1-95.3l0,0V343.6c0-64-40.6-121.9-101.6-141.2
		c-22.4-7.1-45.7-10.7-69.1-10.7l0,0h-474.6v459H534V622.7L534,622.7z"/>
	<path id="Path_117_1_" class="st2" d="M478.9,527.4L478.9,527.4V343.6c0-64-40.6-121.9-101.6-141.2c-70-22.2-146.3-9.5-205.4,34
		c0.3,0.4,0.3,0.4,0,0c-22.3-28.3-56.4-44.8-92.4-44.8H5.2v27.9c27.1,5.8,55.1,43.7,55.1,95.4l0,0v183.8
		c0,64,40.6,121.9,101.6,141.3c70,22.2,146.4,9.5,205.5-34.2c22.3,28.3,56.3,44.8,92.3,44.9H534v-27.9
		C506.9,616.9,478.9,579,478.9,527.4 M351.1,578.9c-10,2.6-20.3,3.8-30.6,3.8c-68,0-123.1-44.1-123.1-112.1l0,0V309.5
		c0-15.9-3.2-31.5-9.4-46.1l0,0c10-2.6,20.3-3.9,30.6-3.9c68,0,123.2,44.1,123.2,112.1l0,0v161.2c0,15.9,3.2,31.7,9.5,46.4
		L351.1,578.9"/>
</g>
</svg>
