<svg class="customise-color-nau-shape" xmlns="http://www.w3.org/2000/svg" width="983.393" height="177" viewBox="0 0 983.393 177">
<defs>
<style>
.cls-1 {        
opacity: 0.8;
}
.cls-2 {
fill: #e3eeff;
opacity: 0.9;
}
.cls-2, .cls-3 {
isolation: isolate;
}
.cls-3 {
fill: #90BDFF;
opacity: 1;
}
</style>
</defs>
<g data-name="Group 237" class="cls-1">
<path data-name="Path 116" class="cls-2" d="M983.393,166.2c-10.448-2.239-21.243-16.843-21.243-36.74h0V58.6c0-24.673-15.653-46.995-39.169-54.436A88.147,88.147,0,0,0,896.34.039H0V177H983.393Z"/>
<path id="Path_117" data-name="Path 117" class="cls-3" d="M962.15,129.461h0V58.6c0-24.673-15.653-46.995-39.169-54.436a88.453,88.453,0,0,0-79.189,13.108h0A45.374,45.374,0,0,0,808.169,0H779.524V10.757C789.972,13,800.767,27.6,800.767,47.536h0v70.857c0,24.673,15.653,47,39.169,54.475a88.329,88.329,0,0,0,79.227-13.186,45.452,45.452,0,0,0,35.585,17.311h28.645V166.24c-10.448-2.274-21.243-16.885-21.243-36.779m-49.271,19.855a46.885,46.885,0,0,1-11.8,1.46c-26.216,0-47.459-17-47.459-43.218h0v-62.1A45.387,45.387,0,0,0,850,27.681h0a46.851,46.851,0,0,1,11.8-1.5c26.217,0,47.5,17,47.5,43.218h0v62.147a45.44,45.44,0,0,0,3.662,17.889l-.077-.116"/>
</g>
</svg>