<?xml version="1.0" encoding="utf-8"?>
<!-- Generator: Adobe Illustrator 24.1.2, SVG Export Plug-In . SVG Version: 6.00 Build 0)  -->
<svg version="1.1" id="Layer_1" xmlns="http://www.w3.org/2000/svg" xmlns:xlink="http://www.w3.org/1999/xlink" x="0px" y="0px"
	 viewBox="0 0 983.4 177" style="enable-background:new 0 0 983.4 177;" xml:space="preserve">
<style type="text/css">
	.st0{fill:#051D3A;}
	.st1{fill:#092C4F;}
</style>
<g>
	<path class="st0" d="M983.4,166.2c-10.4-2.2-21.2-16.8-21.2-36.7l0,0V58.6c0-24.7-15.7-47-39.2-54.4C914.4,1.4,905.4,0,896.3,0H0
		v177h983.4V166.2z"/>
	<path id="Path_117" class="st1" d="M962.2,129.5L962.2,129.5V58.6c0-24.7-15.7-47-39.2-54.4c-27-8.5-56.4-3.7-79.2,13.1l0,0
		C835.2,6.4,822.1,0,808.2,0h-28.6v10.8c10.4,2.2,21.2,16.8,21.2,36.8l0,0v70.9c0,24.7,15.7,47,39.2,54.5c27,8.6,56.5,3.7,79.2-13.2
		c8.6,10.9,21.7,17.3,35.6,17.3h28.6v-10.8C972.9,164,962.2,149.4,962.2,129.5 M912.9,149.3c-3.9,1-7.8,1.5-11.8,1.5
		c-26.2,0-47.5-17-47.5-43.2l0,0V45.5c0-6.1-1.2-12.2-3.6-17.8l0,0c3.9-1,7.8-1.5,11.8-1.5c26.2,0,47.5,17,47.5,43.2l0,0v62.1
		c0,6.1,1.2,12.2,3.7,17.9L912.9,149.3"/>
</g>
</svg>
