<svg xmlns="http://www.w3.org/2000/svg" width="716.445" height="181.8" viewBox="0 0 716.445 181.8">
  <g id="Group_237" data-name="Group 237" opacity="0.58">
    <path id="Path_116" data-name="Path 116" d="M716.445,170.726c-10.731-2.3-21.818-17.3-21.818-37.736h0V60.209c0-25.342-16.077-48.269-40.231-55.911A90.541,90.541,0,0,0,627.034.061H0V181.814H716.445V170.726Z" transform="translate(0 -0.021)" fill="#f0c5c5" opacity="0.9" style="isolation: isolate"/>
    <path id="Path_117" data-name="Path 117" d="M970.438,132.968h0V60.188c0-25.342-16.077-48.269-40.231-55.911A90.849,90.849,0,0,0,848.873,17.74h0A46.6,46.6,0,0,0,812.285,0H782.864V11.048c10.731,2.3,21.818,17.3,21.818,37.776h0V121.6c0,25.342,16.077,48.269,40.231,55.951a90.719,90.719,0,0,0,81.373-13.543,46.684,46.684,0,0,0,36.549,17.78h29.421V170.744c-10.731-2.336-21.818-17.343-21.818-37.776m-50.606,20.393a48.157,48.157,0,0,1-12.117,1.5c-26.926,0-48.745-17.462-48.745-44.389h0V46.686a46.6,46.6,0,0,0-3.722-18.255h0a48.167,48.167,0,0,1,12.116-1.544c26.927,0,48.785,17.462,48.785,44.389h0v63.831a46.655,46.655,0,0,0,3.761,18.373l-.079-.119" transform="translate(-275.811)" fill="#c29696" opacity="0.22" style="isolation: isolate"/>
  </g>
</svg>
