<svg xmlns="http://www.w3.org/2000/svg" width="20.5" height="20.5" viewBox="0 0 20.5 20.5">
  <path id="Path_102" data-name="Path 102" d="M51.766,28.39a9.75,9.75,0,1,1-.032,0Zm3,13H48.733c.519,3.466,1.821,5.687,3.017,5.687s2.5-2.221,3.018-5.687m5.31,0H55.59a11.277,11.277,0,0,1-2.019,5.5,8.958,8.958,0,0,0,6.507-5.5m-12.166,0H43.423a8.961,8.961,0,0,0,6.507,5.5,11.278,11.278,0,0,1-2.019-5.5m-.1-5.688H43.15a8.972,8.972,0,0,0,0,4.875h4.66a24.231,24.231,0,0,1,0-4.875m7.061,0H48.628a23.256,23.256,0,0,0,0,4.875h6.244a23.24,23.24,0,0,0,0-4.875m5.478,0H55.69a24.067,24.067,0,0,1,0,4.875H60.35a8.973,8.973,0,0,0,0-4.875M49.93,29.389a8.961,8.961,0,0,0-6.507,5.5h4.488a11.275,11.275,0,0,1,2.019-5.5m4.838,5.5c-.519-3.466-1.822-5.687-3.018-5.687s-2.5,2.221-3.017,5.687Zm-1.2-5.5a11.273,11.273,0,0,1,2.019,5.5h4.488a8.958,8.958,0,0,0-6.507-5.5" transform="translate(-41.5 -27.89)" stroke="#231f20" stroke-miterlimit="10" stroke-width="1" fill-rule="evenodd"/>
</svg>
