<svg xmlns="http://www.w3.org/2000/svg" width="34.596" height="34.603" viewBox="0 0 34.596 34.603">
  <g id="Group_1" data-name="Group 1" transform="translate(-133.971 -186.66)">
    <path id="Path_1" data-name="Path 1" d="M160.81,195.942v-.825h-6.44v.825c.438,0,.871,0,1.3,0a1.231,1.231,0,0,1,1.288,1.287c.006,2.2,0,4.409.008,6.613,0,1.143.009,2.287.013,3.43,0,.1-.008.2-.012.283a1.08,1.08,0,0,1-1.112-.531q-2.232-2.716-4.487-5.414-2.641-3.178-5.29-6.349a.474.474,0,0,0-.318-.158c-1.507-.01-3.015-.007-4.55-.007v.848c.442,0,.886-.015,1.328.009a.654.654,0,0,1,.415.185c.607.674,1.2,1.362,1.785,2.054a.524.524,0,0,1,.113.315q-.021,4.631-.057,9.263a.774.774,0,0,1-.022.1,52.1,52.1,0,0,0-9.521,2.561,17.277,17.277,0,1,1,31.895.306,31.576,31.576,0,0,0-8.958-2.96c-.01-.1-.024-.178-.024-.256q.007-5.075.018-10.15a1.259,1.259,0,0,1,1.428-1.434C160,195.941,160.391,195.942,160.81,195.942Z" fill="#fff"/>
    <path id="Path_2" data-name="Path 2" d="M150.87,266.569c-.034.667-.02,1.316-.114,1.949a1.029,1.029,0,0,1-1.064.8h-1.442v.827h6.46v-.828H153.34a1.125,1.125,0,0,1-1.236-1.189c-.015-.577-.018-1.154-.024-1.731,0-.021.019-.042.066-.139a43.837,43.837,0,0,1,20.776,2.277c-2.909,5.453-7.276,8.779-13.33,9.6a17.133,17.133,0,0,1-17.23-8.429A26.667,26.667,0,0,1,150.87,266.569Z" transform="translate(-6.039 -57.041)" fill="#fff"/>
    <path id="Path_3" data-name="Path 3" d="M183.507,240.643l-6.485.412v-7.878Z" transform="translate(-30.981 -33.476)" fill="#fff"/>
  </g>
</svg>
