<svg id="Group_288" data-name="Group 288" xmlns="http://www.w3.org/2000/svg" width="31.478" height="31.478" viewBox="0 0 31.478 31.478">
  <g id="Path_19" data-name="Path 19" transform="translate(0 0)" fill="none">
    <path d="M15.739,0A15.739,15.739,0,1,1,0,15.739,15.739,15.739,0,0,1,15.739,0Z" stroke="none"/>
    <path d="M 15.73891448974609 0.9999942779541016 C 11.80200386047363 0.9999942779541016 8.100744247436523 2.533115386962891 5.316925048828125 5.316925048828125 C 2.533115386962891 8.100744247436523 0.9999942779541016 11.80200386047363 0.9999942779541016 15.73891448974609 C 0.9999942779541016 19.67581558227539 2.533115386962891 23.37708473205566 5.316925048828125 26.1608943939209 C 8.100744247436523 28.9447135925293 11.80200386047363 30.47782516479492 15.73891448974609 30.47782516479492 C 19.67582321166992 30.47782516479492 23.37708473205566 28.9447135925293 26.1608943939209 26.1608943939209 C 28.9447135925293 23.37708473205566 30.47782516479492 19.67582321166992 30.47782516479492 15.73891448974609 C 30.47782516479492 11.80200386047363 28.9447135925293 8.100744247436523 26.1608943939209 5.316925048828125 C 23.37708473205566 2.533115386962891 19.67581558227539 0.9999942779541016 15.73891448974609 0.9999942779541016 M 15.73891448974609 -5.7220458984375e-06 C 24.4312744140625 -5.7220458984375e-06 31.47782516479492 7.046554565429688 31.47782516479492 15.73891448974609 C 31.47782516479492 24.4312744140625 24.4312744140625 31.47782516479492 15.73891448974609 31.47782516479492 C 7.046554565429688 31.47782516479492 -5.7220458984375e-06 24.4312744140625 -5.7220458984375e-06 15.73891448974609 C -5.7220458984375e-06 7.046554565429688 7.046554565429688 -5.7220458984375e-06 15.73891448974609 -5.7220458984375e-06 Z" stroke="none" fill="#fff"/>
  </g>
  <g id="Polygon_1" data-name="Polygon 1" transform="translate(21.1 11.239) rotate(90)" fill="#fff">
    <path d="M 8.145074844360352 7.5 L 0.8549256324768066 7.5 L 4.5 1.019867777824402 L 8.145074844360352 7.5 Z" stroke="none"/>
    <path d="M 4.5 2.039735317230225 L 1.709851264953613 7 L 7.290148735046387 7 L 4.5 2.039735317230225 M 4.5 0 L 9 8 L 0 8 L 4.5 0 Z" stroke="none" fill="#fff"/>
  </g>
</svg>
