<svg id="Group_103" data-name="Group 103" xmlns="http://www.w3.org/2000/svg" width="31.478" height="31.478" viewBox="0 0 31.478 31.478">
  <g id="Path_19" data-name="Path 19" transform="translate(0 0)" fill="none">
    <path d="M15.739,0A15.739,15.739,0,1,1,0,15.739,15.739,15.739,0,0,1,15.739,0Z" stroke="none"/>
    <path d="M 15.73891448974609 0.899993896484375 C 11.77529525756836 0.899993896484375 8.048913955688477 2.443513870239258 5.246213912963867 5.246213912963867 C 2.443513870239258 8.048913955688477 0.899993896484375 11.77529525756836 0.899993896484375 15.73891448974609 C 0.899993896484375 19.70253372192383 2.443513870239258 23.42890548706055 5.246213912963867 26.23160552978516 C 8.048913955688477 29.03430366516113 11.77529525756836 30.57782363891602 15.73891448974609 30.57782363891602 C 19.70253372192383 30.57782363891602 23.42890548706055 29.03430366516113 26.23160552978516 26.23160552978516 C 29.03430366516113 23.42890548706055 30.57782363891602 19.70253372192383 30.57782363891602 15.73891448974609 C 30.57782363891602 11.77529525756836 29.03430366516113 8.048913955688477 26.23160552978516 5.246213912963867 C 23.42890548706055 2.443513870239258 19.70253372192383 0.899993896484375 15.73891448974609 0.899993896484375 M 15.73891448974609 -5.7220458984375e-06 C 24.4312744140625 -5.7220458984375e-06 31.47782516479492 7.046554565429688 31.47782516479492 15.73891448974609 C 31.47782516479492 24.4312744140625 24.4312744140625 31.47782516479492 15.73891448974609 31.47782516479492 C 7.046554565429688 31.47782516479492 -5.7220458984375e-06 24.4312744140625 -5.7220458984375e-06 15.73891448974609 C -5.7220458984375e-06 7.046554565429688 7.046554565429688 -5.7220458984375e-06 15.73891448974609 -5.7220458984375e-06 Z" stroke="none" fill="#074ce1"/>
  </g>
  <g id="Polygon_1" data-name="Polygon 1" transform="translate(21.1 11.239) rotate(90)" fill="#074ce1">
    <path d="M 8.230566024780273 7.550000190734863 L 0.7694337368011475 7.550000190734863 L 4.5 0.9178822040557861 L 8.230566024780273 7.550000190734863 Z" stroke="none"/>
    <path d="M 4.5 1.835764408111572 L 1.538867473602295 7.099999904632568 L 7.461132526397705 7.099999904632568 L 4.5 1.835764408111572 M 4.5 0 L 9 8 L 0 8 L 4.5 0 Z" stroke="none" fill="#074ce1"/>
  </g>
</svg>
