<svg xmlns="http://www.w3.org/2000/svg" width="49.452" height="49.454" viewBox="0 0 49.452 49.454">
  <g id="Group_4" data-name="Group 4" transform="translate(-214.53 -195.215)">
    <rect id="Rectangle_4" data-name="Rectangle 4" width="49.452" height="49.454" transform="translate(214.53 195.215)" fill="#b40922"/>
    <path id="Path_23" data-name="Path 23" d="M220.792,206.4l1.5-4.1h.015v4.1Zm1.485,2.926h1.589v-1.618h.676V206.4h-.676v-7.046h-1.648l-2.9,7.325v1.029h2.955Z" fill="#fff"/>
    <path id="Path_24" data-name="Path 24" d="M236.459,221.731l-8.869-5.121v16.568l8.869,2.676Z" fill="#fff"/>
    <path id="Path_25" data-name="Path 25" d="M237.434,221.765v14.094l8.927-2.684V216.611Z" fill="#fff"/>
    <path id="Path_26" data-name="Path 26" d="M253.324,216.191a1.049,1.049,0,1,0-2.1,0v1.131h2.1Z" fill="#fff"/>
    <path id="Path_27" data-name="Path 27" d="M251.486,232.883h-.26l1.049,3.668,1.048-3.668h0V218.144h-2.1v14.739Z" fill="#fff"/>
    <path id="Path_28" data-name="Path 28" d="M248.266,217.321l-.951-.751v17.055l-9.854,3.185h-1l-9.81-2.741v-17.5l-.951.751v17.415l10.717,2.967h1.09l9.888-3.139.873-.257Z" fill="#fff"/>
    <text id="QUALIDADE" transform="translate(228.509 209.325)" fill="#fff" font-size="5.949" font-family="BebasNeue-Regular, Bebas Neue"><tspan x="0" y="0">QUALIDADE</tspan></text>
    <text id="EDU" transform="translate(228.509 203.4)" fill="#fff" font-size="5.949" font-family="BebasNeue-Regular, Bebas Neue"><tspan x="0" y="0">EDU</tspan></text>
    <text id="CAÇÃO_DE" data-name="CAÇÃO DE" transform="translate(235.437 203.4)" fill="#fff" font-size="5.949" font-family="BebasNeue-Regular, Bebas Neue"><tspan x="0" y="0">CAÇÃO DE</tspan></text>
  </g>
</svg>
