<svg id="Group_433" data-name="Group 433" xmlns="http://www.w3.org/2000/svg" width="114.405" height="114.412" viewBox="0 0 114.405 114.412">
  <g id="Group_391" data-name="Group 391" transform="translate(0 0)">
    <rect id="Rectangle_125" data-name="Rectangle 125" width="114.405" height="114.412" transform="translate(0 0)" fill="#3b6b34"/>
    <path id="Path_435" data-name="Path 435" d="M217.23,256.611V279.67h-3.879v-17.65h-.033L210.6,264.84h-.036v-4.047l3.569-4.182Z" transform="translate(-202.788 -247.014)" fill="#fff"/>
    <path id="Path_436" data-name="Path 436" d="M225.068,261.767v2a3.688,3.688,0,0,1-2.652,3.741c1.938.443,2.856,1.8,2.856,3.913v3.4c0,3.2-1.7,5.269-5.612,5.269-3.945,0-5.343-2.244-5.343-5.746v-3.025h3.539v3.3c0,1.361.475,2.244,1.8,2.244,1.189,0,1.734-.851,1.734-2.077v-3.806c0-1.226-.545-1.871-1.905-1.871h-1.632v-2.96h1.465c1.259,0,2.072-.647,2.072-1.868V261.8c0-1.259-.443-2.072-1.664-2.072s-1.669.814-1.669,2.244v2.346h-3.537v-2.04c0-3.4,1.4-5.783,5.408-5.783,3.572,0,5.136,2.007,5.136,5.273" transform="translate(-197.84 -247.168)" fill="#fff"/>
    <path id="Path_437" data-name="Path 437" d="M273.643,299.545c-.475-.127-2.459-2.87-.89-4.673.26-.3-.526-1.171-.311-1.187a1.438,1.438,0,0,1,1.539,1.233c.019.336.03.679.03,1.025a18.084,18.084,0,0,1-.369,3.6m-4.837,8.915a2.753,2.753,0,0,1-.554-.2c-.967-.491-.851.292-1.321.121s.533-1.277-.89-.348-1.034-.141-1.655-1.715.712-3.363,1.829-3.771a22.832,22.832,0,0,1,3.2-.848c2.123-.526,2.571-1.785,2.958-1.022.072.146.141.28.2.41a2.759,2.759,0,0,1,.273,1.15,17.689,17.689,0,0,1-4.047,6.228M256.351,313.6a17.638,17.638,0,0,1-4.963-.712.729.729,0,0,1-.213-.865c.547-1.423,2.174-1.98,3.458-2.1,2.86-.278,6.625,1.859,7.225,1.516s1.808-1.922,3.586-1.857a2.8,2.8,0,0,1,1.611.406,17.592,17.592,0,0,1-10.7,3.616m-2.4-11.508c-.243.4-.909,3.366-1.354,3.02s.181-3.444.308-3.679c.7-1.28,2.207-1.217,1.045.658m7.211-3.507a1.6,1.6,0,0,1-1.687-.151c-.445-.345.28-.92.547-.939.593-.053,1.486.774,1.14,1.089m7.79.03c-.188-.072-.357-.25-.5-.684a.4.4,0,0,1,.577-.508,1.7,1.7,0,0,1,.832,1.013c0,.292-.712.255-.909.178m.751.545c.593-.049,1.486.774,1.138,1.089a1.586,1.586,0,0,1-1.685-.151c-.445-.345.28-.92.547-.939m-18.94,7.039a5,5,0,0,1-1.087,2.262,3.652,3.652,0,0,1-2.406.92c-.8-.06-.916-2.2-.916-3.305,0-.378-.538.749-.821-1.546-.178-1.47-1.12.153-1.187-.827s-.54-.781-1.034-1.393-1.108.06-1.8.369-.4.466-1.377.16c-.023-.007-.037-.014-.06-.023a17.633,17.633,0,0,1-1.388-6.873c0-.6.035-1.182.086-1.762a1.556,1.556,0,0,1,.109-.165c.936-1.106.913-1.365.913-1.365l1.036-.357a17.394,17.394,0,0,1,2.893.723c1.022.382,2.633,1.252,3.572.869.675-.28,1.205-.649,1.143-1.217-.074-.7-.633-.876-1.307-.4-.25.176-.781-1.066-1.2-1s.515,1.46.162,1.521-1.066-1.46-1.187-1.7-.67-.855-1.161-.389c-1.041.987-2.735.929-3.074,1.182-1.031.774-1.3-.253-1.282-.879.042-.146.081-.287.128-.429a2.112,2.112,0,0,1,1.966-.22c.457.306.784-.076.964-.264s.116-.475,0-.719.227-.422.464-.484a13.036,13.036,0,0,0,1.337-.8,4.408,4.408,0,0,1,2.68-.012,1.418,1.418,0,0,0,1.764-.357,4.647,4.647,0,0,1,1.282-1.066c.253-.121-.63-.948-1.361-.046s-1.1.98-1.444.98-2.38-.508-2.633-1.152.64-1.129,1.391-1.49a18.708,18.708,0,0,1,3.335-.475c1.071-.234,2.438-.769,3.127-.3s-2.877,1.273-1.7,1.9c.415.232,2.3-1.08,2.946-1.416,1.516-.783-1.474-1.041-1.085-2.633.438-1.8-3.672-1.1-5.718-.953A17.654,17.654,0,0,1,273.52,291.81a2.816,2.816,0,0,1-.086.818,1.155,1.155,0,0,1-2.068.162c-.178-.262-.936-.976-.911.246s1.189,1.351.06,2.086a4.355,4.355,0,0,1-1.857.742,2.4,2.4,0,0,0-.9,2.118c.125.677,1.736,2.515.54,2.438a6.911,6.911,0,0,1-2.735-2.387c-.368-.976-.77-1.928-1.055-2.668a1.054,1.054,0,0,0-1.664-.487c-.626.429.176.86-.276,1.78s-.772,1.736-1.437.978c-1.722-1.975-4.226-1-4.62-3.2-.211-1.194-1.235-1.078-2.1-1.752s-1.342-1.036-1.488-.552c-.127.426,2.7,2.666,2.9,3.24.3.853-.846,1.606-1.683,1.808s-1.205-.471-2.026-1.328-1.184-1.465-1.242-.793a3.873,3.873,0,0,0,1.62,2.93c.716.454,1.516.658,1.282,1.393s0,.32-.8,1.11a2.163,2.163,0,0,0-.895,2.151c.058,1.1-.229,1.164-.4,2.084s-.566.123-.913,1.467m-9.487-19.461c.044-.046.076-.086.093-.1a2.368,2.368,0,0,1,1.391-.512c.44-.074,1.027.148,1.1.44s-1.1.823-1.314,1.024c-.612.559-1.565,1.7-2.125,1.829a.665.665,0,0,1-.454-.051,17.8,17.8,0,0,1,1.314-2.626m.906-1.8c.227-.336.99-1.291,1.08-1.414a1.358,1.358,0,0,1,.855-.352c.269-.049.626.1.672.3a2.339,2.339,0,0,1-.239,1.12,2.913,2.913,0,0,1-1.875.848c-.41-.063-.573-.382-.494-.505m56.133,10.433a52.333,52.333,0,0,0-83.992,0c-.13.181-.239.336-.329.473.09.134.2.29.329.473a52.336,52.336,0,0,0,83.992,0c.13-.183.239-.338.325-.473-.086-.137-.195-.292-.325-.473" transform="translate(-198.265 -223.746)" fill="#fff"/>
    <g id="Group_388" data-name="Group 388" transform="translate(36.319 7.177)">
      <g id="Group_387" data-name="Group 387">
        <path id="Path_438" data-name="Path 438" d="M224.392,256.516h1.975l1.511,9.286H226.42l-.267-1.843v.026H224.5l-.264,1.817h-1.354Zm1.59,6.21-.649-4.592H225.3l-.635,4.592Z" transform="translate(-222.878 -254.316)" fill="#fff"/>
        <path id="Path_439" data-name="Path 439" d="M228.217,259.72v-1.071c0-.612-.292-.862-.73-.862s-.73.25-.73.862v5.185c0,.61.292.848.73.848s.73-.239.73-.848v-1.419H229.6v1.312a2,2,0,0,1-1.8,2.269v.4c.582,0,.913.16.913.624,0,.716-.556.809-1.351.809-.73,0-1.273-.16-1.273-.769v-.132h.98v.107a.256.256,0,0,0,.292.264c.239,0,.345-.093.345-.32,0-.25-.16-.343-.491-.343h-.067V266a2,2,0,0,1-1.843-2.269v-4.986a2.153,2.153,0,1,1,4.3,0v.978Z" transform="translate(-219.687 -254.391)" fill="#fff"/>
        <path id="Path_440" data-name="Path 440" d="M228.876,257.767h1.977l1.511,9.286h-1.458l-.267-1.843v.026h-1.657l-.264,1.817h-1.354Zm-.848-.994c.331-.742.7-1.113,1.208-1.113a1.443,1.443,0,0,1,.8.25.913.913,0,0,0,.452.172c.211,0,.357-.144.528-.515l.7.422c-.334.744-.7,1.115-1.208,1.115a1.443,1.443,0,0,1-.8-.253.913.913,0,0,0-.452-.172c-.211,0-.357.146-.531.517Zm2.441,7.2-.649-4.592h-.028l-.635,4.592Z" transform="translate(-216.965 -255.567)" fill="#fff"/>
        <path id="Path_441" data-name="Path 441" d="M229.78,263.675v-4.881a2.218,2.218,0,1,1,4.43,0v4.881a2.218,2.218,0,1,1-4.43,0Zm2.972.093V258.7c0-.663-.292-.913-.756-.913s-.756.25-.756.913v5.067c0,.663.29.916.756.916S232.752,264.43,232.752,263.767Z" transform="translate(-213.782 -254.391)" fill="#fff"/>
      </g>
    </g>
    <g id="Group_390" data-name="Group 390" transform="translate(36.581 20.255)">
      <g id="Group_389" data-name="Group 389">
        <path id="Path_442" data-name="Path 442" d="M222.991,269.348v-4.986a2.153,2.153,0,1,1,4.3,0v.98h-1.379v-1.073c0-.612-.292-.862-.73-.862s-.73.25-.73.862v5.185c0,.61.292.848.73.848s.73-.239.73-.848v-1.419h1.379v1.312a2.153,2.153,0,1,1-4.3,0Z" transform="translate(-222.991 -260.062)" fill="#fff"/>
        <path id="Path_443" data-name="Path 443" d="M225.223,262.136h1.46v7.96h2.4v1.326h-3.862Z" transform="translate(-220.049 -259.987)" fill="#fff"/>
        <path id="Path_444" data-name="Path 444" d="M227.192,262.136h1.46v9.286h-1.46Z" transform="translate(-217.454 -259.987)" fill="#fff"/>
        <path id="Path_445" data-name="Path 445" d="M228.291,262.136h2.081l.93,6.645h.025l.93-6.645h2.081v9.286h-1.379v-7.028h-.025l-1.062,7.028h-1.222l-1.059-7.028h-.028v7.028h-1.273Z" transform="translate(-216.006 -259.987)" fill="#fff"/>
        <path id="Path_446" data-name="Path 446" d="M232.718,263.358h1.975l1.514,9.286h-1.46l-.264-1.843v.026h-1.66l-.264,1.817H231.2Zm1.127-2.149h1.592l-1.421,1.525h-1.1Zm.464,8.358-.649-4.592h-.028L233,269.567Z" transform="translate(-212.167 -261.209)" fill="#fff"/>
        <path id="Path_447" data-name="Path 447" d="M235.024,263.462H233.5v-1.326h4.511v1.326h-1.528v7.96h-1.458Z" transform="translate(-209.142 -259.987)" fill="#fff"/>
        <path id="Path_448" data-name="Path 448" d="M235.748,262.136h1.46v9.286h-1.46Z" transform="translate(-206.178 -259.987)" fill="#fff"/>
        <path id="Path_449" data-name="Path 449" d="M236.806,269.348v-4.986a2.153,2.153,0,1,1,4.3,0v.98h-1.377v-1.073c0-.612-.292-.862-.73-.862s-.73.25-.73.862v5.185c0,.61.292.848.73.848s.73-.239.73-.848v-1.419H241.1v1.312a2.153,2.153,0,1,1-4.3,0Z" transform="translate(-204.784 -260.062)" fill="#fff"/>
        <path id="Path_450" data-name="Path 450" d="M240.387,262.136h1.975l1.514,9.286h-1.46l-.267-1.843v.026h-1.657l-.264,1.817h-1.354Zm1.59,6.21-.649-4.592H241.3l-.635,4.592Z" transform="translate(-202.06 -259.987)" fill="#fff"/>
      </g>
    </g>
  </g>
</svg>
