<svg xmlns="http://www.w3.org/2000/svg" width="49.353" height="49.353" viewBox="0 0 49.353 49.353">
  <g id="Group_9" data-name="Group 9" transform="translate(-501.955 -195.104)">
    <rect id="Rectangle_9" data-name="Rectangle 9" width="49.353" height="49.353" transform="translate(501.955 195.104)" fill="#ee511d"/>
    <path id="Path_54" data-name="Path 54" d="M509.337,203.269c-.03.558-.265.91-.792.91-.572,0-.792-.352-.792-1v-1.732c0-.629.233-1,.806-1,.557,0,.778.381.778,1Zm1.657-1.525c0-1.542-.675-2.655-2.435-2.655A2.195,2.195,0,0,0,506.1,201.6v1.467c0,1.628.644,2.45,1.848,2.45a1.433,1.433,0,0,0,1.379-.807h.015v2.141c0,.6-.236,1.028-.836,1.028s-.822-.353-.822-.969v-.659h-1.526v.527c0,1.467.528,2.494,2.378,2.494,1.758,0,2.463-1.13,2.463-2.684Z" fill="#fff"/>
    <path id="Path_55" data-name="Path 55" d="M538.639,234.664l-5.268,3.038v-6.079l5.268-3.041Zm-17.4,3.038v-5.617l4.865,2.809Zm-.8,0-5.266-3.038v-6.082l5.266,3.041Zm5.666-16.817-4.865,2.81v-5.618Zm6.466,2.81-4.865-2.81,4.865-2.808Zm-4.865,4.194,5.265-3.039,5.266,3.039-5.266,3.042Zm-1.2-.693-4.865-2.808,4.865-2.81Zm5.666-2.808-4.865,2.808v-5.618Zm-5.666,9.814-4.865-2.809,4.865-2.811Zm12.734-6.66-5.868-3.385v-6.774a.4.4,0,0,0-.2-.347l-6.065-3.5a.4.4,0,0,0-.4,0l-6.065,3.5a.4.4,0,0,0-.2.347v6.774l-5.866,3.385a.4.4,0,0,0-.2.347v7a.4.4,0,0,0,.2.347l6.067,3.5a.389.389,0,0,0,.2.054.4.4,0,0,0,.2-.054l5.866-3.387,5.865,3.387a.4.4,0,0,0,.4,0l6.067-3.5a.4.4,0,0,0,.2-.347v-7a.4.4,0,0,0-.2-.347" fill="#fff"/>
    <text id="INDÚstria_INOVAÇÃO" data-name="INDÚstria, INOVAÇÃO" transform="translate(513.469 202.735)" fill="#fff" font-size="5.452" font-family="BebasNeue-Regular, Bebas Neue"><tspan x="0" y="0">INDÚstria, INOVAÇÃO</tspan></text>
    <text id="E_INFRAESTRUTURA" data-name="E INFRAESTRUTURA" transform="translate(513.469 208.17)" fill="#fff" font-size="5.452" font-family="BebasNeue-Regular, Bebas Neue"><tspan x="0" y="0">E INFRAESTRUTURA</tspan></text>
  </g>
</svg>
