<svg xmlns="http://www.w3.org/2000/svg" width="49.343" height="49.346" viewBox="0 0 49.343 49.346">
  <g id="Group_2" data-name="Group 2" transform="translate(-99.699 -195.607)">
    <rect id="Rectangle_2" data-name="Rectangle 2" width="49.343" height="49.346" transform="translate(99.699 195.607)" fill="#dc9427"/>
    <path id="Path_15" data-name="Path 15" d="M108.928,208.328h-2.744v-.47a1.9,1.9,0,0,1,.7-1.527l1.071-1.128a3.132,3.132,0,0,0,1.058-2.51v-.969c0-1.424-.691-2.1-2.187-2.1a1.966,1.966,0,0,0-2.215,2.173V203h1.526v-1.246c0-.6.292-.778.645-.778.323,0,.6.132.6.748v.821a1.975,1.975,0,0,1-.615,1.718l-.94,1a3.473,3.473,0,0,0-1.247,2.6v1.834h4.344Z" fill="#fff"/>
    <path id="Path_16" data-name="Path 16" d="M119.381,237.537v.694l0,.016,0,.015a.328.328,0,0,0,.32.313l.006,0,.008,0h8.14l.007,0,.007,0a.328.328,0,0,0,.321-.327h0l0,0v-.785a12.673,12.673,0,0,0,8.77-9.742l0-.027a.229.229,0,0,0,0-.045.328.328,0,0,0-.328-.329H110.7a.33.33,0,0,0-.332.329l.017.148a12.715,12.715,0,0,0,9,9.744" fill="#fff"/>
    <path id="Path_17" data-name="Path 17" d="M128.183,216.244c-.107.152-2.613,3.761.055,6.678a2.923,2.923,0,0,1,.769,3.32h1.712a4.213,4.213,0,0,0-1.186-4.176c-1.967-2.15.025-5.056.054-5.1a.641.641,0,0,0-.277-.958.909.909,0,0,0-1.127.237" fill="#fff"/>
    <path id="Path_18" data-name="Path 18" d="M123.846,226.241h1.714a4.213,4.213,0,0,0-1.189-4.174c-1.966-2.151.024-5.056.056-5.1a.642.642,0,0,0-.279-.957.911.911,0,0,0-1.126.236c-.108.153-2.616,3.761.055,6.68a2.922,2.922,0,0,1,.769,3.318" fill="#fff"/>
    <path id="Path_19" data-name="Path 19" d="M117.86,216.244c-.108.152-2.614,3.761.056,6.678a2.925,2.925,0,0,1,.769,3.32H120.4a4.214,4.214,0,0,0-1.189-4.176c-1.967-2.15.025-5.056.056-5.1a.642.642,0,0,0-.279-.957.906.906,0,0,0-1.126.237" fill="#fff"/>
    <text id="FOME_ZERO" data-name="FOME ZERO" transform="translate(113.653 202.861)" fill="#fff" font-size="5.949" font-family="BebasNeue-Regular, Bebas Neue"><tspan x="0" y="0">FOME ZERO</tspan></text>
    <text id="E_AGRICULTURA" data-name="E AGRICULTURA" transform="translate(113.64 208.459)" fill="#fff" font-size="5.949" font-family="BebasNeue-Regular, Bebas Neue"><tspan x="0" y="0">E AGRICULTURA</tspan></text>
    <text id="SUSTENTÁVEL" transform="translate(113.64 213.979)" fill="#fff" font-size="5.949" font-family="BebasNeue-Regular, Bebas Neue"><tspan x="0" y="0">SUSTENTÁVEL</tspan></text>
  </g>
</svg>
