<svg id="Group_431" data-name="Group 431" xmlns="http://www.w3.org/2000/svg" width="114.409" height="114.412" viewBox="0 0 114.409 114.412">
  <g id="Group_401" data-name="Group 401" transform="translate(0 0)">
    <rect id="Rectangle_127" data-name="Rectangle 127" width="114.409" height="114.412" transform="translate(0)" fill="#5dad32"/>
    <path id="Path_476" data-name="Path 476" d="M325.641,260.684v4.047h.033l2.722-2.821h.036v17.657h3.875V256.5h-3.094Z" transform="translate(-317.264 -246.924)" fill="#fff"/>
    <path id="Path_477" data-name="Path 477" d="M336.423,263.814a3.5,3.5,0,0,0-3.266,1.6h-.037v-5.751h6.671V256.5H329.586v13h3.535v-.512c0-1.361.614-2.109,1.7-2.109,1.191,0,1.669.818,1.669,2.077v5.579c0,1.226-.443,2.077-1.634,2.077-1.326,0-1.8-.888-1.8-2.248v-2.89h-3.542v2.619c0,3.5,1.4,5.748,5.343,5.748,3.91,0,5.512-2.072,5.512-5.273v-5.649c0-3.637-1.871-5.1-3.947-5.1" transform="translate(-312.158 -246.924)" fill="#fff"/>
    <path id="Rectangle_128" data-name="Rectangle 128" d="M.108,0H3.766a.109.109,0,0,1,.109.109v8.62a.109.109,0,0,1-.109.109H.11A.11.11,0,0,1,0,8.729V.108A.108.108,0,0,1,.108,0Z" transform="translate(43.752 77.355)" fill="#fff"/>
    <path id="Path_478" data-name="Path 478" d="M390.172,291.1H334.614a.259.259,0,0,0-.253.26v3.393a.254.254,0,0,0,.253.255h55.558a.256.256,0,0,0,.255-.255v-3.393a.261.261,0,0,0-.255-.26" transform="translate(-305.773 -201.327)" fill="#fff"/>
    <path id="Path_479" data-name="Path 479" d="M390.172,294.008H334.614a.254.254,0,0,0-.253.25v3.4a.257.257,0,0,0,.253.255h55.558a.259.259,0,0,0,.255-.255v-3.4a.256.256,0,0,0-.255-.25" transform="translate(-305.773 -197.491)" fill="#fff"/>
    <path id="Path_480" data-name="Path 480" d="M359.231,282.793a8.23,8.23,0,0,0-4.8-1.808,6.432,6.432,0,0,0-4.464,1.894.48.48,0,0,0-.148.35v.3a.483.483,0,0,0,.16.378.525.525,0,0,0,.494.063.69.69,0,0,0,.276-.174,4.486,4.486,0,0,1,2.23-.466,8.419,8.419,0,0,1,5.723,2.4l.049.046a.671.671,0,0,0,.484.2.664.664,0,0,0,.473-.195l.042-.046a8.439,8.439,0,0,1,5.735-2.406,4.475,4.475,0,0,1,2.232.466.8.8,0,0,0,.306.188.7.7,0,0,0,.324.009.476.476,0,0,0,.35-.457v-.269a.49.49,0,0,0-.148-.345,6.449,6.449,0,0,0-4.518-1.945,8.181,8.181,0,0,0-4.8,1.813" transform="translate(-285.404 -214.661)" fill="#fff"/>
    <path id="Path_481" data-name="Path 481" d="M352.572,272.51a.449.449,0,0,0-.243.292l-.058.185a.486.486,0,0,0,.076.417.441.441,0,0,0,.343.185.179.179,0,0,0,.07,0,.609.609,0,0,0,.269-.067,1.279,1.279,0,0,1,.336-.037,4.822,4.822,0,0,1,3.968,2.594l.021.033a.559.559,0,0,0,.355.287.846.846,0,0,0,.176.025.564.564,0,0,0,.28-.07l.035-.016a5.532,5.532,0,0,1,2.478-.612,3.8,3.8,0,0,1,2.536.809.673.673,0,0,0,.188.209,1.37,1.37,0,0,0,.176.086c.028.007.058.009.086.014a.35.35,0,0,0,.051,0,.5.5,0,0,0,.218-.056.483.483,0,0,0,.237-.283l.046-.167a.429.429,0,0,0,.018-.134.476.476,0,0,0-.065-.241,4.176,4.176,0,0,0-3.767-2.262,5.942,5.942,0,0,0-2,.375,4.851,4.851,0,0,0-3.748-2.1,4.577,4.577,0,0,0-2.082.528" transform="translate(-282.192 -226.519)" fill="#fff"/>
    <path id="Path_482" data-name="Path 482" d="M347.326,277.413l.016.25a.47.47,0,0,0,.222.375.486.486,0,0,0,.376.056.777.777,0,0,0,.079-.026.6.6,0,0,0,.241-.178,4.08,4.08,0,0,1,2.119-.482,6.872,6.872,0,0,1,4.392,1.662l.039.042a.664.664,0,0,0,.429.16h.039a.646.646,0,0,0,.438-.209l.037-.042a6.676,6.676,0,0,1,4.87-2.251,3.358,3.358,0,0,1,1.446.262.769.769,0,0,0,.29.153.625.625,0,0,0,.2.012.5.5,0,0,0,.116-.028.474.474,0,0,0,.318-.475l-.014-.218a.47.47,0,0,0-.169-.334,5.433,5.433,0,0,0-3.551-1.4,6.605,6.605,0,0,0-4.158,1.72,6.928,6.928,0,0,0-3.709-1.231,5.3,5.3,0,0,0-3.94,1.82.485.485,0,0,0-.13.357" transform="translate(-288.686 -222.875)" fill="#fff"/>
    <path id="Path_483" data-name="Path 483" d="M335.2,285.516a6.024,6.024,0,0,1,6.024-6.024c.128,0,.257.014.385.021a8.145,8.145,0,1,1,15.444,4.172,9.1,9.1,0,0,1-1.975,17.989c-.369,0-12.153-.072-12.153-.072a6.441,6.441,0,0,1-4.694-10.862,6.022,6.022,0,0,1-3.032-5.225" transform="translate(-304.671 -226.519)" fill="#fff"/>
    <g id="Group_398" data-name="Group 398" transform="translate(36.801 9.137)">
      <g id="Group_397" data-name="Group 397">
        <path id="Path_484" data-name="Path 484" d="M337.9,256.369h2.235c1.516,0,2.26.844,2.26,2.39v.95c0,1.546-.744,2.385-2.26,2.385h-.719v3.931H337.9Zm2.235,4.346c.482,0,.744-.22.744-.909v-1.145c0-.691-.262-.911-.744-.911h-.719v2.965Z" transform="translate(-337.904 -256.232)" fill="#fff"/>
        <path id="Path_485" data-name="Path 485" d="M340.2,256.369h2.246c1.574,0,2.248.732,2.248,2.221v.593c0,.994-.318,1.629-.992,1.905v.028c.758.234,1.008.95,1.008,2.042v1.7a2.851,2.851,0,0,0,.165,1.171h-1.546a3,3,0,0,1-.137-1.184v-1.766c0-.9-.264-1.187-.953-1.187h-.524v4.137H340.2Zm2.068,4.142c.566,0,.911-.25.911-1.022v-.744c0-.691-.234-.994-.772-.994h-.691v2.761Z" transform="translate(-334.878 -256.232)" fill="#fff"/>
        <path id="Path_486" data-name="Path 486" d="M342.549,263.813v-5.074a2.306,2.306,0,1,1,4.606,0v5.074a2.306,2.306,0,1,1-4.606,0Zm3.09.1v-5.269c0-.688-.3-.95-.786-.95s-.788.262-.788.95v5.269c0,.691.3.953.788.953S345.639,264.6,345.639,263.91Z" transform="translate(-331.782 -256.31)" fill="#fff"/>
        <path id="Path_487" data-name="Path 487" d="M346.391,257.75H344.8v-1.381h4.691v1.381h-1.588v8.275h-1.516Z" transform="translate(-328.812 -256.232)" fill="#fff"/>
        <path id="Path_488" data-name="Path 488" d="M347.142,256.369h4.138v1.381h-2.622V260.3h2.084v1.377h-2.084v2.969h2.622v1.377h-4.138Z" transform="translate(-325.729 -256.232)" fill="#fff"/>
        <path id="Path_489" data-name="Path 489" d="M349.253,263.813v-5.074c0-1.546.772-2.429,2.262-2.429s2.262.883,2.262,2.429v.827h-1.435v-.925c0-.688-.3-.95-.786-.95s-.786.262-.786.95v5.283c0,.691.3.939.786.939s.786-.248.786-.939v-1.889h-.758v-1.379h2.193v3.157c0,1.546-.772,2.429-2.262,2.429S349.253,265.359,349.253,263.813Z" transform="translate(-322.947 -256.31)" fill="#fff"/>
        <path id="Path_490" data-name="Path 490" d="M351.626,256.369h4.137v1.381h-2.619V260.3h2.081v1.377h-2.081v2.969h2.619v1.377h-4.137Z" transform="translate(-319.82 -256.232)" fill="#fff"/>
        <path id="Path_491" data-name="Path 491" d="M353.785,256.369h2.248c1.574,0,2.248.732,2.248,2.221v.593c0,.994-.318,1.629-.992,1.905v.028c.758.234,1.008.95,1.008,2.042v1.7a2.85,2.85,0,0,0,.165,1.171h-1.546a3,3,0,0,1-.137-1.184v-1.766c0-.9-.264-1.187-.953-1.187H355.3v4.137h-1.518Zm2.07,4.142c.566,0,.911-.25.911-1.022v-.744c0-.691-.234-.994-.772-.994H355.3v2.761Z" transform="translate(-316.974 -256.232)" fill="#fff"/>
        <path id="Path_492" data-name="Path 492" d="M358.536,256.369h2.056l1.569,9.656h-1.516l-.276-1.917v.028h-1.722l-.276,1.889h-1.409Zm1.655,6.458-.677-4.773h-.028l-.661,4.773Z" transform="translate(-312.787 -256.232)" fill="#fff"/>
      </g>
    </g>
    <g id="Group_400" data-name="Group 400" transform="translate(36.386 22.873)">
      <g id="Group_399" data-name="Group 399">
        <path id="Path_493" data-name="Path 493" d="M337.725,262.3h1.532l.992,7.491h.028l.992-7.491h1.4l-1.463,9.656h-2.014Z" transform="translate(-337.725 -262.158)" fill="#fff"/>
        <path id="Path_494" data-name="Path 494" d="M340.17,262.3h1.518v9.656H340.17Z" transform="translate(-334.503 -262.158)" fill="#fff"/>
        <path id="Path_495" data-name="Path 495" d="M341.312,262.3h2.318c1.516,0,2.26.841,2.26,2.387v4.884c0,1.544-.744,2.385-2.26,2.385h-2.318Zm2.288,8.277c.484,0,.774-.248.774-.939v-5.021c0-.691-.29-.936-.774-.936h-.772v6.9Z" transform="translate(-332.998 -262.158)" fill="#fff"/>
        <path id="Path_496" data-name="Path 496" d="M345.128,262.3h2.054l1.572,9.656h-1.516l-.276-1.917v.028h-1.722l-.278,1.889h-1.407Zm1.655,6.455-.677-4.77h-.028l-.661,4.77Z" transform="translate(-330.043 -262.158)" fill="#fff"/>
        <path id="Path_497" data-name="Path 497" d="M348.479,263.676h-1.588V262.3h4.689v1.381h-1.585v8.275h-1.516Z" transform="translate(-325.645 -262.158)" fill="#fff"/>
        <path id="Path_498" data-name="Path 498" d="M349.23,262.3h4.137v1.381h-2.622v2.55h2.084v1.379h-2.084v2.967h2.622v1.379H349.23Z" transform="translate(-322.562 -262.158)" fill="#fff"/>
        <path id="Path_499" data-name="Path 499" d="M351.389,262.3h2.248c1.572,0,2.246.732,2.246,2.22v.593c0,.994-.315,1.63-.99,1.9v.03c.758.234,1.006.95,1.006,2.042v1.694a2.821,2.821,0,0,0,.167,1.173H354.52a2.953,2.953,0,0,1-.139-1.187V269c0-.9-.262-1.187-.95-1.187H352.9v4.138h-1.516Zm2.07,4.14c.566,0,.909-.248.909-1.02v-.744c0-.691-.232-.994-.772-.994H352.9v2.758Z" transform="translate(-319.717 -262.158)" fill="#fff"/>
        <path id="Path_500" data-name="Path 500" d="M353.785,262.3h2.248c1.574,0,2.248.732,2.248,2.22v.593c0,.994-.318,1.63-.992,1.9v.03c.758.234,1.008.95,1.008,2.042v1.694a2.861,2.861,0,0,0,.165,1.173h-1.546a3.018,3.018,0,0,1-.137-1.187V269c0-.9-.264-1.187-.953-1.187H355.3v4.138h-1.518Zm2.07,4.14c.566,0,.911-.248.911-1.02v-.744c0-.691-.234-.994-.772-.994H355.3v2.758Z" transform="translate(-316.559 -262.158)" fill="#fff"/>
        <path id="Path_501" data-name="Path 501" d="M356.183,262.3h4.137v1.381H357.7v2.55h2.084v1.379H357.7v2.967h2.621v1.379h-4.137Z" transform="translate(-313.399 -262.158)" fill="#fff"/>
        <path id="Path_502" data-name="Path 502" d="M358.229,269.739v-.549h1.435v.661c0,.691.3.939.786.939s.788-.248.788-.967c0-.8-.306-1.31-1.3-2.179-1.27-1.117-1.683-1.905-1.683-3.006a2.11,2.11,0,0,1,2.262-2.4c1.477,0,2.207.881,2.207,2.427v.4h-1.435v-.5c0-.686-.276-.95-.758-.95s-.758.264-.758.925c0,.7.318,1.212,1.307,2.081,1.27,1.12,1.671,1.891,1.671,3.09a2.144,2.144,0,0,1-2.29,2.457C358.973,272.168,358.229,271.285,358.229,269.739Z" transform="translate(-310.703 -262.236)" fill="#fff"/>
        <path id="Path_503" data-name="Path 503" d="M361.97,263.676h-1.588V262.3h4.691v1.381h-1.588v8.275H361.97Z" transform="translate(-307.865 -262.158)" fill="#fff"/>
        <path id="Path_504" data-name="Path 504" d="M362.72,262.3h2.248c1.574,0,2.248.732,2.248,2.22v.593c0,.994-.318,1.63-.992,1.9v.03c.758.234,1,.95,1,2.042v1.694a2.821,2.821,0,0,0,.169,1.173h-1.546a2.951,2.951,0,0,1-.139-1.187V269c0-.9-.262-1.187-.95-1.187h-.526v4.138H362.72Zm2.07,4.14c.566,0,.909-.248.909-1.02v-.744c0-.691-.234-.994-.772-.994h-.691v2.758Z" transform="translate(-304.784 -262.158)" fill="#fff"/>
        <path id="Path_505" data-name="Path 505" d="M365.118,262.3h4.137v1.381h-2.622v2.55h2.082v1.379h-2.082v2.967h2.622v1.379h-4.137Z" transform="translate(-301.623 -262.158)" fill="#fff"/>
      </g>
    </g>
  </g>
</svg>
