<svg id="Group_424" data-name="Group 424" xmlns="http://www.w3.org/2000/svg" width="114.623" height="114.629" viewBox="0 0 114.623 114.629">
  <g id="Group_352" data-name="Group 352" transform="translate(0 0)">
    <rect id="Rectangle_116" data-name="Rectangle 116" width="114.623" height="114.629" transform="translate(0 0)" fill="#e8271e"/>
    <path id="Path_205" data-name="Path 205" d="M276.35,205.709a3.5,3.5,0,0,0-3.273,1.6h-.037v-5.76h6.683V198.38H269.5V211.4h3.542v-.515c0-1.363.617-2.112,1.708-2.112,1.191,0,1.669.818,1.669,2.079v5.588c0,1.231-.443,2.082-1.636,2.082-1.328,0-1.806-.888-1.806-2.248v-2.9h-3.547v2.624c0,3.509,1.4,5.76,5.352,5.76,3.922,0,5.524-2.079,5.524-5.283v-5.658c0-3.648-1.875-5.116-3.954-5.116" transform="translate(-258.075 -188.785)" fill="#fff"/>
    <path id="Path_206" data-name="Path 206" d="M299.777,252.759a13.734,13.734,0,1,1,13.736-13.734,13.749,13.749,0,0,1-13.736,13.734m26.378-39.805H311.909a.182.182,0,0,0-.181.181v4.736a.184.184,0,0,0,.181.181h5.672l-6.3,6.3a18.652,18.652,0,1,0-13.91,33.174v5.454H291.75a.18.18,0,0,0-.181.181v5.072a.178.178,0,0,0,.181.181h5.623v5.368a.177.177,0,0,0,.176.181h5.072a.181.181,0,0,0,.185-.181v-5.368h5.619a.18.18,0,0,0,.181-.181V263.16a.181.181,0,0,0-.181-.181h-5.619v-5.544a18.642,18.642,0,0,0,12.222-29.141l6.21-6.21v5.3a.181.181,0,0,0,.185.181h4.731a.182.182,0,0,0,.185-.181V213.135a.182.182,0,0,0-.185-.181" transform="translate(-242.668 -169.578)" fill="#fff"/>
    <path id="Path_207" data-name="Path 207" d="M302.364,221.77H285.7a.173.173,0,0,0-.181.16v4.033a.172.172,0,0,0,.181.167h16.659a.174.174,0,0,0,.185-.167V221.93a.174.174,0,0,0-.185-.16" transform="translate(-236.864 -157.959)" fill="#fff"/>
    <path id="Path_208" data-name="Path 208" d="M302.364,224.876H285.7a.177.177,0,0,0-.181.169v4.033a.175.175,0,0,0,.181.162h16.659a.176.176,0,0,0,.185-.162v-4.033a.179.179,0,0,0-.185-.169" transform="translate(-236.864 -153.866)" fill="#fff"/>
    <g id="Group_348" data-name="Group 348" transform="translate(32.961 20.816)">
      <g id="Group_347" data-name="Group 347">
        <path id="Path_209" data-name="Path 209" d="M278.751,204.186h2.316c1.518,0,2.262.841,2.262,2.385v4.884c0,1.546-.744,2.385-2.262,2.385h-2.316Zm2.29,8.275c.482,0,.772-.248.772-.936V206.5c0-.688-.29-.936-.772-.936h-.774v6.9Z" transform="translate(-278.751 -201.949)" fill="#fff"/>
        <path id="Path_210" data-name="Path 210" d="M281.166,204.186H285.3v1.379h-2.621v2.552h2.084V209.5h-2.084v2.965H285.3v1.379h-4.137Z" transform="translate(-275.568 -201.949)" fill="#fff"/>
        <path id="Path_211" data-name="Path 211" d="M284.229,211.631v-5.076c0-1.546.772-2.429,2.262-2.429s2.262.883,2.262,2.429v.828h-1.435v-.925c0-.691-.3-.953-.786-.953s-.786.262-.786.953v5.283c0,.691.3.939.786.939s.786-.248.786-.939v-1.889h-.758v-1.379h2.193v3.159c0,1.544-.772,2.427-2.262,2.427S284.229,213.175,284.229,211.631Z" transform="translate(-271.531 -202.028)" fill="#fff"/>
        <path id="Path_212" data-name="Path 212" d="M286.6,205.458h4.137v1.379h-2.622v2.552H290.2v1.379h-2.084v2.965h2.622v1.379H286.6Zm2.207-2.237h1.655l-1.477,1.588h-1.143Z" transform="translate(-268.403 -203.221)" fill="#fff"/>
        <path id="Path_213" data-name="Path 213" d="M288.762,204.186h1.9l1.477,5.779h.028v-5.779h1.351v9.654h-1.56l-1.82-7.049h-.028v7.049h-1.351Z" transform="translate(-265.557 -201.949)" fill="#fff"/>
        <path id="Path_214" data-name="Path 214" d="M291.3,204.186h4.137v1.379h-2.622v2.552H294.9V209.5h-2.084v2.965h2.622v1.379H291.3Z" transform="translate(-262.21 -201.949)" fill="#fff"/>
        <path id="Path_215" data-name="Path 215" d="M293.461,204.186h2.248c1.574,0,2.248.73,2.248,2.221V207c0,.992-.318,1.627-.992,1.9v.028c.758.234,1.008.95,1.008,2.042v1.694a2.817,2.817,0,0,0,.165,1.173h-1.546a2.984,2.984,0,0,1-.139-1.184v-1.766c0-.9-.262-1.187-.95-1.187h-.524v4.137h-1.518Zm2.07,4.137c.566,0,.909-.248.909-1.02v-.746c0-.688-.232-.992-.772-.992h-.688v2.758Z" transform="translate(-259.365 -201.949)" fill="#fff"/>
        <path id="Path_216" data-name="Path 216" d="M295.811,211.631v-5.076a2.306,2.306,0,1,1,4.606,0v5.076a2.306,2.306,0,1,1-4.606,0Zm3.09.1v-5.269c0-.691-.3-.953-.786-.953s-.788.262-.788.953v5.269c0,.691.3.953.788.953S298.9,212.417,298.9,211.726Z" transform="translate(-256.267 -202.028)" fill="#fff"/>
      </g>
    </g>
    <g id="Group_349" data-name="Group 349" transform="translate(32.961 9.317)">
      <path id="Path_217" data-name="Path 217" d="M278.751,198.26h1.516v9.656h-1.516Z" transform="translate(-278.751 -198.26)" fill="#fff"/>
    </g>
    <g id="Group_351" data-name="Group 351" transform="translate(35.476 9.178)">
      <g id="Group_350" data-name="Group 350">
        <path id="Path_218" data-name="Path 218" d="M279.836,205.705v-5.076c0-1.546.772-2.429,2.262-2.429s2.262.883,2.262,2.429v.827h-1.435v-.925c0-.691-.3-.95-.788-.95s-.783.26-.783.95v5.283c0,.691.3.939.783.939s.788-.248.788-.939v-1.889h-.758v-1.379h2.193v3.159c0,1.544-.774,2.427-2.262,2.427S279.836,207.249,279.836,205.705Z" transform="translate(-279.836 -198.2)" fill="#fff"/>
        <path id="Path_219" data-name="Path 219" d="M282.185,205.626V198.26H283.7v7.475c0,.691.29.939.772.939s.774-.248.774-.939V198.26h1.46v7.366c0,1.544-.772,2.427-2.262,2.427S282.185,207.17,282.185,205.626Z" transform="translate(-276.74 -198.121)" fill="#fff"/>
        <path id="Path_220" data-name="Path 220" d="M286,198.26h2.056l1.572,9.656h-1.518L287.835,206v.028h-1.725l-.276,1.891h-1.407Zm1.655,6.455-.677-4.773h-.028l-.661,4.773Z" transform="translate(-273.784 -198.121)" fill="#fff"/>
        <path id="Path_221" data-name="Path 221" d="M286.986,198.26H288.5v8.275H291v1.381h-4.015Z" transform="translate(-270.413 -198.121)" fill="#fff"/>
        <path id="Path_222" data-name="Path 222" d="M289.032,198.26h2.318c1.516,0,2.262.841,2.262,2.385v4.884c0,1.546-.746,2.387-2.262,2.387h-2.318Zm2.29,8.275c.482,0,.772-.248.772-.936v-5.021c0-.691-.29-.939-.772-.939h-.774v6.9Z" transform="translate(-267.716 -198.121)" fill="#fff"/>
        <path id="Path_223" data-name="Path 223" d="M292.846,198.26H294.9l1.574,9.656h-1.516L294.681,206v.028h-1.725l-.276,1.891h-1.407Zm1.657,6.455-.677-4.773H293.8l-.665,4.773Z" transform="translate(-264.762 -198.121)" fill="#fff"/>
        <path id="Path_224" data-name="Path 224" d="M293.832,198.26h2.318c1.518,0,2.262.841,2.262,2.385v4.884c0,1.546-.744,2.387-2.262,2.387h-2.318Zm2.29,8.275c.484,0,.774-.248.774-.936v-5.021c0-.691-.29-.939-.774-.939h-.772v6.9Z" transform="translate(-261.391 -198.121)" fill="#fff"/>
        <path id="Path_225" data-name="Path 225" d="M296.247,198.26h4.14v1.379h-2.621v2.552h2.081v1.379h-2.081v2.965h2.621v1.381h-4.14Z" transform="translate(-258.208 -198.121)" fill="#fff"/>
      </g>
    </g>
  </g>
</svg>
