<svg xmlns="http://www.w3.org/2000/svg" width="49.461" height="49.464" viewBox="0 0 49.461 49.464">
  <g id="Group_17" data-name="Group 17" transform="translate(-444.475 -252.711)">
    <rect id="Rectangle_19" data-name="Rectangle 19" width="49.461" height="49.464" transform="translate(444.475 252.711)" fill="#063859"/>
    <path id="Path_99" data-name="Path 99" d="M451.877,256.857v9.972H450.2V259.2h-.016l-1.176,1.22h-.016v-1.749l1.545-1.81Z" fill="#fff"/>
    <path id="Path_100" data-name="Path 100" d="M452.641,256.857h4.207V258.4l-2.192,8.428h-1.662l2.236-8.6h-2.589Z" fill="#fff"/>
    <path id="Path_101" data-name="Path 101" d="M473.875,283.14a6.433,6.433,0,0,0,2.066-4.722,6.589,6.589,0,0,0-.054-.823,5.136,5.136,0,0,1,2.9,8.916,6.457,6.457,0,0,0-4.915-3.371m4.373,6.395a5.151,5.151,0,0,1-5.145,5.144,5.094,5.094,0,0,1-2.536-.676,6.427,6.427,0,0,0,1.649-5.658,6.426,6.426,0,0,0,5.928.16,5.069,5.069,0,0,1,.1,1.03m-17.5.042a5.062,5.062,0,0,1,.112-1.066,6.434,6.434,0,0,0,5.912-.162,6.351,6.351,0,0,0-.111,1.186,6.42,6.42,0,0,0,1.82,4.48,5.135,5.135,0,0,1-7.733-4.438m-2.232-6.867a5.152,5.152,0,0,1,4.594-5.115,6.4,6.4,0,0,0,2.05,5.582,6.455,6.455,0,0,0-4.939,3.348,5.13,5.13,0,0,1-1.705-3.815m10.981-9.437a5.148,5.148,0,0,1,4.716,3.094,6.462,6.462,0,0,0-4.716,3.621,6.456,6.456,0,0,0-4.716-3.621,5.152,5.152,0,0,1,4.716-3.094m1.226,11.7a5.125,5.125,0,0,1,6.992,2.29,5.125,5.125,0,0,1-6.992-2.29m-2.467.035a5.125,5.125,0,0,1-6.958,2.264,5.125,5.125,0,0,1,6.958-2.264m-3.836-7.384a5.147,5.147,0,0,1,4.386,5.082,5.3,5.3,0,0,1-.066.791,5.149,5.149,0,0,1-4.388-5.083,5,5,0,0,1,.068-.79m5.1,15.591a5.128,5.128,0,0,1-.047-7.328,5.133,5.133,0,0,1,.047,7.328m5.121-14.8a5.147,5.147,0,0,1-4.386,5.083,5.1,5.1,0,0,1,4.319-5.873,5.123,5.123,0,0,1,.067.79m7.134,4.292a6.451,6.451,0,0,0-6.206-6.437,6.441,6.441,0,0,0-12.147,0,6.438,6.438,0,0,0-3.72,11.516,6.438,6.438,0,0,0,6.189,8.229,6.41,6.41,0,0,0,3.636-1.128,6.439,6.439,0,0,0,10.016-5.355,6.334,6.334,0,0,0-.245-1.753,6.436,6.436,0,0,0,2.477-5.072" fill="#fff"/>
    <text id="PARCERIAS_E_MEIOS" data-name="PARCERIAS E MEIOS" transform="translate(458.813 260.49)" fill="#fff" font-size="5.383" font-family="BebasNeue-Regular, Bebas Neue"><tspan x="0" y="0">PARCERIAS E MEIOS</tspan></text>
    <text id="DE_IMPLEMENTAÇÃO" data-name="DE IMPLEMENTAÇÃO" transform="translate(458.813 265.859)" fill="#fff" font-size="5.383" font-family="BebasNeue-Regular, Bebas Neue"><tspan x="0" y="0">DE IMPLEMENTAÇÃO</tspan></text>
  </g>
</svg>
