<svg id="Group_429" data-name="Group 429" xmlns="http://www.w3.org/2000/svg" width="114.646" height="114.652" viewBox="0 0 114.646 114.652">
  <g id="Group_412" data-name="Group 412" transform="translate(0 0)">
    <rect id="Rectangle_130" data-name="Rectangle 130" width="114.646" height="114.652" transform="translate(0 0)" fill="#063859"/>
    <path id="Path_550" data-name="Path 550" d="M448.15,256.6v23.114h-3.885V262.02h-.036l-2.725,2.827h-.036v-4.053l3.582-4.2Z" transform="translate(-430.995 -246.988)" fill="#fff"/>
    <path id="Path_551" data-name="Path 551" d="M445.115,256.6h9.751v3.579l-5.082,19.535h-3.852l5.184-19.944h-6Z" transform="translate(-426.187 -246.988)" fill="#fff"/>
    <path id="Path_552" data-name="Path 552" d="M486.336,297.439a13.652,13.652,0,0,0,4.385-10.02,14.05,14.05,0,0,0-.116-1.748,10.9,10.9,0,0,1,6.161,18.921,13.7,13.7,0,0,0-10.431-7.153m9.281,13.571a10.93,10.93,0,0,1-10.92,10.915,10.815,10.815,0,0,1-5.382-1.432,13.632,13.632,0,0,0,3.753-9.392,13.872,13.872,0,0,0-.253-2.617,13.625,13.625,0,0,0,12.582.341,10.792,10.792,0,0,1,.22,2.186m-37.138.09a10.865,10.865,0,0,1,.236-2.265,13.636,13.636,0,0,0,12.547-.343,13.605,13.605,0,0,0,3.628,12.023,10.814,10.814,0,0,1-5.493,1.5A10.929,10.929,0,0,1,458.479,311.1m-4.738-14.573a10.936,10.936,0,0,1,9.749-10.857,14.027,14.027,0,0,0-.116,1.748,13.648,13.648,0,0,0,4.467,10.1,13.7,13.7,0,0,0-10.482,7.1,10.881,10.881,0,0,1-3.618-8.094m23.3-20.029a10.929,10.929,0,0,1,10.009,6.564,13.725,13.725,0,0,0-10.009,7.686,13.707,13.707,0,0,0-10.006-7.686,10.933,10.933,0,0,1,10.006-6.564m2.6,24.836a10.885,10.885,0,0,1,14.839,4.861,10.878,10.878,0,0,1-14.839-4.861m-5.234.077a10.88,10.88,0,0,1-14.767,4.8,10.88,10.88,0,0,1,14.767-4.8m-8.141-15.671a10.809,10.809,0,0,1,9.165,12.463,10.926,10.926,0,0,1-9.311-10.785,10.508,10.508,0,0,1,.146-1.678M477.1,318.827a10.887,10.887,0,0,1-.1-15.551,10.887,10.887,0,0,1,.1,15.551m10.869-31.408a10.922,10.922,0,0,1-9.309,10.785,11.129,11.129,0,0,1-.141-1.676,10.923,10.923,0,0,1,9.309-10.788,11.084,11.084,0,0,1,.141,1.678m15.141,9.109a13.691,13.691,0,0,0-13.17-13.662,13.67,13.67,0,0,0-25.78,0,13.663,13.663,0,0,0-7.892,24.438A13.66,13.66,0,0,0,469.4,324.768a13.6,13.6,0,0,0,7.716-2.392,13.66,13.66,0,0,0,20.736-15.085,13.658,13.658,0,0,0,5.257-10.762" transform="translate(-418.445 -224.387)" fill="#fff"/>
    <g id="Group_409" data-name="Group 409" transform="translate(33.743 9.166)">
      <g id="Group_408" data-name="Group 408">
        <path id="Path_553" data-name="Path 553" d="M451.507,256.461h2.024c1.372,0,2.047.763,2.047,2.16v.862c0,1.4-.675,2.16-2.047,2.16h-.649V265.2h-1.375Zm2.024,3.931c.438,0,.674-.2.674-.823v-1.034c0-.626-.236-.825-.674-.825h-.649v2.682Z" transform="translate(-451.507 -256.336)" fill="#fff"/>
        <path id="Path_554" data-name="Path 554" d="M454.852,256.461h1.861l1.423,8.741h-1.372l-.25-1.736v.023h-1.562L454.7,265.2h-1.275Zm1.5,5.843-.612-4.321h-.026l-.6,4.321Z" transform="translate(-448.974 -256.336)" fill="#fff"/>
        <path id="Path_555" data-name="Path 555" d="M455.744,256.461h2.033c1.425,0,2.035.661,2.035,2.01v.538c0,.9-.287,1.474-.9,1.722v.025c.686.213.911.862.911,1.85v1.534a2.548,2.548,0,0,0,.151,1.062h-1.4a2.7,2.7,0,0,1-.125-1.073v-1.6c0-.811-.236-1.076-.862-1.076h-.473V265.2h-1.372Zm1.871,3.746c.515,0,.827-.225.827-.923v-.674c0-.626-.213-.9-.7-.9h-.626v2.5Z" transform="translate(-445.923 -256.336)" fill="#fff"/>
        <path id="Path_556" data-name="Path 556" d="M457.876,263.249v-4.694a2.026,2.026,0,1,1,4.045,0v.925h-1.3v-1.013c0-.575-.274-.811-.686-.811s-.688.236-.688.811v4.884c0,.572.276.8.688.8s.686-.225.686-.8v-1.34h1.3v1.238a2.026,2.026,0,1,1-4.045,0Z" transform="translate(-443.113 -256.407)" fill="#fff"/>
        <path id="Path_557" data-name="Path 557" d="M459.975,256.461h3.746v1.249h-2.371v2.309h1.885v1.249h-1.885v2.684h2.371V265.2h-3.746Z" transform="translate(-440.347 -256.336)" fill="#fff"/>
        <path id="Path_558" data-name="Path 558" d="M461.929,256.461h2.035c1.423,0,2.035.661,2.035,2.01v.538c0,.9-.287,1.474-.9,1.722v.025c.686.213.913.862.913,1.85v1.534a2.586,2.586,0,0,0,.148,1.062h-1.4a2.658,2.658,0,0,1-.125-1.073v-1.6c0-.811-.239-1.076-.862-1.076H463.3V265.2h-1.375Zm1.873,3.746c.512,0,.825-.225.825-.923v-.674c0-.626-.213-.9-.7-.9H463.3v2.5Z" transform="translate(-437.772 -256.336)" fill="#fff"/>
        <path id="Path_559" data-name="Path 559" d="M464.1,256.461h1.375V265.2H464.1Z" transform="translate(-434.913 -256.336)" fill="#fff"/>
        <path id="Path_560" data-name="Path 560" d="M466.4,256.461h1.861l1.423,8.741h-1.375l-.248-1.736v.023H466.5l-.248,1.713h-1.275Zm1.5,5.843-.612-4.321h-.025l-.6,4.321Z" transform="translate(-433.756 -256.336)" fill="#fff"/>
        <path id="Path_561" data-name="Path 561" d="M467.188,263.2v-.5h1.3v.6c0,.623.276.848.712.848s.714-.225.714-.874c0-.723-.276-1.184-1.175-1.973a3.391,3.391,0,0,1-1.523-2.721,1.911,1.911,0,0,1,2.047-2.174c1.338,0,2,.8,2,2.2v.362h-1.3v-.45c0-.626-.248-.862-.688-.862s-.686.236-.686.837c0,.635.287,1.1,1.187,1.884a3.378,3.378,0,0,1,1.509,2.8c0,1.426-.721,2.223-2.07,2.223S467.188,264.6,467.188,263.2Z" transform="translate(-430.841 -256.407)" fill="#fff"/>
        <path id="Path_562" data-name="Path 562" d="M470.154,256.461h2.024c1.372,0,2.047.763,2.047,2.16v.862c0,1.4-.675,2.16-2.047,2.16h-.651V265.2h-1.372Zm2.024,3.931c.436,0,.674-.2.674-.823v-1.034c0-.626-.239-.825-.674-.825h-.651v2.682Z" transform="translate(-426.932 -256.336)" fill="#fff"/>
        <path id="Path_563" data-name="Path 563" d="M473.5,256.461h1.861l1.423,8.741h-1.375l-.248-1.736v.023H473.6l-.25,1.713h-1.273ZM475,262.3l-.61-4.321h-.026l-.6,4.321Z" transform="translate(-424.399 -256.336)" fill="#fff"/>
        <path id="Path_564" data-name="Path 564" d="M474.391,256.461h2.035c1.423,0,2.035.661,2.035,2.01v.538c0,.9-.287,1.474-.9,1.722v.025c.686.213.913.862.913,1.85v1.534a2.587,2.587,0,0,0,.148,1.062h-1.4a2.657,2.657,0,0,1-.125-1.073v-1.6c0-.811-.239-1.076-.862-1.076h-.473V265.2h-1.375Zm1.873,3.746c.512,0,.825-.225.825-.923v-.674c0-.626-.213-.9-.7-.9h-.623v2.5Z" transform="translate(-421.348 -256.336)" fill="#fff"/>
        <path id="Path_565" data-name="Path 565" d="M477.827,256.461h1.861l1.423,8.741h-1.374l-.248-1.736v.023h-1.562l-.25,1.713H476.4Zm1.5,5.843-.61-4.321h-.025l-.6,4.321Z" transform="translate(-418.695 -256.336)" fill="#fff"/>
      </g>
    </g>
    <g id="Group_411" data-name="Group 411" transform="translate(33.384 19.664)">
      <g id="Group_410" data-name="Group 410">
        <path id="Path_566" data-name="Path 566" d="M452.775,261.83h1.861l1.423,8.741h-1.374l-.248-1.736v.026h-1.562l-.248,1.711h-1.275Zm1.5,5.844-.612-4.318h-.025l-.6,4.318Z" transform="translate(-451.352 -259.758)" fill="#fff"/>
        <path id="Path_567" data-name="Path 567" d="M454.528,261.83H455.9v8.741h-1.372Z" transform="translate(-447.166 -259.758)" fill="#fff"/>
        <path id="Path_568" data-name="Path 568" d="M455.562,261.83h1.961l.874,6.256h.023l.874-6.256h1.961v8.741h-1.3v-6.618h-.023l-1,6.618h-1.147l-1-6.618h-.025v6.618h-1.2Z" transform="translate(-445.803 -259.758)" fill="#fff"/>
        <path id="Path_569" data-name="Path 569" d="M458.457,261.83h2.023c1.372,0,2.047.763,2.047,2.16v.862c0,1.4-.674,2.16-2.047,2.16h-.649v3.558h-1.375Zm2.023,3.934c.438,0,.675-.2.675-.825V263.9c0-.626-.236-.825-.675-.825h-.649v2.684Z" transform="translate(-441.988 -259.758)" fill="#fff"/>
        <path id="Path_570" data-name="Path 570" d="M460.535,261.83h1.375v7.492h2.26v1.249h-3.634Z" transform="translate(-439.25 -259.758)" fill="#fff"/>
        <path id="Path_571" data-name="Path 571" d="M462.387,261.83h3.746v1.249h-2.371v2.309h1.884v1.252h-1.884v2.682h2.371v1.249h-3.746Z" transform="translate(-436.809 -259.758)" fill="#fff"/>
        <path id="Path_572" data-name="Path 572" d="M464.341,261.83H466.3l.874,6.256h.025l.874-6.256h1.959v8.741h-1.3v-6.618h-.026l-1,6.618h-1.147l-1-6.618h-.023v6.618h-1.2Z" transform="translate(-434.234 -259.758)" fill="#fff"/>
        <path id="Path_573" data-name="Path 573" d="M467.238,261.83h3.746v1.249H468.61v2.309H470.5v1.252H468.61v2.682h2.374v1.249h-3.746Z" transform="translate(-430.416 -259.758)" fill="#fff"/>
        <path id="Path_574" data-name="Path 574" d="M469.192,261.83h1.722l1.335,5.232h.028V261.83H473.5v8.741h-1.409l-1.648-6.379h-.026v6.379h-1.224Z" transform="translate(-427.84 -259.758)" fill="#fff"/>
        <path id="Path_575" data-name="Path 575" d="M472.768,263.079h-1.435V261.83h4.246v1.249h-1.437v7.492h-1.375Z" transform="translate(-425.019 -259.758)" fill="#fff"/>
        <path id="Path_576" data-name="Path 576" d="M474.718,261.83h1.859L478,270.571h-1.375l-.25-1.736v.026h-1.56l-.25,1.711h-1.275Zm1.5,5.844-.612-4.318h-.023l-.6,4.318Z" transform="translate(-422.436 -259.758)" fill="#fff"/>
        <path id="Path_577" data-name="Path 577" d="M478.315,264.848v-1.013c0-.575-.274-.811-.686-.811s-.688.236-.688.811v4.884c0,.573.278.8.688.8s.686-.225.686-.8v-1.337h1.3v1.235a1.883,1.883,0,0,1-1.7,2.137v.373c.552,0,.862.148.862.586,0,.674-.524.763-1.273.763-.686,0-1.2-.151-1.2-.726v-.123h.923v.1c0,.188.139.248.276.248.225,0,.325-.086.325-.3,0-.236-.148-.327-.461-.327H477.3v-.6a1.876,1.876,0,0,1-1.734-2.137v-4.694a2.026,2.026,0,1,1,4.045,0v.925Z" transform="translate(-419.433 -259.828)" fill="#fff"/>
        <path id="Path_578" data-name="Path 578" d="M478.937,263.008H480.8l1.423,8.741h-1.375l-.248-1.736v.026h-1.562l-.248,1.711h-1.275Zm-.8-.936c.311-.7.661-1.048,1.136-1.048a1.377,1.377,0,0,1,.749.236.845.845,0,0,0,.424.165c.2,0,.336-.139.5-.489l.663.4c-.313.7-.663,1.048-1.138,1.048a1.358,1.358,0,0,1-.749-.239.859.859,0,0,0-.422-.16c-.2,0-.338.137-.5.487Zm2.3,6.78-.612-4.318H479.8l-.6,4.318Z" transform="translate(-416.873 -260.936)" fill="#fff"/>
        <path id="Path_579" data-name="Path 579" d="M479.785,268.566v-4.592a2.088,2.088,0,1,1,4.17,0v4.592a2.088,2.088,0,1,1-4.17,0Zm2.8.088v-4.768c0-.626-.278-.862-.714-.862s-.712.236-.712.862v4.768c0,.626.274.862.712.862S482.585,269.28,482.585,268.654Z" transform="translate(-413.88 -259.828)" fill="#fff"/>
        <path id="Path_580" data-name="Path 580" d="M451.508,267.231h2.1c1.372,0,2.047.763,2.047,2.158v4.423c0,1.4-.674,2.158-2.047,2.158h-2.1Zm2.075,7.489c.436,0,.7-.225.7-.848v-4.543c0-.626-.262-.848-.7-.848h-.7v6.24Z" transform="translate(-451.146 -252.64)" fill="#fff"/>
        <path id="Path_581" data-name="Path 581" d="M453.651,273.968v-4.594a2.088,2.088,0,1,1,4.17,0v4.594a2.088,2.088,0,1,1-4.17,0Zm2.8.088v-4.77c0-.624-.276-.862-.714-.862s-.709.239-.709.862v4.77c0,.624.274.862.709.862S456.449,274.68,456.449,274.057Z" transform="translate(-448.322 -252.711)" fill="#fff"/>
        <path id="Path_582" data-name="Path 582" d="M455.744,273.968v-.5h1.3v.6c0,.621.274.848.712.848s.712-.227.712-.874c0-.726-.276-1.187-1.175-1.975a3.387,3.387,0,0,1-1.523-2.719,1.913,1.913,0,0,1,2.049-2.174c1.335,0,2,.8,2,2.2v.364h-1.3v-.452c0-.624-.25-.862-.688-.862s-.686.239-.686.837c0,.637.287,1.1,1.187,1.887a3.373,3.373,0,0,1,1.509,2.8,1.937,1.937,0,0,1-2.07,2.223C456.418,276.166,455.744,275.366,455.744,273.968Z" transform="translate(-445.564 -252.711)" fill="#fff"/>
        <path id="Path_583" data-name="Path 583" d="M458.667,273.968v-4.594a2.088,2.088,0,1,1,4.17,0v4.594a2.088,2.088,0,1,1-4.17,0Zm2.8.088v-4.77c0-.624-.276-.862-.712-.862s-.712.239-.712.862v4.77c0,.624.273.862.712.862S461.465,274.68,461.465,274.057Z" transform="translate(-441.711 -252.711)" fill="#fff"/>
        <path id="Path_584" data-name="Path 584" d="M460.864,267.231h2.072c1.423,0,2.035.661,2.035,2.01v.35c0,.9-.276,1.46-.888,1.711v.023c.739.25,1.025.9,1.025,1.822v.751a1.858,1.858,0,0,1-2.086,2.072h-2.158Zm1.91,3.558c.512,0,.823-.225.823-.925v-.487c0-.624-.211-.9-.7-.9h-.663v2.309Zm.248,3.931c.461,0,.714-.211.714-.86V273.1c0-.811-.262-1.059-.888-1.059h-.612v2.682Z" transform="translate(-438.816 -252.64)" fill="#fff"/>
        <path id="Path_585" data-name="Path 585" d="M462.9,275.97V274.72a1.751,1.751,0,0,0,.45.051c.549,0,.811-.262.811-.837v-6.7h1.372V273.9c0,1.437-.649,2.123-2,2.123A3.143,3.143,0,0,1,462.9,275.97Z" transform="translate(-436.128 -252.64)" fill="#fff"/>
        <path id="Path_586" data-name="Path 586" d="M464.465,267.231h3.746v1.249h-2.371v2.309h1.884v1.249h-1.884v2.682h2.371v1.249h-3.746Z" transform="translate(-434.07 -252.64)" fill="#fff"/>
        <path id="Path_587" data-name="Path 587" d="M467.7,268.48h-1.435v-1.249h4.246v1.249h-1.437v7.489H467.7Z" transform="translate(-431.701 -252.64)" fill="#fff"/>
        <path id="Path_588" data-name="Path 588" d="M468.379,267.231h1.375v8.739h-1.375Z" transform="translate(-428.912 -252.64)" fill="#fff"/>
        <path id="Path_589" data-name="Path 589" d="M469.256,267.231h1.386l.9,6.78h.023l.9-6.78h1.261L472.4,275.97h-1.824Z" transform="translate(-427.756 -252.64)" fill="#fff"/>
        <path id="Path_590" data-name="Path 590" d="M471.425,273.968v-4.594a2.088,2.088,0,1,1,4.17,0v4.594a2.088,2.088,0,1,1-4.17,0Zm2.8.088v-4.77c0-.624-.276-.862-.711-.862s-.712.239-.712.862v4.77c0,.624.274.862.712.862S474.223,274.68,474.223,274.057Z" transform="translate(-424.897 -252.711)" fill="#fff"/>
        <path id="Path_591" data-name="Path 591" d="M473.519,273.968v-.5h1.3v.6c0,.621.276.848.712.848s.714-.227.714-.874c0-.726-.276-1.187-1.175-1.975a3.387,3.387,0,0,1-1.523-2.719,1.911,1.911,0,0,1,2.047-2.174c1.337,0,2,.8,2,2.2v.364h-1.3v-.452c0-.624-.25-.862-.688-.862s-.686.239-.686.837c0,.637.287,1.1,1.187,1.887a3.372,3.372,0,0,1,1.509,2.8,1.937,1.937,0,0,1-2.07,2.223C474.193,276.166,473.519,275.366,473.519,273.968Z" transform="translate(-422.138 -252.711)" fill="#fff"/>
      </g>
    </g>
  </g>
</svg>
