<svg id="Group_430" data-name="Group 430" xmlns="http://www.w3.org/2000/svg" width="114.646" height="114.652" viewBox="0 0 114.646 114.652">
  <rect id="Rectangle_129" data-name="Rectangle 129" width="114.646" height="114.652" transform="translate(0 0)" fill="#00588e"/>
  <path id="Path_506" data-name="Path 506" d="M383.242,260.711v4.057h.036L386,261.937h.036v17.7h3.885V256.516h-3.1Z" transform="translate(-374.422 -246.899)" fill="#fff"/>
  <path id="Path_507" data-name="Path 507" d="M394.619,274.571c0,1.465-.547,2.318-1.875,2.318-1.3,0-1.806-.886-1.806-2.318v-4.23c.065-1.293.612-2.112,1.84-2.112,1.326,0,1.84.818,1.84,2.32Zm3.852-.341v-3.41c0-3.785-1.5-5.7-4.3-5.7A3.327,3.327,0,0,0,390.97,267h-.033v-4.977c0-1.4.44-2.385,1.84-2.385s1.808.816,1.808,2.246v1.539h3.544V262.2c0-3.412-1.122-5.8-5.424-5.8-4.089,0-5.626,2.626-5.626,6.238v11.251c0,3.583,1.572,6.173,5.663,6.173,4.126,0,5.728-2.251,5.728-5.829" transform="translate(-369.363 -247.053)" fill="#fff"/>
  <path id="Path_508" data-name="Path 508" d="M414.576,273.045a3.3,3.3,0,0,0,1.2,5.32,3.3,3.3,0,0,0-1.2-5.32" transform="translate(-334.267 -225.115)" fill="#fff"/>
  <path id="Path_509" data-name="Path 509" d="M414.462,279.782a3.3,3.3,0,0,0-1.2-5.317,3.3,3.3,0,0,0,1.2,5.317" transform="translate(-336.003 -223.243)" fill="#fff"/>
  <path id="Path_510" data-name="Path 510" d="M415.3,276.936a3.734,3.734,0,0,0,2.561,1.087,3.9,3.9,0,0,0,2.378-1.528,3.736,3.736,0,0,0-2.564-1.087,3.906,3.906,0,0,0-2.376,1.527" transform="translate(-332.174 -222.011)" fill="#fff"/>
  <path id="Path_511" data-name="Path 511" d="M416.693,273.825a4.517,4.517,0,0,0-.955,3.122,4.313,4.313,0,0,0,3.071-.957,4.513,4.513,0,0,0,.955-3.12,4.319,4.319,0,0,0-3.071.955" transform="translate(-331.605 -225.357)" fill="#fff"/>
  <path id="Path_512" data-name="Path 512" d="M416.39,279.48a3.884,3.884,0,0,0,2.638-1.008,3.734,3.734,0,0,0-2.285-1.588,3.916,3.916,0,0,0-2.64,1.008,3.726,3.726,0,0,0,2.288,1.588" transform="translate(-333.752 -220.074)" fill="#fff"/>
  <path id="Path_513" data-name="Path 513" d="M422.212,288.191H412.043a1.438,1.438,0,0,0,0,2.877h10.169a1.438,1.438,0,0,0,0-2.877" transform="translate(-338.359 -205.154)" fill="#fff"/>
  <path id="Path_514" data-name="Path 514" d="M422.212,295.031H412.043a1.437,1.437,0,1,0,0,2.874h10.169a1.437,1.437,0,0,0,0-2.874" transform="translate(-338.359 -196.139)" fill="#fff"/>
  <path id="Path_515" data-name="Path 515" d="M396.287,286.787a6.444,6.444,0,0,0-.7-.181s.262.083.7.181" transform="translate(-358.16 -207.243)" fill="#fff"/>
  <path id="Path_516" data-name="Path 516" d="M412.991,308.554c.668.012,1.342-.009,2.014-.053v5.31l-2.014-.046Zm28.87,1.15h-9.42a.818.818,0,0,0-.818.818v2.853l-6.152.677-8.984-.206v-5.487a24.81,24.81,0,0,0,3.574-.728c8.648-2.441,10.537-9.592,10.347-14.536-.188-5.042,1.423-7,3.741-7.867a10.561,10.561,0,0,1,1.919-.51,15.463,15.463,0,0,0,.83,4.39c.206-.012.41-.028.614-.051a14.5,14.5,0,0,1-.846-4.423,10.585,10.585,0,0,1,2.049-.063,13.066,13.066,0,0,1-1.949-1.391c.387-2.385,1.808-3.852,3.273-5.35a17.33,17.33,0,0,0,2.292-2.693l-.51-.327a17.011,17.011,0,0,1-2.218,2.6c-1.428,1.46-2.867,2.955-3.359,5.322a20.465,20.465,0,0,1-1.481-1.49c-2.13-2.392-4.877-.633-8.792,3.009s-8.843,3.771-13.655-1.152c-6.346-6.5-11.882-6.462-15.678-6.091,2.6,1.108,3.507,3.533,4.819,9.7,1.379,6.474,4.854,9.4,9.605,9.807-2.645.934-2.774,2.425-6.316,4.872-2.765,1.91-6.657,1.3-8.233.948,2.9.9,6.326,3.94,9.394,5a22.767,22.767,0,0,0,5.6,1.15v5.255l-16.1-.369v3.665l30.059-.686,6.152.677v2.849a.819.819,0,0,0,.818.823h9.42a.821.821,0,0,0,.821-.823v-9.346a.82.82,0,0,0-.821-.818" transform="translate(-358.384 -222.786)" fill="#fff"/>
  <path id="Path_517" data-name="Path 517" d="M396.815,295a1.311,1.311,0,0,1-1.205,1.4h-.723a1.314,1.314,0,0,1-1.205-1.4v-2.534a1.314,1.314,0,0,1,1.205-1.4h.723a1.311,1.311,0,0,1,1.205,1.4Z" transform="translate(-360.665 -201.362)" fill="#fff"/>
  <g id="Group_403" data-name="Group 403" transform="translate(36.824 7.042)">
    <g id="Group_402" data-name="Group 402">
      <path id="Path_518" data-name="Path 518" d="M395.324,255.464h2.232c1.518,0,2.262.841,2.262,2.387v.953c0,1.546-.744,2.385-2.262,2.385h-.716v3.931h-1.516Zm2.232,4.346c.482,0,.746-.222.746-.909v-1.147c0-.688-.264-.909-.746-.909h-.716v2.965Z" transform="translate(-395.324 -255.327)" fill="#fff"/>
      <path id="Path_519" data-name="Path 519" d="M399.018,255.464h2.056l1.572,9.656h-1.518l-.276-1.917v.028H399.13l-.276,1.889h-1.407Zm1.655,6.455-.677-4.77h-.028l-.661,4.77Z" transform="translate(-392.526 -255.327)" fill="#fff"/>
      <path id="Path_520" data-name="Path 520" d="M399.874,263.769l2.814-6.924h-2.675v-1.381h4.3v1.354l-2.812,6.924h2.812v1.379h-4.441Z" transform="translate(-389.327 -255.327)" fill="#fff"/>
      <path id="Path_521" data-name="Path 521" d="M402.653,260.462h-.494V259h1.46v1.312l-.758,1.806h-.7Z" transform="translate(-386.316 -250.668)" fill="#fff"/>
      <path id="Path_522" data-name="Path 522" d="M404.079,265.12v-1.379a2.022,2.022,0,0,0,.5.056c.607,0,.9-.29.9-.925v-7.408h1.516v7.366c0,1.585-.716,2.346-2.207,2.346A3.593,3.593,0,0,1,404.079,265.12Z" transform="translate(-383.786 -255.327)" fill="#fff"/>
      <path id="Path_523" data-name="Path 523" d="M405.781,262.83v-7.366H407.3v7.478c0,.691.29.939.772.939s.772-.248.772-.939v-7.478h1.463v7.366c0,1.546-.772,2.429-2.262,2.429S405.781,264.376,405.781,262.83Z" transform="translate(-381.543 -255.327)" fill="#fff"/>
      <path id="Path_524" data-name="Path 524" d="M408.082,262.908v-.549h1.437v.661c0,.691.3.939.783.939s.788-.248.788-.967c0-.8-.306-1.31-1.3-2.179-1.27-1.117-1.685-1.905-1.685-3.006a2.112,2.112,0,0,1,2.265-2.4c1.474,0,2.207.881,2.207,2.427v.4h-1.435v-.5c0-.686-.276-.95-.758-.95s-.76.264-.76.925c0,.7.318,1.212,1.31,2.081,1.27,1.12,1.671,1.891,1.671,3.09a2.145,2.145,0,0,1-2.292,2.457C408.828,265.337,408.082,264.454,408.082,262.908Z" transform="translate(-378.51 -255.405)" fill="#fff"/>
      <path id="Path_525" data-name="Path 525" d="M411.821,256.845h-1.585v-1.381h4.689v1.381H413.34v8.275h-1.518Z" transform="translate(-375.671 -255.327)" fill="#fff"/>
      <path id="Path_526" data-name="Path 526" d="M412.574,255.464h1.516v9.656h-1.516Z" transform="translate(-372.59 -255.327)" fill="#fff"/>
      <path id="Path_527" data-name="Path 527" d="M416.71,258.8v-1.115c0-.633-.3-.9-.758-.9s-.76.264-.76.9v5.394c0,.635.3.883.76.883s.758-.248.758-.883V261.6h1.435v1.365a2.078,2.078,0,0,1-1.878,2.36v.415c.607,0,.95.165.95.647,0,.744-.579.841-1.4.841-.758,0-1.323-.165-1.323-.8v-.137h1.02v.111a.267.267,0,0,0,.3.276c.246,0,.357-.1.357-.332,0-.262-.165-.359-.508-.359h-.072v-.661a2.075,2.075,0,0,1-1.917-2.36v-5.185a2.24,2.24,0,1,1,4.471,0V258.8Z" transform="translate(-371.14 -255.405)" fill="#fff"/>
      <path id="Path_528" data-name="Path 528" d="M417.393,255.464h2.056l1.572,9.656H419.5l-.276-1.917v.028H417.5l-.276,1.889h-1.407Zm1.655,6.455-.677-4.77h-.028l-.661,4.77Z" transform="translate(-368.309 -255.327)" fill="#fff"/>
      <path id="Path_529" data-name="Path 529" d="M419.331,255.464h4.14v1.381h-2.622v2.55h2.081v1.379h-2.081v2.967h2.622v1.379h-4.14Z" transform="translate(-363.685 -255.327)" fill="#fff"/>
    </g>
  </g>
  <g id="Group_405" data-name="Group 405" transform="translate(37.024 18.368)">
    <g id="Group_404" data-name="Group 404" transform="translate(0 0)">
      <path id="Path_530" data-name="Path 530" d="M395.41,261.279h1.516v9.656H395.41Z" transform="translate(-395.41 -258.989)" fill="#fff"/>
      <path id="Path_531" data-name="Path 531" d="M396.551,261.279h1.9l1.476,5.781h.028v-5.781h1.351v9.656h-1.558l-1.822-7.049H397.9v7.049h-1.351Z" transform="translate(-393.906 -258.989)" fill="#fff"/>
      <path id="Path_532" data-name="Path 532" d="M398.978,268.722v-.549h1.435v.661c0,.691.3.939.786.939s.786-.248.786-.966c0-.8-.3-1.31-1.3-2.179-1.27-1.115-1.683-1.9-1.683-3.006a2.111,2.111,0,0,1,2.262-2.4c1.477,0,2.207.883,2.207,2.429v.4H402.04v-.5c0-.688-.276-.95-.758-.95s-.758.262-.758.923c0,.7.318,1.215,1.307,2.084,1.27,1.117,1.671,1.889,1.671,3.09a2.143,2.143,0,0,1-2.29,2.455C399.722,271.151,398.978,270.268,398.978,268.722Z" transform="translate(-390.708 -259.068)" fill="#fff"/>
      <path id="Path_533" data-name="Path 533" d="M402.719,262.658h-1.588v-1.379h4.691v1.379h-1.588v8.277h-1.516Z" transform="translate(-387.87 -258.989)" fill="#fff"/>
      <path id="Path_534" data-name="Path 534" d="M403.47,261.279h1.516v9.656H403.47Z" transform="translate(-384.788 -258.989)" fill="#fff"/>
      <path id="Path_535" data-name="Path 535" d="M406.024,262.658h-1.585v-1.379h4.689v1.379h-1.585v8.277h-1.518Z" transform="translate(-383.511 -258.989)" fill="#fff"/>
      <path id="Path_536" data-name="Path 536" d="M406.752,268.643v-7.364h1.521v7.475c0,.691.29.939.772.939s.772-.248.772-.939v-7.475h1.46v7.364c0,1.546-.772,2.429-2.26,2.429S406.752,270.189,406.752,268.643Z" transform="translate(-380.462 -258.989)" fill="#fff"/>
      <path id="Path_537" data-name="Path 537" d="M409.168,261.279h1.518v9.656h-1.518Z" transform="translate(-377.278 -258.989)" fill="#fff"/>
      <path id="Path_538" data-name="Path 538" d="M413.3,264.612V263.5c0-.633-.3-.895-.758-.895s-.758.262-.758.895v5.4c0,.633.3.881.758.881s.758-.248.758-.881v-1.477h1.437v1.365a2.076,2.076,0,0,1-1.877,2.357v.415c.607,0,.95.165.95.647,0,.746-.579.844-1.4.844-.758,0-1.326-.167-1.326-.8V272.1H412.1v.111c0,.209.151.276.3.276.246,0,.357-.1.357-.329,0-.264-.165-.362-.51-.362h-.07v-.661a2.073,2.073,0,0,1-1.917-2.357v-5.187a2.24,2.24,0,1,1,4.471,0v1.02Z" transform="translate(-375.828 -259.068)" fill="#fff"/>
      <path id="Path_539" data-name="Path 539" d="M412.54,269.945v-5.074a2.307,2.307,0,1,1,4.608,0v5.074a2.307,2.307,0,1,1-4.608,0Zm.387-8.4c.345-.772.732-1.159,1.254-1.159a1.5,1.5,0,0,1,.83.264.935.935,0,0,0,.468.178c.223,0,.373-.153.552-.538l.732.443c-.348.772-.732,1.159-1.256,1.159a1.5,1.5,0,0,1-.828-.264.934.934,0,0,0-.47-.179c-.22,0-.371.153-.549.538Zm2.7,8.5v-5.269c0-.688-.3-.95-.783-.95s-.788.262-.788.95v5.269c0,.691.3.953.788.953S415.63,270.733,415.63,270.042Z" transform="translate(-372.834 -260.291)" fill="#fff"/>
      <path id="Path_540" data-name="Path 540" d="M414.968,261.279h4.137v1.379h-2.621v2.552h2.084v1.379h-2.084v2.967h2.621v1.379h-4.137Z" transform="translate(-369.634 -258.989)" fill="#fff"/>
      <path id="Path_541" data-name="Path 541" d="M417.014,268.722v-.549h1.435v.661c0,.691.3.939.786.939s.788-.248.788-.966c0-.8-.306-1.31-1.3-2.179-1.27-1.115-1.683-1.9-1.683-3.006a2.112,2.112,0,0,1,2.262-2.4c1.476,0,2.207.883,2.207,2.429v.4h-1.435v-.5c0-.688-.276-.95-.758-.95s-.758.262-.758.923c0,.7.318,1.215,1.307,2.084,1.27,1.117,1.671,1.889,1.671,3.09a2.143,2.143,0,0,1-2.29,2.455C417.758,271.151,417.014,270.268,417.014,268.722Z" transform="translate(-366.938 -259.068)" fill="#fff"/>
    </g>
  </g>
  <g id="Group_407" data-name="Group 407" transform="translate(36.882 34.5)">
    <g id="Group_406" data-name="Group 406" transform="translate(0 0)">
      <path id="Path_542" data-name="Path 542" d="M395.349,267.311h4.138v1.381h-2.622v2.55h2.084v1.379h-2.084v2.967h2.622v1.379h-4.138Z" transform="translate(-395.349 -267.172)" fill="#fff"/>
      <path id="Path_543" data-name="Path 543" d="M397.508,267.311h4.015v1.381h-2.5v2.689h1.959v1.377h-1.959v4.209h-1.516Z" transform="translate(-392.504 -267.172)" fill="#fff"/>
      <path id="Path_544" data-name="Path 544" d="M399.554,267.311h1.516v9.656h-1.516Z" transform="translate(-389.807 -267.172)" fill="#fff"/>
      <path id="Path_545" data-name="Path 545" d="M400.655,274.812v-5.185a2.239,2.239,0,1,1,4.469,0v1.02h-1.435V269.53c0-.635-.3-.9-.758-.9s-.758.262-.758.9v5.394c0,.633.3.883.758.883s.758-.25.758-.883v-1.477h1.435v1.365a2.238,2.238,0,1,1-4.469,0Z" transform="translate(-388.356 -267.251)" fill="#fff"/>
      <path id="Path_546" data-name="Path 546" d="M404.376,267.311h2.056L408,276.967h-1.516l-.276-1.917v.026h-1.722l-.276,1.891H402.8Zm1.655,6.455-.677-4.773h-.028l-.661,4.773Z" transform="translate(-385.527 -267.172)" fill="#fff"/>
      <path id="Path_547" data-name="Path 547" d="M405.229,275.616l2.814-6.924h-2.677v-1.381h4.3v1.354l-2.814,6.924h2.814v1.379h-4.441Z" transform="translate(-382.328 -267.172)" fill="#fff"/>
      <path id="Path_548" data-name="Path 548" d="M407.513,267.311h4.138v1.381h-2.622v2.55h2.084v1.379h-2.084v2.967h2.622v1.379h-4.138Z" transform="translate(-379.318 -267.172)" fill="#fff"/>
      <path id="Path_549" data-name="Path 549" d="M409.56,274.756V274.2h1.435v.661c0,.691.3.941.786.941s.786-.25.786-.966c0-.8-.3-1.312-1.3-2.181-1.27-1.115-1.683-1.9-1.683-3.006a2.111,2.111,0,0,1,2.262-2.4c1.477,0,2.207.883,2.207,2.429v.4h-1.435v-.5c0-.688-.276-.95-.758-.95s-.758.262-.758.923c0,.7.318,1.215,1.307,2.084,1.27,1.117,1.671,1.889,1.671,3.09a2.142,2.142,0,0,1-2.29,2.455C410.3,277.183,409.56,276.3,409.56,274.756Z" transform="translate(-376.62 -267.251)" fill="#fff"/>
    </g>
  </g>
</svg>
