<svg xmlns="http://www.w3.org/2000/svg" width="234.201" height="198.765" viewBox="0 0 234.201 198.765">
  <g id="Group_440" data-name="Group 440" transform="translate(-57.267 -7.077)">
    <path id="Path_693" data-name="Path 693" d="M221.491,54.42c8.623,16.622,11.068,39.5,5.471,58.28-5.679,22.175-24.342,44.607-46.057,53.722-24.457,11.982-59.193,8.995-81-6.631-30.294-20.763-42.692-56.54-33.528-91.857,5.548-20.977,22.257-42.161,42.7-51.9a87.579,87.579,0,0,1,37.713-8.956c31.257.044,61.1,18.405,74.7,47.343M148.45,11.142a58.865,58.865,0,0,1,.126,11.446,1.729,1.729,0,0,1,.372-1c.585-.328,1.078.17,1.324.585.044.574.29,1.57-.208,1.9.5.082.75-.29,1.2-.29a61.867,61.867,0,0,1,26.158,7.961v-.208c1.62-.788,3.693-1.827,5.351-.416,1.986-.75,2.364,1.7,3.978,1.992,1.953,1.154,4.142,3.31,4.4,5.6.367.744,1.532,1.28,1.7,2.063,1.324-2.812,3.978-4.8,6.259-7.244l1.406-.585C188,21.007,173.115,14.419,156.531,12.138c-2.648-.46-5.553-.208-8.081-1m-4.64.416c-16.665.662-31.465,6.347-44.607,15.79-2.528,1.745-4.765,4.4-7.337,5.887h.372a71.246,71.246,0,0,1,9.164,8.831l.208-.58c12.1-11.025,26.2-17.076,42.364-17.825l-.372-1-.126-9.947Zm14.214,6.254-5.969,2.571c-.492-.208-1.45-.449-1.784.208-.246.208,0,.5.088.706,2.194,2.823,6,1.242,8.743.706,1.986.826,3.9-.164,5.389-1.412V20.3c-1.406-1.992-4.06-2.282-6.467-2.489m-9.657,10.242.416.788c-.082,3.857.164,7.955-.208,11.566,1.57-.542,3.2.126,4.765.17,8.125,1.324,15.79,3.934,22.3,8.951a5.981,5.981,0,0,1-1.909-2.987.46.46,0,0,1,.5-.164c.082-1.286-1.291-1.948-1.5-3.108a.837.837,0,0,1,.914-.372,26.733,26.733,0,0,1,3.644,4.268c.919-.372,1.663.208,2.331.706,1.2.7.454,2.238,1.368,3.064.164,2.446,3.151,3.819,2.982,6.265.044.574.744.126,1,.416l2.484,3.064a1.234,1.234,0,0,0,.416,1.7c1.116.5,1.74-.908,2.861-.7,1.614.908-.246,1.986-.082,2.987.624.033,1.406-.5,1.9.115.208.919-.744,1.5-1.122,2.074,0,.914.75.706,1.412.914a1.149,1.149,0,0,1,1,1.5c2.079,2.156-.618,4.475.372,6.746.667,1.5-.164,2.949-1.072,4.071.038,1.822-1.625,2.944-2.282,4.475l-2.112.416c-1.127,1.116.947,2.478-.17,3.2l4.645.077-.5-.492a6.867,6.867,0,0,1,.613-5.893c.711-1.488.875-3.277,2.2-4.558.285-.082.826-.624,1.078,0a8.394,8.394,0,0,1-.7,4.268c1.319,1.9,1.154,4.393,1.28,6.757,4.1-.252,8.119-.334,12.146-.285l-.377-.788a59.443,59.443,0,0,0-5.389-21.475c-.864.038-1.488.739-2.484.5a.8.8,0,0,1-.5-.832c-1.652-1.57-2.686-3.644-4.558-5.055-2.112.208-3.064-2.243-4.968-2.489-1.7-.7-.542-3.436-2.987-2.7a3.973,3.973,0,0,1-2.61-2.768c0-2.156-.416-4.486-2.364-5.893-1.5-.542-2.112,1.455-3.611,1.122-.826-.416-.454-1.494-.7-2.194-.29-.624-1-1.083-.87-1.915,1.953-2.571-2.364-2.522-1.412-5.05-.246-1.822-2.112-2.528-3.069-3.983a67.251,67.251,0,0,0-20.1-5.761c-1.778-.246-3.441.126-4.973-.706m37.516.082c-.875.832-1.625-.739-2.407.208a1.7,1.7,0,0,0,.29,1.2c1.74.624,1.948,3.157,4.185,2.571.667-.739-.416-1.532-.208-2.478a2.477,2.477,0,0,0-1.86-1.5m-74.409,11.15c-2.572,1.789-4.935,4.109-7.583,5.685,3.058,1.942,5.6,5.181,8.376,7.753l.285.782a49.743,49.743,0,0,1,24.872-12.6c2.189-.208,4.393-.952,6.549-.5a82.09,82.09,0,0,1-.082-11.938,63.678,63.678,0,0,0-32.417,10.817m92.1-3.77c-2.276,3.069-5.384,5.925-8.245,8.869l-1.412.29c.87.208,1.122,1.242,1.7,1.866,3.02,1.614,3.813,4.853,6.467,6.675,1.488,3.108,4.935,5.515,5.055,9.082a65.765,65.765,0,0,1,6.3,25.742l-.334.492a1.76,1.76,0,0,0,1-.367l11.933-.208c-.782-1.165-.449-2.861-.657-4.273-1.581-18.449-9.454-34.239-21.808-48.169m-113.988.29C77.773,48.948,70.479,63.956,68.362,81.07c-.454,2.489-.164,5.055-.662,7.589a82.047,82.047,0,0,1,12.808,0l-.29-1.614a67.4,67.4,0,0,1,12.436-35.53c1.866-2.112,3.233-4.765,5.553-6.341-2.7-2.528-5.51-5.471-8.327-8.251Zm54.51,8.661-.706.416c-10.527.75-19.653,5.143-27.652,11.736,3.157,2.194,5.969,5.712,8.831,8.245.208-.285.416-.585.624-.908,3.934-2.823,7.993-5.389,12.639-6.549,2.079-.208,4.109-1.2,6.265-.706a54.445,54.445,0,0,1,0-12.234m4.35.088.416.914L148.784,56.7l1.072-.208c6.883.947,13.18,3.151,18.613,7.589l.29.864c1.866-2.615,4.683-4.853,6.883-7.331l2.074-1.2-1-.421a48.273,48.273,0,0,0-14.926-8.617c-4.186-1.488-8.781-2.112-13.344-2.818m-47.545,3.108-.088.782L96.342,54.13C89.005,64.2,85.525,75.851,84.491,88.533l11.353-.208,1.083.416c-.46-.29-.334-.782-.5-1.2.914-11.818,5.055-22.35,13.219-31.131a83.531,83.531,0,0,1-8.743-8.749M180.2,59.185l-.208.5c-3.808,3.972-8,8.076-11.648,12.146a2.933,2.933,0,0,0,1.122,1.2c.17-1,.7-1.866.793-2.905.99-1.362,2.478-.5,3.77-.208,1.986-.454,3.852.46,5.882.416,1.494.75,1.619,2.654,2.987,3.4a1.171,1.171,0,0,1-.416,1.57c.416,3.113,1.9-.826,3.485-.082.657.252,1.488.17,1.986.875.252,1.28,1.827,1.034,1.909,2.271-.126.624-.793.793-1.209,1.122.383,1.242-1.28,2.035-.7,3.365,2.407.449,2.489-2.325,3.606-3.567a22.052,22.052,0,0,0-2.32-6.259c-1.368-.3-2.2-1.9-3.562-2.2-2.654-1.04.41-2.692.082-4.268-1.406-2.654-3.655-5.017-5.559-7.381m-67.439.416a48.719,48.719,0,0,0-11.15,22.963c-.46,1.992-.208,4.311-1,6.177,1.455-.667,3.567-.416,5.187-.208-.957-.492-.17-1.7-.706-2.364-.126-1.034-.285-2.32.706-2.987-.126-1.7,1.7-2.571,1.866-4.1.454-1.734,2.446-.58,3.4-1.488.624-.334.082-.914.082-1.362.826-1.127,2.117-1.083,3.108-1.707a8.976,8.976,0,0,1,2.779-2.905c2.489.093,2.528-3.392,4.891-3.474a98.073,98.073,0,0,1-9.159-8.541m35.815,1.368c.782,2.364.082,5.849.574,8.579l2.987,1c.875-1.455,2.779-1.74,3.611-3.108.531-.46,1.154,0,1.57.5a8.215,8.215,0,0,1-.5,3.316c-1.116,2.238-3.77,2.522-5.258,4.147.947.531,1.488-.46,2.271-.667a4.98,4.98,0,0,1,2.779,1.866c.75.334,1.455-.126,2.112-.367.46-3.447,4.771-2.949,6.057-6.183l-.788.29c-.334-.454-1.16-.246-1.116-1a8.542,8.542,0,0,1,2.489-1.992,42.379,42.379,0,0,0-11.818-5.384,39.02,39.02,0,0,1-4.973-1M126.27,69.63h.914c1,1,2.615.788,3.365,2.112.367.75-.711.667-.667,1.291.208.164.5.208.667.5.782.29.613-.46.908-.793,1.034-1.029,1.2,1,2.194,1a1.532,1.532,0,0,1,2.194.285c.667-.574,2.074-.044,2.281-1.116,1.291-1.362.585-3.485,2.489-4.35.662.372-.044.99.208,1.57,1.28.542,2.736-1.072,3.775.208-.957-2.7-.706-6.057-.624-9.039-6.68.87-12.814,3.157-17.7,8.333m20.107,6.888c-.662-.75-2.112-.29-2.982,0,.821.826.5,2.314,1,3.354-1.247,2.068-3.321,2.528-5.269,3.1-.536.667-.41,2.123-1.7,2-.416.908-1.827,1.45-1.286,2.779-.667,1.406-.334,3.228-.7,4.765-2.457,1.532-1.745-2.035-2.987-2.779l-.416.7c-.5.126-.832-.159-1.165-.492-.367-.126-.99-.246-1.324.077-.542.914-1.362,1.663-1.154,2.905-.252.75-1.5.5-1.329,1.286a23.3,23.3,0,0,0,4.18-.58c.957.252,1.74-.46,2.7-.5a.9.9,0,0,1,.585,1h.328a1.675,1.675,0,0,0,.662-1.986c.082-.875,1.04-.875,1.619-1.122.542.246.208.788.29,1.2,1.866.7-.454,2.074-.706,3.064-.5.788,0,2.571-1.581,2.32a.57.57,0,0,1-.4-.7h-.208a2.133,2.133,0,0,0,1.116,1.866c1.16-.957,1.2-2.571,2.861-2.779.87-.914-.378-2.32.914-3.069,2.15-.044,4.475-.952,6.172.788-.126.75-.416,1.083.208,1.7a8.293,8.293,0,0,1-1.488,2.779,1.43,1.43,0,0,1-.416,1.576c-.585,2.528-3.485,1.33-5.181,2.194a13.071,13.071,0,0,0,9.159,2.489c1.778-.082,1-2.282,1.9-3.272.585-2.905,3.239-.914,4.853-1.7a11.6,11.6,0,0,0,1.412-3.863,2.737,2.737,0,0,1-1.122-3.1c-.706-.957-.624-2.7-2.156-2.861a.813.813,0,0,1,.164-1c-.038-.908.875-1.209,1.116-1.909-.947-.624-.7-1.986-.618-2.779-1.62.46-1.784-1.652-2.982-2.112-.3-.947-1.324-1.122-2.156-1.28-1.992.952-2.325-1.5-3.819-2.079-.159-.449-.492-1.116,0-1.488.75-.624,1.745-.082,2.61-.126ZM110.354,86.749c-3.354,1.083.542,3.606-.29,5.685-.449,1.2-1.7.082-2.571.574l-.334,2.2c-.492,1.286-2.112.328-2.856,1.2-.536.832.044,1.7.5,2.364-1.165,2.654,2.6,3.485,2.561,5.882,1.165,1.5-.164,3.649,1.5,4.973.372,2.7-.378,6.341,1.986,8.453l.416,2.572c.492,1.789-2.112,1.33-1.778,2.905.492-.252.618.416.657.58v-.082A110.226,110.226,0,0,1,120.8,113.192l-1.581-1.57a41.59,41.59,0,0,1-6.379-14.22l-1.209-.618c-.033,1.324-.657,2.364-.575,3.688l-.416.5c-.87-.038-1.406-.75-2.156-1.2-.164-.46-.624-1.2.088-1.576a1.356,1.356,0,0,1,1,.3c.367-.46.2-1.116.41-1.7.126-1-.744-1.9-.126-2.779.788-.082,1.373.875,1.7,1.406.793.252,1.417-.4,2.079-.706,0-.7.99-1.652-.082-2.063.574-1.619.164-3.321-.082-4.891-.46-1.373-1.992-1.122-3.113-1m77.6,1.417c-.334.159-.788.033-1.2.077a2.9,2.9,0,0,1,1.2-.077m-2.572,4.06,1.286,1.28c1.286.875.416,2.736,1.784,3.485,1.619.826,2.2,2.7,2.9,4.1a4.657,4.657,0,0,0,.383-1.2c.569-2.282.492-4.853,1.2-7.091-2.489.126-5.351.372-7.55-.574m28.358.574-.706-.492.416,1.116A66.819,66.819,0,0,1,200.3,130.24c-1.532,1.822-2.976,4.06-4.886,5.34a86.885,86.885,0,0,1,9.246,9.077l.334-.624c12.677-14.461,19.888-31.208,20.681-50.609l.5-.99-.624.285Zm-16.627-.285c.252,2.522-.41,4.968-.58,7.457l1.373,1.494a1.542,1.542,0,0,1-.29,1.909,1.643,1.643,0,0,1-1.915-.126c-1.729,5.559-3.77,10.981-7.249,15.834-1.368,1.74-2.692,4.142-4.475,5.055l3.77,3.321c.208-.208.088-.542.126-.832,0-.5.252-1.072.875-1,1.822-.044,1.86,1.909,2.894,2.9-.208,1.576,1.165,2.823.706,4.268,10.45-11.019,15.67-24.533,16.622-39.5l.585-.657c-3.737.367-7.671.126-11.522.159Zm-96.7.126.613.99c.088,2.736,1.165,5.351.585,8.119.454-.782.58-1.86,1.57-2.353.126-.75-.99-.957-.864-1.707.782-1.532.033-4.016,2.063-4.683-1.444.252-2.73.542-3.967-.367M80.426,92.8l-1.122.416-11.522-.082a84.7,84.7,0,0,0,10.155,36.4c2.949,5.466,7.26,10.4,11.03,15.5l8.251-8.541.99-.416a24.914,24.914,0,0,1-3.852-3.983,5.669,5.669,0,0,1-3.48-2.648c-.416-.454-.049-1.286-.5-1.62l-.5.624c-1.45.706-1.992-.782-2.987-1.406-1.286-.706-.667-3.157-2.4-2.7-.662-.038-.87-.788-1.286-1.2-1.614.164-2.03-1.614-2.905-2.489-.164.378,0,.875-.5,1.127-1.658.372-2.238-1.658-3.354-2.489-.29.126-.5.454-.914.372a4.854,4.854,0,0,1-1.7-3.485c-1.373-1.532-.75-3.978-.5-5.843.246-.5.947-.788.821-1.412.383-.864,1.291-.947,2.161-.99a2.152,2.152,0,0,1,.826.782c.542-.328,1.745.049,1.291-1.154a5.523,5.523,0,0,1,2.692-1A17.092,17.092,0,0,0,83,109.132l-.58-.908a65.113,65.113,0,0,1-1.992-12.606c.044-.246-.542-.372-.208-.613l.082.115a13.189,13.189,0,0,1,.126-2.32m16.206,0-.914.416c-3.852-.082-7.873.252-11.522-.29l.5.706.914,7.627c.378,2.949,1.658,5.761,1.576,8.661.46-.618.164-1.86,1.28-1.986-.449-.914.875-1.7.126-2.489.378-1.986.624-4.016,2.364-5.471,2.112-.082,2.287-2.856,4.4-2.982,1.078-.038,1.74,1.406,2.2,1.9-1.335-1.619-1.247-4.268-.919-6.095m21.311,5.1c1.154,2.156,1.778,4.6,2.987,6.757.739,1.9,2.4,3.4,3.146,5.263.788-1.488,2.364-2.692,3.485-4.06a2.165,2.165,0,0,0-.378-1.619c-.372-.864-.038-2.112-.706-2.856-1.072.367.372,1.45-.082,2.074a.655.655,0,0,1-.99-.5,2.765,2.765,0,0,1-2-1.866c.793-.5-.2-.706-.41-1.122-.41-.208-.454-.159-.788.208a1.077,1.077,0,0,1-.624-.082c0-2.364-2.654-.952-3.644-2.2m13.011,3.277a5.967,5.967,0,0,1-1.7,2.7l.126.082c1-.706,1.7-2,2.987-2.079Zm32.751,3.4a3,3,0,0,0,.662,1.986c1.625-.241.908,2,2.407,1.789.832-.252.038-.957.29-1.488-.252-1.247-1.455-1.373-2.282-2.123-.082-.241.088-.449.208-.657-.624-.334-.914.033-1.286.492m23.461.082c-1.2-.082-2.654.624-3.688-.208-.372-.334-.624.164-.58.5-.416.624-.832,1.406-1.784,1.122-.744-.334-.744-1.122-1-1.7a4.366,4.366,0,0,1-.208,1.286,14.3,14.3,0,0,0-1.778,2.779c-.875.952-2.281.618-3.19,1.406-.175,1.992-2.364,1.576-3.611,2.2-.082.246.208.29.334.5a1.6,1.6,0,0,0,1.778-.416c1.74.46,1.373-1.74,2.364-2.489.875-.12,1.707-.864,2.615-.29a5.878,5.878,0,0,1,1,4.186c-1,1-.5,2.621-1.2,3.775.164,1.368-1.494,1.992-1.286,3.354a2.919,2.919,0,0,1-2.276.711A38.946,38.946,0,0,0,164.284,119a.723.723,0,0,0-.5.788c1.488.782,3.321.832,4.891,1.488,1.406.378,2.364,2.117,4.142,1.581,1.5-.832,3.983.492,4.979-1.078-.17-1.537,1.16-2.659,1.827-3.983l.492-.12c.832.864.788,2.15,1.16,3.1,1.16-1.242,2.074-2.6,3.108-3.9a37.061,37.061,0,0,0,6.057-12.8,11.939,11.939,0,0,0-3.277.574m-52.223,0c-1.789,2.905-5.187,5.559-7.671,8.251a31.625,31.625,0,0,0,14.915,6.883c.3-1.122-.159-2.528.416-3.485.416-.908,1.537-.87,2.364-.7a.707.707,0,0,0,.5-1.083c-1.2-.246-.662-1.57-1.072-2.32.033-.416.744-.334.574-.864-.826-.667.416-1.417-.29-2.123.29-.208.5-.657.914-.657-2.61,1.362-5.433-.29-7.753-1.33-1.072-.618-2.653-1.242-2.894-2.571m24.079,7.255c-.126.334-.585.914,0,1.122,1-1.04,3.108-1,3.19-2.489-1.455-.208-2.194.585-3.19,1.368m4.683,3.113c-1.286,0-1.948,1-2.905,1.778-1.155.667-1.74-1.242-2.686-.782.038.2.246.285.4.367a.935.935,0,0,1,0,1.2c-1.406,1.286-2.068-.618-3.392-.5v.5c.038.3-.082.744-.5.585-.826-1.373-2.528-.875-3.365-2.079-.531-.285-1.029.082-1.406.416-.29.624-1.614-.082-1.28,1-1.04.378-1.165,1.494-1.9,2.156-1.291-.208-1.871,1.242-3.069,1.2.126.252,0,.667.372.711a4.278,4.278,0,0,0,2.4.29c1.242-1.992,3.316-.334,5.061-1.083,1.072.208.334,1.373,1.116,1.789,1.7-.542,2.987,1.45,4.35.208-.082-1.953,2.117-1.789,3.321-2.282,1.866-1.122,3.978-2.61,3.77-5.1ZM123.7,116.179a60.675,60.675,0,0,1-8.245,8.459c1.291.088,1.992,1.494,3.069,2.117,6.215,5.181,13.968,7.671,21.185,9.449l-2-.914c-1.488-1.7-3.6-3.688-3.688-6.051,1.494-.5,1.324-2.156,1.822-3.277a8.344,8.344,0,0,1,4.355-2.4c-4.186,1.745-7.829-1.368-11.315-2.987-1.784-1.324-4.1-2.4-5.187-4.393m57.579,11.566-.285-.782a6.862,6.862,0,0,1-1.866,2.358c.038.662-.208,1.658.574,2.117,1.663.542,3.819,1.614,4.191,3.562-.662,1.827-4.142,3.485-2,5.471.711,1-.99,1.368-.695,2.2l.58-.782a59.091,59.091,0,0,0,7.381-6.183h.285c-.492-.164-1.116.334-1.7.082-1.154-.536-1.362-1.57-1.362-2.779Zm-66.656,1.576-.164-.29.164.5Zm1.329,1.784a1.852,1.852,0,0,1-1-1.28Zm.285.334c.252.99,1.581,1.614,1.209,2.861-.7,1.116-2.156,1.16-3.321,1.116-2.364-.372-4.1,1.412-6.341,1.663-2.03.618-2.736-1.871-4.6-1.663,11.528,10.073,24.7,16.375,40.126,17.2l1.16.793L143.975,152V141.057l-1,.416c-10.078-.5-18.9-4.191-26.744-10.034m76.608,7.753-.208-1c-1.16,2.276-3.726,3.726-5.679,5.471-2.7,2.7-7.08,3.272-8.453,7.173-1.45,1.324-1.948,3.4-3.978,4.142-.75,1.992-2.861,1.866-4.06,3.316-3.485,3.113-5.728-1.992-8.88-2.615l-6.336,1.122c-2.2,0-4.4.793-6.467.088a97.417,97.417,0,0,1,0,13.011l.782-.492c19.981-.87,37.232-8.459,52.026-21.891Zm-92.026-.126-.12.492-8.541,8.584c12.934,11.194,27.526,18.405,44.191,20.687,2.654.454,5.679.208,8.251.99l-.624-.99V157.6l.416-.624-1.291.334c-16.162-1.127-30.464-6.845-42.282-18.241m47.343,2.9.624.914c0,3.4.416,6.877,0,10.242,3.064-1.04,6.631-.875,9.941-1.417a3.44,3.44,0,0,1-1.822-1.072c-1.942-.126-2.861-2.156-3.48-3.693-.29-1.116.46-2.03.908-2.987-.821-1.7-3.392-.449-4.891-1.072-.416-.334-.7-.832-1.28-.914" transform="translate(27.504 0)" fill="#009dda"/>
    <path id="Path_694" data-name="Path 694" d="M107.34,17.094c6.1,5.433,8.831,12.48,10.609,19.768l1,2.331A87.211,87.211,0,0,1,96.485,15.31L89.6,8.351c6.057,2.571,12.562,4.1,17.743,8.743" transform="translate(144.555 5.696)" fill="#009dda"/>
    <path id="Path_695" data-name="Path 695" d="M75.988,26.967c-4.06,5.017-9.241,8.333-13.848,12.644,2.489-5.143,2.572-11.271,6.1-16,5.017-8.743,14.3-11.812,22.6-15.051-6.1,5.351-10.324,12.108-14.844,18.405" transform="translate(21.788 6.64)" fill="#009dda"/>
    <path id="Path_696" data-name="Path 696" d="M119.373,28.137c1.948,8.7-.87,17.207.908,25.988l-.082.088c-4.727-9.328-14.794-13.722-21.715-21.185-4.027-4.437-5.767-9.826-6.757-15.549,3.978,9.575,14.668,11.7,20.807,19.735,2.074,1.866,2.73,4.437,4.06,6.549l.208-.208c-3.529-7.539-4.727-16.042-7.173-24.079a18.791,18.791,0,0,0-6.965-9.126c8.043,1.663,15.046,10.073,16.709,17.787" transform="translate(154.079 14.634)" fill="#009dda"/>
    <path id="Path_697" data-name="Path 697" d="M76.961,10.623C68.749,16.264,69.29,26.38,66.686,34.79,65.854,37.9,64.4,40.764,63.7,43.954l.208.164a28.462,28.462,0,0,1,6.757-9.952c5.838-5.384,14.466-8.743,17.322-16.7-.126,11.068-9.367,19.773-18.2,26-3.644,3.184-7.173,6.828-9.159,10.937-.208-2.779.416-5.6.208-8.584-.958-9.651-1.658-20.681,5.181-27.854a20.575,20.575,0,0,1,10.943-7.337" transform="translate(13.27 15.855)" fill="#009dda"/>
    <path id="Path_698" data-name="Path 698" d="M116.023,17.839c7.331,9.952,8.951,25.781,3.606,37.188a65.275,65.275,0,0,0-4.185,15.336c-.378-.914-.46-2.156-.793-3.2-2.894-11.15-13.47-19.111-17.82-29.638a55.043,55.043,0,0,1-3.2-10.74c4.645,8.584,16.085,13.022,19.193,22.47,1.291,2.407,1.2,5.384,1.986,7.955a.318.318,0,0,0,.339-.285,108.635,108.635,0,0,1,.372-29.556c-.082-5.22-.58-10.28-3.485-14.3,1.871,1.072,2.692,3.146,3.983,4.76" transform="translate(162.61 26.836)" fill="#009dda"/>
    <path id="Path_699" data-name="Path 699" d="M68.333,13.387c-6.3,9.575-1.072,21.639-1.362,32.538l-.832,11.15c.12.082.12.416.41.29a38.559,38.559,0,0,0,.711-3.852c1.488-8.995,9.285-15.374,16.124-21.6a17.364,17.364,0,0,0,3.48-5.181A46.133,46.133,0,0,1,83.05,39.879C77.743,50.236,67.917,58.738,66.139,70.594c-.875-11.364-8.623-19.861-7.84-31.925-.241-9.783,3.819-17.782,9.536-25.075.164-.082.29-.252.5-.208" transform="translate(4.363 28.181)" fill="#009dda"/>
    <path id="Path_700" data-name="Path 700" d="M116.806,57.756c-4.35,6.172-9.618,11.938-13.634,18.236.454-4.973,1.034-11.107-.919-15.834C98.9,50,95.955,39.684,95,28.528l.131-4.268c2.533,11.4,13.722,19.237,13.016,32,.246,3.113-.706,5.723-1.291,8.464l.208.208.5-.58c1.658-6.259,2.489-12.857,5.061-18.7,3.693-8.415,8.251-16.917,6.379-27.066,5.6,11.971,3.9,27.98-2.194,39.169" transform="translate(168.704 51.464)" fill="#009dda"/>
    <path id="Path_701" data-name="Path 701" d="M69.489,52.387c1.2,4.191,1.488,8.71,3.2,12.644.159.082.285-.082.41-.208-4.268-11.938,1.871-23,8.043-32.33a31.71,31.71,0,0,0,3.113-8.245c.657,5.384-.706,11.6-1.5,17.2-1.488,7.129-3.726,13.886-5.674,20.807-1.291,4.311-.957,9.2-.29,13.722l-.624-.492c-4.519-8.333-13.47-14.844-16.124-23.959-2.2-7.255-3.655-15.675-2.156-23.587.706-3.069,1.242-6.226,2.571-9.039-2.533,12.929,6.172,22.257,9.033,33.49" transform="translate(0.017 52.85)" fill="#009dda"/>
    <path id="Path_702" data-name="Path 702" d="M107.069,50.872a29.761,29.761,0,0,1-5.061,15.051h.5c3.989-5.225,7.091-10.778,11.736-15.752,7.211-6.965,14.548-14.094,15.506-23.756,2.44,16.129-6.587,30.262-19.981,39.382-5.509,3.611-11.107,6.959-16.419,11.063v-.487c8.13-13.519,4.147-32.051,9.159-46.894l1.866-4.968c-1.034,9.246,2.987,17.081,2.7,26.361" transform="translate(161.322 77.952)" fill="#009dda"/>
    <path id="Path_703" data-name="Path 703" d="M90.395,67.974c.875,3.069,2.654,5.8,3.819,8.754-12.354-8.42-29.189-16.419-34.66-31.843C57.239,39.578,56.982,32.991,57.48,26.9c1,13.722,15.757,20.977,22.6,32.33,1.614,2.325,3.031,4.9,5.176,6.845-.323-1.45-1.7-2.7-2.194-4.191a29.644,29.644,0,0,1-2.7-16.206c.668-7,3.611-13.509,2.495-20.889,6.007,12.972,4.185,29.14,7.539,43.19" transform="translate(0 79.172)" fill="#009dda"/>
    <path id="Path_704" data-name="Path 704" d="M107.362,60.094a41.1,41.1,0,0,1-8.453,10.149c1.072-.038,2.03-.99,2.987-1.614,8.907-8.869,20.517-11.358,30.13-18.569,3.857-3.069,7.381-7.091,9.082-11.44-1.827,14.718-16.457,28.522-30.261,32.915-7.129,1.9-14.761,2.528-21.683,4.891,11.73-10.073,11.068-25.66,18.9-37.516,2.489-3.359,4.558-6.888,7.463-10.073-4.766,9.575-2.7,21.973-8.169,31.257" transform="translate(142.623 97.294)" fill="#009dda"/>
    <path id="Path_705" data-name="Path 705" d="M95.756,46.576c4.142,10.193,5.723,21.715,15.292,29.43-10.357-3.4-22.5-2.446-31.624-8.831-9.991-6.139-18.9-16.54-20.769-27.98,6.883,15.588,24.128,16.873,35.694,26.36a28.325,28.325,0,0,0,6.757,4.6l.126-.126c-2.659-2.4-5.728-5.138-7.589-8.245C86.887,52.376,89.25,39.2,84.189,29.079c4.6,5.515,8.787,11.232,11.566,17.5" transform="translate(6.205 98.376)" fill="#009dda"/>
    <path id="Path_706" data-name="Path 706" d="M106.848,57.67c-2.528,1.663-5.723,1.953-8.333,3.2,3.726.082,7.129-1.242,10.822-1.614,13.678-2.156,29.342.038,38.917-11.61-3.567,8.125-12.474,14.92-20.594,17.782-13.974,5.263-28.024-1.2-41.417-3.354l-2.572-.334v-.082c6.385-1.455,12.606-3.359,17.7-7.961,7.5-7.211,14.176-14.636,22.5-20.309-6.172,7.911-6.839,19.193-17.032,24.287" transform="translate(118.063 117.621)" fill="#009dda"/>
    <path id="Path_707" data-name="Path 707" d="M108.357,52.984c5.307,4.64,11.7,6.8,18.411,8.169-1.619.574-3.737.416-5.477.864C109.227,65,95.8,69.857,82.987,65.5c-8.327-2.61-16.912-9.2-21.1-17.41,11.03,12.562,29.058,8.377,43.77,11.648,2.079.29,3.989,1.122,6.183.788-1.74-1.122-4.185-.99-6.089-1.986C94.22,54.477,92.524,42,86.264,33.588c8,5.3,14.712,12.474,22.093,19.4" transform="translate(20.67 118.537)" fill="#009dda"/>
    <path id="Path_708" data-name="Path 708" d="M182.533,47.8c8.951,3.316,20.566,2.4,28.226-3.064a33.5,33.5,0,0,1-14.915,10.445c-12.442,4.64-25.409-.208-35.115-7.589-3.939-2.489-7.419-6.09-12.518-5.761a17.457,17.457,0,0,0-5.181.5,95.963,95.963,0,0,1,26.24,18.192,39.954,39.954,0,0,1-4.765,4.311c-7.714-8.327-16.293-16.332-25.868-21.015-1.866.246-3.644,1.373-5.351,2.282-7.786,4.93-15.5,11.271-21.3,19.024l-4.979-4.1a91.15,91.15,0,0,1,26.36-18.783c-9.449-2.982-15.626,4.935-22.793,8.956-8.371,5.838-20.4,8.579-30.513,4.558-5.422-2.074-10.691-5.1-14.625-10.034,7.955,5.477,19.811,6.057,28.844,2.489,12.146-5.258,24.752-11.938,39.377-8.743,2.282.038,4.519,2.32,6.675.372,10.866-2.818,23.171-.875,32.538,4.1Z" transform="translate(36.529 140.712)" fill="#009dda"/>
  </g>
</svg>
