<svg xmlns="http://www.w3.org/2000/svg" width="49.359" height="49.361" viewBox="0 0 49.359 49.361">
  <g id="Group_14" data-name="Group 14" transform="translate(-272.143 -253.729)">
    <rect id="Rectangle_15" data-name="Rectangle 15" width="49.359" height="49.361" transform="translate(272.144 253.729)" fill="#0085cb"/>
    <path id="Path_74" data-name="Path 74" d="M278.574,257.883v9.948H276.9v-7.615h-.014l-1.173,1.217H275.7v-1.746l1.541-1.8Z" fill="#fff"/>
    <path id="Path_75" data-name="Path 75" d="M280.6,264.911l1.5-4.1h.014v4.1Zm3.068,2.922v-1.615h.675v-1.307h-.675V257.88h-1.643l-2.892,7.311v1.027h2.95v1.615Z" fill="#fff"/>
    <path id="Path_76" data-name="Path 76" d="M302.909,290.509a1.641,1.641,0,1,1,1.644-1.642,1.642,1.642,0,0,1-1.644,1.642m7.132-.765c-.622-.839-4.634-5.955-10.26-5.955-4.885,0-10.111,4.431-10.111,4.431s-1.963-4.018-5.978-4.4c-.025,0-.049-.006-.076-.006h-.024a.163.163,0,0,0-.153.159.448.448,0,0,0,.062.148,9.911,9.911,0,0,1,0,11.5l-.035.054a.17.17,0,0,0-.024.086.159.159,0,0,0,.147.157l.043,0a.208.208,0,0,0,.043,0c4.027-.375,6-4.406,6-4.406s5.226,4.432,10.111,4.432c5.626,0,9.638-5.117,10.26-5.954l.042-.057a.182.182,0,0,0,.015-.061.172.172,0,0,0-.015-.063c-.011-.017-.025-.035-.042-.057" fill="#fff"/>
    <path id="Path_77" data-name="Path 77" d="M283.565,274.173a.136.136,0,0,0-.031-.007.162.162,0,0,0-.161.164v1.12a.157.157,0,0,0,.047.115c2.715,2.36,5.286.149,5.882-.435a.146.146,0,0,1,.042-.047.173.173,0,0,1,.088-.028.155.155,0,0,1,.11.042l.008.007c3.068,2.928,6.284.556,6.953,0l.066-.059a.141.141,0,0,1,.062-.013.153.153,0,0,1,.064.013l.065.059c.67.556,3.886,2.928,6.952,0l.006-.007a.16.16,0,0,1,.109-.042.168.168,0,0,1,.09.028.184.184,0,0,1,.045.047c.6.584,3.162,2.795,5.881.435a.165.165,0,0,0,.047-.115v-1.12a.161.161,0,0,0-.159-.164.164.164,0,0,0-.036.007c-.024.014-.051.029-.081.043a4.943,4.943,0,0,1-5.777-.812c-.022-.02-.045-.041-.068-.065a.166.166,0,0,0-.068-.015.275.275,0,0,0-.05.008.191.191,0,0,0-.081.063c-.7.534-3.917,2.712-6.782.04l-.042-.041a.174.174,0,0,0-.115-.048.167.167,0,0,0-.113.048l-.044.041c-2.863,2.672-6.083.494-6.783-.04a.177.177,0,0,0-.08-.063.272.272,0,0,0-.051-.008.19.19,0,0,0-.068.015.6.6,0,0,1-.068.065,4.943,4.943,0,0,1-5.777.812l-.082-.043" fill="#fff"/>
    <path id="Path_78" data-name="Path 78" d="M289.3,279.2a.127.127,0,0,1,.042-.044.161.161,0,0,1,.09-.032.153.153,0,0,1,.109.046l.007.007c3.067,2.923,6.284.553,6.954,0l.065-.063a.155.155,0,0,1,.062-.01.168.168,0,0,1,.064.01l.065.063c.67.553,3.886,2.923,6.952,0l.007-.007a.145.145,0,0,1,.2-.014.148.148,0,0,1,.046.044c.593.584,3.162,2.8,5.881.435a.163.163,0,0,0,.048-.114V278.4a.16.16,0,0,0-.161-.161.167.167,0,0,0-.035.007l-.081.041a4.949,4.949,0,0,1-5.777-.81l-.068-.065a.132.132,0,0,0-.068-.016.109.109,0,0,0-.048.011.148.148,0,0,0-.083.061c-.7.534-3.917,2.712-6.782.04l-.042-.042a.163.163,0,0,0-.115-.046.16.16,0,0,0-.113.046l-.044.042c-2.863,2.672-6.083.494-6.783-.04a.142.142,0,0,0-.08-.061.137.137,0,0,0-.118.005c-.022.022-.045.044-.069.065a4.949,4.949,0,0,1-5.777.81c-.028-.015-.057-.028-.082-.041a.136.136,0,0,0-.031-.007.16.16,0,0,0-.161.161v1.123a.155.155,0,0,0,.047.114c2.715,2.361,5.287.149,5.882-.435" fill="#fff"/>
    <text id="VIDA_NA" data-name="VIDA NA" transform="translate(287.751 261.896)" fill="#fff" font-size="5.949" font-family="BebasNeue-Regular, Bebas Neue"><tspan x="0" y="0">VIDA NA</tspan></text>
    <text id="ÁGUA" transform="translate(287.747 267.818)" fill="#fff" font-size="5.949" font-family="BebasNeue-Regular, Bebas Neue"><tspan x="0" y="0">ÁGUA</tspan></text>
  </g>
</svg>
