<svg xmlns="http://www.w3.org/2000/svg" xmlns:xlink="http://www.w3.org/1999/xlink" width="280.167" height="240.333" viewBox="0 0 280.167 240.333">
  <defs>
    <clipPath id="clip-path">
      <rect id="Rectangle_134" data-name="Rectangle 134" width="280.167" height="240.333" fill="none"/>
    </clipPath>
  </defs>
  <g id="Group_439" data-name="Group 439" transform="translate(-1.161 -4.737)">
    <g id="Group_438" data-name="Group 438" transform="translate(1.161 4.737)" clip-path="url(#clip-path)">
      <path id="Path_635" data-name="Path 635" d="M51.694,84.828a21.276,21.276,0,0,1-9.3,6.2,39.175,39.175,0,0,1-13.371,2.276,26.515,26.515,0,0,1-13.55-3.271,22.513,22.513,0,0,1-9.045-9.713,34.321,34.321,0,0,1-3.343-15.04l-.03-4.034a36.556,36.556,0,0,1,2.89-15.427A22.248,22.248,0,0,1,14.53,35.805a24.938,24.938,0,0,1,13.216-3.539q10.574-.072,16.559,4.928t7.162,14.623l-11.917.077q-.849-5.086-3.659-7.436a11.526,11.526,0,0,0-7.711-2.318A10.851,10.851,0,0,0,18.707,46.9q-3.236,4.71-3.212,13.973l.024,3.8q.072,9.349,3.647,14.1t10.44,4.7q6.9-.045,9.814-3l-.072-10.243-11.137.072-.06-9.016,23.382-.161Z" transform="translate(8.215 131.765)" fill="#009dda"/>
      <path id="Path_636" data-name="Path 636" d="M60.2,79.4l-21.463.143-4,12.269-13.02.089L43.437,32.342l11.345-.077,22.643,59.26-13.02.1Zm-18.228-9.79,14.855-.1-7.621-22.19Z" transform="translate(100.8 131.766)" fill="#009dda"/>
      <path id="Path_637" data-name="Path 637" d="M44.206,81.8,70.2,81.624l.068,9.834-38.235.261L31.626,32.3l12.242-.082Z" transform="translate(149.906 131.551)" fill="#009dda"/>
      <path id="Path_638" data-name="Path 638" d="M71.856,76.6a6.257,6.257,0,0,0-2.479-5.3q-2.467-1.841-8.843-3.861a63.131,63.131,0,0,1-10.106-3.986Q40.266,58.044,40.209,48.787a14.319,14.319,0,0,1,2.652-8.61,17.786,17.786,0,0,1,7.752-5.953,29.394,29.394,0,0,1,11.393-2.2,26.79,26.79,0,0,1,11.357,2.229,18.138,18.138,0,0,1,7.782,6.459,17.038,17.038,0,0,1,2.818,9.528l-12.245.083A8,8,0,0,0,69.1,44q-2.583-2.243-7.234-2.211A11.248,11.248,0,0,0,54.9,43.728a5.977,5.977,0,0,0-2.455,5.017,5.724,5.724,0,0,0,2.95,4.833,33.068,33.068,0,0,0,8.616,3.617q10.467,3.075,15.272,7.687a15.545,15.545,0,0,1,4.856,11.56,14.3,14.3,0,0,1-5.756,12.138Q72.586,93,62.71,93.072A30.328,30.328,0,0,1,50.2,90.647a19.728,19.728,0,0,1-8.634-6.817,17.6,17.6,0,0,1-3.027-10.1l12.281-.083q.072,9.832,11.822,9.754a11.383,11.383,0,0,0,6.8-1.823A5.752,5.752,0,0,0,71.856,76.6" transform="translate(184.196 130.57)" fill="#009dda"/>
      <path id="Path_639" data-name="Path 639" d="M24.577,46.821a16.691,16.691,0,0,1,2.675-3.444l-8.777-9.623A29.813,29.813,0,0,0,12.9,41Z" transform="translate(57.069 139.144)" fill="#5fba46"/>
      <path id="Path_640" data-name="Path 640" d="M18.473,44.936a16.565,16.565,0,0,1,3.683,2.306l8.8-9.611a29.961,29.961,0,0,0-7.8-4.868Z" transform="translate(84.684 134.23)" fill="#d19f2a"/>
      <path id="Path_641" data-name="Path 641" d="M31.565,35.29,19.9,41.106a16.621,16.621,0,0,1,1.168,4.123l12.978-1.222a29.6,29.6,0,0,0-2.479-8.718" transform="translate(91.751 146.766)" fill="#c22033"/>
      <path id="Path_642" data-name="Path 642" d="M21.91,46.843l11.661-5.816a30.016,30.016,0,0,0-5.452-7.234l-8.8,9.605a17.023,17.023,0,0,1,2.586,3.444" transform="translate(88.904 139.342)" fill="#2d9a47"/>
      <path id="Path_643" data-name="Path 643" d="M25.314,38.991c0-.256.006-.524.018-.781L12.354,37.048c-.042.644-.066,1.287-.066,1.943a30.039,30.039,0,0,0,.882,7.222l12.537-3.6a16.873,16.873,0,0,1-.393-3.623" transform="translate(54.015 155.483)" fill="#48773c"/>
      <path id="Path_644" data-name="Path 644" d="M22.117,39.165a17.2,17.2,0,0,1-3.164,2.973l6.853,11.1a30.312,30.312,0,0,0,6.71-6.233Z" transform="translate(87.065 165.981)" fill="#fdb714"/>
      <path id="Path_645" data-name="Path 645" d="M20.447,38.9a16.447,16.447,0,0,1-.387,3.581L32.6,46.083a29.741,29.741,0,0,0,.87-7.186c0-.614-.018-1.222-.054-1.829L20.435,38.294c.006.2.012.4.012.6" transform="translate(92.554 155.577)" fill="#ef412a"/>
      <path id="Path_646" data-name="Path 646" d="M23.783,39.206,13.409,47.1a30.067,30.067,0,0,0,6.775,6.138L27.037,42.15a17.175,17.175,0,0,1-3.253-2.944" transform="translate(59.573 166.184)" fill="#f99d25"/>
      <path id="Path_647" data-name="Path 647" d="M25.319,45.239a16.441,16.441,0,0,1,1.245-4.177L14.9,35.252a29.424,29.424,0,0,0-2.574,8.825Z" transform="translate(54.218 146.577)" fill="#007dbb"/>
      <path id="Path_648" data-name="Path 648" d="M28.85,50.913,22,39.836a16.913,16.913,0,0,1-3.986,1.621L20.43,54.274a29.579,29.579,0,0,0,8.42-3.361" transform="translate(82.423 169.308)" fill="#8f1838"/>
      <path id="Path_649" data-name="Path 649" d="M21.488,38.28a16.946,16.946,0,0,1-1.817,3.754l10.4,7.848a29.622,29.622,0,0,0,3.939-8Z" transform="translate(90.625 161.592)" fill="#00add8"/>
      <path id="Path_650" data-name="Path 650" d="M23.37,40.171a17.171,17.171,0,0,1-2.431.173,17.763,17.763,0,0,1-1.96-.113L16.565,53.048a29.963,29.963,0,0,0,9.218-.072Z" transform="translate(75.223 170.969)" fill="#f36e24"/>
      <path id="Path_651" data-name="Path 651" d="M17.48,45.4a16.328,16.328,0,0,1,4.165.8l4.684-12.168a29.645,29.645,0,0,0-8.849-1.674Z" transform="translate(79.76 132.271)" fill="#ea1d2d"/>
      <path id="Path_652" data-name="Path 652" d="M25.808,41.426a16.775,16.775,0,0,1-4.135-1.561L14.814,50.954a29.94,29.94,0,0,0,8.581,3.277Z" transform="translate(66.54 169.452)" fill="#e01a83"/>
      <path id="Path_653" data-name="Path 653" d="M20.372,46.154a16.98,16.98,0,0,1,4.255-.757V32.365A29.8,29.8,0,0,0,15.659,34Z" transform="translate(70.73 132.261)" fill="#1b3668"/>
      <path id="Path_654" data-name="Path 654" d="M27.038,42.267a16.572,16.572,0,0,1-1.984-3.98L12.522,41.88a29.823,29.823,0,0,0,4.141,8.271Z" transform="translate(55.175 161.627)" fill="#cd8b2a"/>
      <path id="Path_655" data-name="Path 655" d="M22.857,47.089A17.362,17.362,0,0,1,26.468,44.9l-4.707-12.15a29.834,29.834,0,0,0-7.687,4.707Z" transform="translate(62.871 134.18)" fill="#00558a"/>
      <path id="Path_656" data-name="Path 656" d="M18.028,40.214a2.7,2.7,0,0,0-1.013-2.235,12.849,12.849,0,0,0-3.569-1.657,35.174,35.174,0,0,1-4.177-1.657Q4,32.074,4,27.551a6.379,6.379,0,0,1,1.311-3.98A8.471,8.471,0,0,1,9.03,20.889a14.389,14.389,0,0,1,5.4-.959,12.637,12.637,0,0,1,5.244,1.043,8.29,8.29,0,0,1,3.605,2.973,7.733,7.733,0,0,1,1.281,4.4H18.046a3.288,3.288,0,0,0-1.013-2.574,4,4,0,0,0-2.747-.912,4.461,4.461,0,0,0-2.771.775,2.276,2.276,0,0,0,.107,3.855,13.984,13.984,0,0,0,3.927,1.752,23.679,23.679,0,0,1,4.618,1.949q4.4,2.529,4.4,6.984a6.624,6.624,0,0,1-2.681,5.589A11.941,11.941,0,0,1,14.524,47.8a14.629,14.629,0,0,1-5.971-1.18,9.034,9.034,0,0,1-4.022-3.242,8.471,8.471,0,0,1-1.353-4.743H9.74a4.159,4.159,0,0,0,1.126,3.212,5.315,5.315,0,0,0,3.659,1.037,4.206,4.206,0,0,0,2.562-.7,2.309,2.309,0,0,0,.941-1.966" transform="translate(8.845 70.599)" fill="#009dda"/>
      <path id="Path_657" data-name="Path 657" d="M28.753,19.992V37.749a10.2,10.2,0,0,1-1.287,5.226,8.316,8.316,0,0,1-3.688,3.361,13.025,13.025,0,0,1-5.685,1.156,11.223,11.223,0,0,1-7.806-2.574,9.174,9.174,0,0,1-2.908-7.043V19.992h6.578V38.005q.116,4.46,4.135,4.457a4.011,4.011,0,0,0,3.075-1.12,5.209,5.209,0,0,0,1.043-3.629V19.992Z" transform="translate(29.672 70.907)" fill="#009dda"/>
      <path id="Path_658" data-name="Path 658" d="M26.414,40.214A2.683,2.683,0,0,0,25.4,37.979a12.764,12.764,0,0,0-3.569-1.657,34.626,34.626,0,0,1-4.171-1.657q-5.273-2.592-5.273-7.115a6.384,6.384,0,0,1,1.317-3.98,8.451,8.451,0,0,1,3.712-2.681,14.389,14.389,0,0,1,5.4-.959,12.617,12.617,0,0,1,5.244,1.043,8.29,8.29,0,0,1,3.605,2.973,7.738,7.738,0,0,1,1.287,4.4H26.432a3.288,3.288,0,0,0-1.013-2.574,3.99,3.99,0,0,0-2.747-.912,4.461,4.461,0,0,0-2.771.775,2.276,2.276,0,0,0,.107,3.855,14.067,14.067,0,0,0,3.927,1.752,23.909,23.909,0,0,1,4.624,1.949q4.389,2.529,4.4,6.984a6.629,6.629,0,0,1-2.687,5.589A11.934,11.934,0,0,1,22.916,47.8a14.629,14.629,0,0,1-5.971-1.18,9.052,9.052,0,0,1-4.028-3.242,8.466,8.466,0,0,1-1.347-4.743h6.555a4.159,4.159,0,0,0,1.126,3.212,5.322,5.322,0,0,0,3.665,1.037,4.2,4.2,0,0,0,2.556-.7,2.294,2.294,0,0,0,.941-1.966" transform="translate(50.459 70.599)" fill="#009dda"/>
      <path id="Path_659" data-name="Path 659" d="M38.227,25.04H30.086V47.117H23.547V25.04H15.555V19.992H38.227Z" transform="translate(70.215 70.909)" fill="#009dda"/>
      <path id="Path_660" data-name="Path 660" d="M36.671,42.051H27.709l-1.561,5.071h-6.99l9.951-27.13h6.149l10.023,27.13H38.256ZM29.276,37H35.11L32.184,27.6Z" transform="translate(88.081 70.907)" fill="#009dda"/>
      <rect id="Rectangle_131" data-name="Rectangle 131" width="6.52" height="27.124" transform="translate(136.163 90.902)" fill="#009dda"/>
      <path id="Path_661" data-name="Path 661" d="M48.587,47.117h-6.5L32.472,30.237V47.117H25.933V19.992h6.539l9.595,16.879V19.992h6.52Z" transform="translate(121.677 70.909)" fill="#009dda"/>
      <path id="Path_662" data-name="Path 662" d="M47.709,42.051H38.747L37.18,47.122H30.2l9.945-27.13h6.149l10.023,27.13H49.294ZM40.314,37h5.828L43.216,27.6Z" transform="translate(142.816 70.907)" fill="#009dda"/>
      <path id="Path_663" data-name="Path 663" d="M34.975,47.116V19.992h9.743q5.229,0,7.967,1.919a6.386,6.386,0,0,1,2.723,5.571,6.446,6.446,0,0,1-.965,3.593,5.613,5.613,0,0,1-2.854,2.2,5.7,5.7,0,0,1,3.259,2.092,6.056,6.056,0,0,1,1.138,3.724,7.185,7.185,0,0,1-2.521,5.989q-2.529,2-7.484,2.038ZM41.512,31.3H44.92a4.829,4.829,0,0,0,3.057-.787,2.777,2.777,0,0,0,.912-2.258,2.927,2.927,0,0,0-.989-2.479,5.294,5.294,0,0,0-3.182-.757H41.512Zm0,4.284v6.5H45.8a4.054,4.054,0,0,0,2.717-.81,2.817,2.817,0,0,0,.953-2.282q0-3.388-3.373-3.408Z" transform="translate(166.514 70.907)" fill="#009dda"/>
      <path id="Path_664" data-name="Path 664" d="M45.708,42.088H57.09v5.031H39.169V19.992h6.539Z" transform="translate(187.309 70.908)" fill="#009dda"/>
      <path id="Path_665" data-name="Path 665" d="M59.525,35.6H49.242v6.485H61.389v5.029H42.7V19.992H61.425V25.04H49.242v5.72H59.525Z" transform="translate(204.835 70.909)" fill="#009dda"/>
      <path id="Path_666" data-name="Path 666" d="M3.319,52.817V26.241h8.563a12.547,12.547,0,0,1,6.328,1.6A11.157,11.157,0,0,1,22.6,32.349a13.576,13.576,0,0,1,1.6,6.525V40.1a13.653,13.653,0,0,1-1.543,6.543,11.233,11.233,0,0,1-4.344,4.529,12.3,12.3,0,0,1-6.251,1.651Zm6.406-21.63v16.7h2.223a4.987,4.987,0,0,0,4.237-1.96A9.6,9.6,0,0,0,17.662,40.1v-1.15a9.5,9.5,0,0,0-1.478-5.8,5.055,5.055,0,0,0-4.3-1.954Z" transform="translate(9.54 101.894)" fill="#009dda"/>
      <path id="Path_667" data-name="Path 667" d="M23.066,41.536H13.659v6.351H24.892v4.931H7.251V26.241H24.927v4.944H13.659v5.606h9.407Z" transform="translate(29.036 101.894)" fill="#009dda"/>
      <path id="Path_668" data-name="Path 668" d="M22.868,45.588,28.16,26.241h7.157L26.372,52.816h-7.01L10.492,26.241h7.1Z" transform="translate(45.108 101.894)" fill="#009dda"/>
      <path id="Path_669" data-name="Path 669" d="M30.706,41.536H21.388v6.351H32.531v4.931H14.983V26.241H32.567v4.944H21.388v5.606h9.317Z" transform="translate(67.378 101.894)" fill="#009dda"/>
      <path id="Path_670" data-name="Path 670" d="M24.7,47.89H34.842v4.928H18.3V26.241H24.7Z" transform="translate(83.814 101.893)" fill="#009dda"/>
      <path id="Path_671" data-name="Path 671" d="M44.429,40.385a15.623,15.623,0,0,1-1.448,6.882,10.64,10.64,0,0,1-4.094,4.606,11.417,11.417,0,0,1-6.054,1.615,11.564,11.564,0,0,1-6.024-1.561,10.587,10.587,0,0,1-4.094-4.463A15.135,15.135,0,0,1,21.172,40.8v-1.5a15.741,15.741,0,0,1,1.43-6.888,10.612,10.612,0,0,1,4.112-4.612A11.461,11.461,0,0,1,32.8,26.179a11.362,11.362,0,0,1,6.024,1.609,10.869,10.869,0,0,1,4.117,4.576,15.38,15.38,0,0,1,1.49,6.8ZM37.91,39.27a11.163,11.163,0,0,0-1.323-6.012A4.251,4.251,0,0,0,32.8,31.2q-4.818,0-5.095,7.228l-.018,1.954a11.5,11.5,0,0,0,1.3,6.006,4.231,4.231,0,0,0,3.849,2.1,4.181,4.181,0,0,0,3.742-2.062,11.192,11.192,0,0,0,1.335-5.935Z" transform="translate(98.068 101.587)" fill="#009dda"/>
      <path id="Path_672" data-name="Path 672" d="M31.913,43.8v9.016H25.5V26.241H36.108a12.39,12.39,0,0,1,5.393,1.12,8.527,8.527,0,0,1,3.635,3.194,8.731,8.731,0,0,1,1.287,4.7,7.693,7.693,0,0,1-2.783,6.215A11.539,11.539,0,0,1,36,43.8Zm0-4.946h4.195a3.959,3.959,0,0,0,2.842-.936,3.458,3.458,0,0,0,.971-2.628,4.275,4.275,0,0,0-1-2.973,3.557,3.557,0,0,0-2.735-1.132H31.913Z" transform="translate(119.534 101.894)" fill="#009dda"/>
      <path id="Path_673" data-name="Path 673" d="M37.82,26.241l5.932,18.49,5.913-18.49H58.1V52.818H51.674V46.611l.62-12.7L45.869,52.818H41.635L35.192,33.89l.62,12.721v6.207H29.407V26.241Z" transform="translate(138.901 101.894)" fill="#009dda"/>
      <path id="Path_674" data-name="Path 674" d="M50.543,41.536H41.109v6.351h11.26v4.931H34.7V26.241H52.4v4.944h-11.3v5.606h9.434Z" transform="translate(165.153 101.894)" fill="#009dda"/>
      <path id="Path_675" data-name="Path 675" d="M60.224,52.818h-6.37L44.436,36.282V52.818H38.027V26.241h6.408l9.4,16.536V26.241h6.389Z" transform="translate(181.65 101.893)" fill="#009dda"/>
      <path id="Path_676" data-name="Path 676" d="M64.332,31.188H56.354v21.63H49.948V31.188H42.117V26.241H64.332Z" transform="translate(201.928 101.893)" fill="#009dda"/>
      <path id="Path_677" data-name="Path 677" d="M77.529,23.862a30.209,30.209,0,0,1,2.014,21.4c-2.092,8.14-8.944,16.381-16.917,19.723-8.98,4.4-21.738,3.307-29.746-2.431C21.755,54.931,17.2,41.791,20.569,28.825A30.952,30.952,0,0,1,36.247,9.763,32.188,32.188,0,0,1,50.095,6.474,30.615,30.615,0,0,1,77.529,23.862M50.709,7.97a21.841,21.841,0,0,1,.048,4.2.694.694,0,0,1,.131-.369c.215-.119.4.066.489.22.018.209.107.572-.077.7.185.03.274-.107.441-.107a22.657,22.657,0,0,1,9.605,2.926V15.46c.6-.292,1.359-.673,1.966-.155.727-.274.87.626,1.46.733a3.2,3.2,0,0,1,1.615,2.056c.137.274.566.471.626.757a11.61,11.61,0,0,1,2.294-2.658l.518-.22A28.426,28.426,0,0,0,53.676,8.333a23.891,23.891,0,0,1-2.967-.363M49,8.125a29.56,29.56,0,0,0-16.381,5.8c-.93.638-1.752,1.615-2.693,2.157h.137a26.6,26.6,0,0,1,3.361,3.248l.077-.215a24.174,24.174,0,0,1,15.558-6.549l-.137-.363-.048-3.653Zm5.22,2.294-2.193.941c-.179-.072-.53-.161-.655.077-.089.077,0,.185.036.262.8,1.037,2.2.453,3.206.256a1.921,1.921,0,0,0,1.978-.518V11.33a3.048,3.048,0,0,0-2.372-.912m-3.545,3.76.149.292c-.03,1.412.06,2.92-.072,4.243a4.792,4.792,0,0,1,1.746.066A17.827,17.827,0,0,1,60.7,22.068a2.189,2.189,0,0,1-.7-1.1.177.177,0,0,1,.185-.06c.03-.471-.477-.715-.548-1.138a.3.3,0,0,1,.334-.137A9.947,9.947,0,0,1,61.3,21.2c.334-.137.608.077.852.256.441.262.167.822.5,1.126.06.9,1.156,1.4,1.1,2.3.018.215.274.048.369.155l.912,1.126a.452.452,0,0,0,.149.62c.411.185.638-.334,1.049-.256.6.334-.089.727-.03,1.1.232.012.518-.185.7.042.077.34-.274.554-.411.763,0,.334.274.262.518.334a.422.422,0,0,1,.363.554c.763.787-.226,1.639.137,2.479a1.444,1.444,0,0,1-.393,1.49c.012.673-.6,1.084-.84,1.645l-.775.155c-.411.411.352.912-.06,1.174l1.7.03-.185-.185a2.531,2.531,0,0,1,.226-2.163A4.9,4.9,0,0,1,68,32.263c.107-.03.3-.226.393,0a2.993,2.993,0,0,1-.256,1.567,4.722,4.722,0,0,1,.471,2.485c1.508-.1,2.985-.125,4.463-.107l-.143-.292a21.827,21.827,0,0,0-1.978-7.883c-.316.012-.542.274-.912.185a.3.3,0,0,1-.185-.31,21.27,21.27,0,0,0-1.674-1.853c-.775.077-1.126-.822-1.823-.912-.626-.262-.2-1.263-1.1-1a1.451,1.451,0,0,1-.959-1.013,2.516,2.516,0,0,0-.864-2.169c-.554-.2-.781.536-1.329.411-.3-.149-.167-.542-.256-.8-.107-.226-.363-.393-.322-.7.715-.941-.864-.924-.518-1.853-.089-.667-.775-.93-1.126-1.46A24.74,24.74,0,0,0,52.5,14.435a5.065,5.065,0,0,1-1.823-.256m13.777.03c-.322.3-.6-.274-.888.077a.646.646,0,0,0,.107.441c.644.226.715,1.156,1.537.941.244-.268-.149-.56-.077-.912a.9.9,0,0,0-.679-.548M37.129,18.3c-.941.655-1.811,1.508-2.783,2.092a24.449,24.449,0,0,1,3.075,2.842l.107.292a18.249,18.249,0,0,1,9.129-4.63,8.052,8.052,0,0,1,2.407-.185,29.866,29.866,0,0,1-.03-4.38A23.394,23.394,0,0,0,37.129,18.3M70.951,16.92a35.565,35.565,0,0,1-3.027,3.259l-.518.1c.322.077.411.459.626.685,1.108.6,1.4,1.788,2.378,2.455.542,1.138,1.811,2.026,1.853,3.331a24.259,24.259,0,0,1,2.318,9.457l-.125.179a.658.658,0,0,0,.363-.131l4.386-.077c-.292-.429-.167-1.055-.244-1.567A30.07,30.07,0,0,0,70.951,16.92m-41.86.107A29.978,29.978,0,0,0,21.3,33.652c-.167.912-.06,1.853-.238,2.783a30.958,30.958,0,0,1,4.7,0l-.107-.59A24.725,24.725,0,0,1,30.217,22.8a12.6,12.6,0,0,1,2.044-2.33c-1-.93-2.026-2.008-3.063-3.027Zm20.021,3.182-.262.149A17.752,17.752,0,0,0,38.7,24.672,38.892,38.892,0,0,1,41.937,27.7c.077-.107.155-.215.232-.334a13.87,13.87,0,0,1,4.642-2.407,6.815,6.815,0,0,1,2.3-.256,19.533,19.533,0,0,1,0-4.493m1.6.03.149.334-.03,4.129.4-.077a13.352,13.352,0,0,1,6.835,2.783l.1.322c.691-.959,1.722-1.782,2.532-2.693l.763-.441-.369-.155a17.625,17.625,0,0,0-5.482-3.164,26.662,26.662,0,0,0-4.9-1.037M33.25,21.377l-.036.292-1.645,2.086a24.3,24.3,0,0,0-4.35,12.633l4.171-.072.4.149c-.173-.107-.125-.286-.185-.441a18.312,18.312,0,0,1,4.856-11.429,30.319,30.319,0,0,1-3.212-3.218m29.12,4.237-.077.185c-1.4,1.454-2.938,2.961-4.278,4.457a1.018,1.018,0,0,0,.411.441c.06-.369.256-.685.292-1.067.363-.5.912-.185,1.382-.077a10.638,10.638,0,0,1,2.163.155c.548.274.59.971,1.1,1.245a.428.428,0,0,1-.155.578c.155,1.144.7-.3,1.281-.03.238.1.548.066.727.322.1.471.673.381.7.834-.048.232-.292.292-.441.411.137.459-.471.751-.262,1.239.888.161.918-.858,1.329-1.311a8.406,8.406,0,0,0-.852-2.3c-.506-.107-.81-.7-1.311-.81-.971-.381.149-.983.03-1.567a18.483,18.483,0,0,0-2.038-2.705m-24.77.149a17.936,17.936,0,0,0-4.094,8.432,14.1,14.1,0,0,1-.363,2.27,3.849,3.849,0,0,1,1.9-.077c-.352-.179-.06-.62-.256-.864-.048-.381-.107-.852.256-1.1-.048-.626.626-.947.685-1.508.167-.638.9-.215,1.245-.548.232-.125.03-.334.03-.5.31-.417.781-.4,1.144-.626a3.35,3.35,0,0,1,1.019-1.067c.918.03.93-1.245,1.8-1.275a36.511,36.511,0,0,1-3.367-3.14m13.157.506c.286.864.03,2.145.209,3.146l1.1.369c.322-.536,1.019-.644,1.329-1.144.191-.167.423,0,.572.185a3.033,3.033,0,0,1-.179,1.216c-.411.822-1.388.93-1.931,1.525.346.2.542-.173.834-.244a1.811,1.811,0,0,1,1.019.685c.274.119.53-.048.775-.137.167-1.263,1.752-1.084,2.223-2.27l-.286.107c-.125-.167-.429-.089-.411-.363a3.111,3.111,0,0,1,.912-.733,15.428,15.428,0,0,0-4.338-1.978,14.955,14.955,0,0,1-1.823-.363m-8.193,3.176H42.9c.369.369.959.292,1.233.781.137.274-.256.244-.244.471.077.06.185.077.244.185.292.1.226-.173.34-.292.375-.381.441.363.8.363a.565.565,0,0,1,.8.107c.244-.209.763-.018.84-.411.471-.5.215-1.275.912-1.6.244.137-.018.363.077.578.471.2,1-.393,1.382.077a9.583,9.583,0,0,1-.226-3.319,10.378,10.378,0,0,0-6.5,3.057m7.383,2.532c-.244-.274-.775-.107-1.1,0,.3.3.185.852.363,1.233a2.9,2.9,0,0,1-1.931,1.138c-.2.244-.149.775-.626.733-.149.334-.667.53-.471,1.019a9.265,9.265,0,0,0-.256,1.752c-.9.56-.638-.751-1.1-1.025l-.155.262a.435.435,0,0,1-.423-.185c-.137-.048-.369-.089-.489.03-.2.334-.5.608-.423,1.067-.1.274-.554.185-.489.471a8.769,8.769,0,0,0,1.531-.209c.352.089.644-.173,1-.185a.335.335,0,0,1,.215.363h.119a.61.61,0,0,0,.244-.727c.03-.322.381-.322.59-.411.2.089.077.286.107.441.685.256-.167.763-.256,1.126-.185.286,0,.941-.578.852a.217.217,0,0,1-.155-.262H45.6a.769.769,0,0,0,.411.685c.423-.346.441-.941,1.049-1.019.316-.334-.137-.852.334-1.126.793-.018,1.645-.352,2.264.292-.042.274-.149.393.077.62a2.871,2.871,0,0,1-.548,1.019.526.526,0,0,1-.149.584c-.215.924-1.281.483-1.9.8a4.778,4.778,0,0,0,3.361.912c.655-.03.363-.834.7-1.2.22-1.067,1.192-.334,1.788-.62a4.312,4.312,0,0,0,.512-1.418,1.009,1.009,0,0,1-.411-1.138c-.256-.352-.226-1-.787-1.055-.1-.119-.018-.274.06-.363-.018-.334.316-.441.411-.7-.352-.226-.262-.727-.232-1.019-.59.167-.65-.608-1.09-.775-.113-.352-.489-.411-.793-.471-.733.352-.858-.548-1.4-.763-.066-.167-.185-.411,0-.548.274-.226.638-.03.953-.048ZM36.718,35.731c-1.233.4.2,1.329-.107,2.092-.167.441-.62.03-.941.209l-.125.81c-.179.471-.775.119-1.049.441-.2.3.018.62.185.864-.429.977.959,1.281.941,2.163.429.548-.06,1.341.548,1.823.137,1-.137,2.33.733,3.11l.149.941c.185.655-.775.489-.649,1.067.179-.1.226.155.238.215v-.03a39.881,39.881,0,0,1,3.915-3.992l-.578-.578a15.116,15.116,0,0,1-2.348-5.22l-.441-.226c-.012.483-.244.864-.215,1.353l-.149.185c-.322-.018-.518-.274-.793-.441-.06-.173-.226-.441.03-.584a.493.493,0,0,1,.369.113c.131-.173.072-.411.149-.626.048-.369-.274-.7-.048-1.025.292-.03.507.322.626.518.292.1.518-.149.763-.256,0-.262.363-.608-.03-.763a3.654,3.654,0,0,0-.03-1.794c-.167-.507-.733-.411-1.144-.369m28.495.524c-.119.06-.286.012-.441.03a1.008,1.008,0,0,1,.441-.03m-.941,1.49.471.471c.471.322.155,1,.655,1.275.6.31.8,1,1.067,1.508a1.716,1.716,0,0,0,.137-.441c.209-.834.185-1.782.441-2.6a6.5,6.5,0,0,1-2.771-.209m10.41.209-.256-.179.155.411A24.524,24.524,0,0,1,69.747,51.7a9.793,9.793,0,0,1-1.794,1.966A31.514,31.514,0,0,1,71.35,57l.125-.226a29.345,29.345,0,0,0,7.591-18.585l.185-.363-.232.1Zm-6.1-.1a16.176,16.176,0,0,1-.215,2.735l.507.548a.571.571,0,0,1-.107.7.6.6,0,0,1-.7-.048A19.929,19.929,0,0,1,65.4,47.607a6.6,6.6,0,0,1-1.645,1.859l1.382,1.216c.077-.077.036-.2.048-.3,0-.185.1-.393.322-.363.667-.018.685.7,1.067,1.061-.077.584.423,1.037.256,1.567a22.541,22.541,0,0,0,6.1-14.5l.215-.244c-1.371.137-2.813.048-4.231.06Zm-35.514.042.226.369a11.9,11.9,0,0,1,.215,2.979c.167-.286.215-.685.578-.864.048-.274-.363-.352-.316-.626.286-.566.012-1.478.757-1.722a1.71,1.71,0,0,1-1.46-.137m-7.335.06-.411.155-4.231-.03a31.129,31.129,0,0,0,3.724,13.365,50.548,50.548,0,0,0,4.052,5.691L31.891,54l.369-.155a8.922,8.922,0,0,1-1.418-1.46,2.133,2.133,0,0,1-1.281-.971c-.149-.167-.012-.471-.179-.6l-.185.226c-.53.262-.733-.286-1.1-.512-.471-.262-.244-1.162-.882-1-.244-.012-.322-.286-.471-.441-.6.06-.745-.59-1.067-.912-.06.137,0,.322-.185.411-.608.137-.822-.608-1.233-.912-.1.048-.179.167-.334.137a1.775,1.775,0,0,1-.62-1.281c-.506-.56-.28-1.46-.185-2.145.089-.185.346-.292.3-.518.137-.316.471-.346.793-.363a.828.828,0,0,1,.3.286c.2-.119.638.018.471-.423a2.1,2.1,0,0,1,.989-.369,6.672,6.672,0,0,0,.685.947l-.215-.334a23.908,23.908,0,0,1-.727-4.63c.012-.089-.2-.137-.077-.226l.03.042a5.1,5.1,0,0,1,.048-.852m5.947,0-.334.155A34.231,34.231,0,0,1,27.112,38l.185.262.334,2.795a21.832,21.832,0,0,1,.578,3.182c.167-.226.06-.679.471-.727-.167-.334.322-.626.048-.918a3.054,3.054,0,0,1,.87-2.008c.775-.03.834-1.049,1.609-1.1.4-.012.644.518.81.7a2.909,2.909,0,0,1-.34-2.24m7.83,1.877c.423.787.65,1.686,1.1,2.479.268.7.882,1.251,1.156,1.931a10.85,10.85,0,0,1,1.275-1.49.8.8,0,0,0-.137-.6c-.137-.316-.012-.775-.256-1.049-.393.137.137.536-.03.763a.239.239,0,0,1-.363-.185A.994.994,0,0,1,41.514,41c.292-.179-.077-.256-.155-.411-.149-.072-.167-.06-.286.077-.077,0-.173.018-.232-.03,0-.864-.971-.352-1.335-.8m4.779,1.2a2.249,2.249,0,0,1-.626,1l.048.03c.363-.262.62-.733,1.1-.763ZM56.31,42.28a1.086,1.086,0,0,0,.244.727c.6-.089.334.733.882.655.3-.089.012-.346.107-.542-.1-.459-.536-.506-.84-.781-.03-.089.036-.167.077-.244-.226-.119-.334.018-.471.185m8.616.03c-.441-.03-.977.226-1.359-.077-.131-.119-.226.06-.209.185-.155.226-.3.518-.655.411-.274-.125-.274-.411-.363-.626a1.73,1.73,0,0,1-.077.471,4.972,4.972,0,0,0-.655,1.025c-.322.346-.84.226-1.174.512-.06.733-.864.584-1.323.81-.03.089.077.107.119.179a.58.58,0,0,0,.655-.149c.638.167.507-.638.87-.918.322-.042.626-.316.959-.1a2.155,2.155,0,0,1,.363,1.537c-.363.363-.179.959-.441,1.382.06.506-.548.733-.471,1.233a1.094,1.094,0,0,1-.84.262,14.084,14.084,0,0,0-3.8-.87.264.264,0,0,0-.185.292c.548.286,1.222.3,1.794.542.518.143.87.781,1.525.584.548-.31,1.46.179,1.829-.4-.066-.566.423-.977.667-1.46l.185-.048c.3.322.286.793.423,1.144.423-.459.763-.959,1.144-1.43A13.8,13.8,0,0,0,66.13,42.1a4.767,4.767,0,0,0-1.2.215m-19.181,0a23.312,23.312,0,0,1-2.813,3.027,11.615,11.615,0,0,0,5.476,2.532c.107-.411-.06-.93.149-1.281.155-.334.566-.322.87-.256a.262.262,0,0,0,.185-.4c-.441-.089-.244-.578-.4-.852.018-.155.28-.125.215-.316-.3-.25.155-.524-.107-.781.107-.077.185-.244.334-.244-.953.5-1.99-.107-2.842-.483-.393-.232-.977-.459-1.067-.947m8.843,2.664c-.042.125-.215.334,0,.411.369-.381,1.144-.363,1.174-.912-.536-.077-.8.215-1.174.5m1.722,1.144c-.471,0-.715.363-1.067.655-.423.244-.638-.459-.989-.292.018.077.089.107.149.137a.335.335,0,0,1,0,.441c-.512.471-.757-.226-1.245-.185v.185c.012.107-.03.274-.179.215-.31-.5-.93-.322-1.239-.763-.2-.107-.375.03-.512.155-.107.226-.6-.03-.471.363-.381.137-.429.548-.7.793-.471-.077-.685.459-1.126.441.048.089,0,.244.137.262a1.553,1.553,0,0,0,.882.1c.459-.727,1.216-.119,1.859-.393.393.077.119.5.411.655.62-.2,1.1.53,1.6.077-.03-.721.775-.655,1.216-.84.685-.411,1.466-.959,1.388-1.871Zm-14.694.423a21.967,21.967,0,0,1-3.027,3.1c.477.036.733.548,1.126.781A19.025,19.025,0,0,0,47.5,53.894l-.733-.334c-.548-.626-1.323-1.359-1.353-2.223.548-.185.483-.793.667-1.2a3.057,3.057,0,0,1,1.6-.882c-1.537.638-2.872-.5-4.153-1.1a5.977,5.977,0,0,1-1.907-1.615m21.148,4.249-.107-.286a2.519,2.519,0,0,1-.685.864c.018.244-.072.608.215.775.608.2,1.4.6,1.537,1.311-.244.667-1.519,1.281-.733,2.008.262.369-.363.506-.256.81l.215-.292a21.139,21.139,0,0,0,2.711-2.27h.1c-.179-.06-.411.125-.626.036-.423-.2-.5-.578-.5-1.025Zm-24.479.578-.06-.107.06.185Zm.489.655a.673.673,0,0,1-.363-.471Zm.107.119c.089.369.578.6.441,1.055-.256.411-.793.423-1.222.411-.864-.137-1.508.512-2.324.608-.751.226-1.007-.685-1.692-.608A23.989,23.989,0,0,0,48.82,59.924l.429.286-.185-.512V55.675l-.363.155a17.619,17.619,0,0,1-9.82-3.688M67.012,54.99l-.077-.363c-.423.834-1.371,1.371-2.086,2.008-.989.989-2.6,1.2-3.1,2.634-.536.489-.715,1.251-1.46,1.519-.274.733-1.055.685-1.5,1.222-1.275,1.144-2.1-.733-3.259-.959l-2.324.411a7.419,7.419,0,0,1-2.378.03,35.529,35.529,0,0,1,0,4.779l.292-.185a29.61,29.61,0,0,0,19.1-8.038Zm-33.8-.048-.042.185-3.14,3.152a30.9,30.9,0,0,0,16.232,7.6,25.443,25.443,0,0,1,3.027.363l-.226-.363V61.747l.149-.226-.471.125a24.062,24.062,0,0,1-15.528-6.7M50.6,56.009l.226.34a30.447,30.447,0,0,1,0,3.76,23.965,23.965,0,0,1,3.653-.524,1.23,1.23,0,0,1-.667-.393c-.715-.048-1.049-.793-1.281-1.353-.107-.411.167-.745.334-1.1-.3-.626-1.245-.167-1.794-.393-.155-.125-.256-.31-.471-.34" transform="translate(89.691 3.875)" fill="#009dda"/>
      <path id="Path_678" data-name="Path 678" d="M34.823,10.116a13.467,13.467,0,0,1,3.9,7.258l.363.852A31.953,31.953,0,0,1,30.837,9.46L28.31,6.9c2.223.941,4.612,1.508,6.513,3.212" transform="translate(133.464 6.007)" fill="#009dda"/>
      <path id="Path_679" data-name="Path 679" d="M24.14,13.732c-1.49,1.847-3.4,3.063-5.089,4.648.918-1.889.947-4.141,2.24-5.875,1.841-3.212,5.25-4.338,8.295-5.53a37.77,37.77,0,0,0-5.446,6.757" transform="translate(87.551 6.359)" fill="#009dda"/>
      <path id="Path_680" data-name="Path 680" d="M39.176,14.109c.715,3.2-.316,6.316.334,9.546l-.03.03c-1.734-3.426-5.428-5.041-7.973-7.782a10.88,10.88,0,0,1-2.479-5.708c1.46,3.516,5.387,4.3,7.639,7.246a9.693,9.693,0,0,1,1.49,2.407l.077-.077C36.935,17,36.5,13.882,35.6,10.927a6.931,6.931,0,0,0-2.556-3.349c2.95.608,5.524,3.7,6.132,6.531" transform="translate(137.024 9.349)" fill="#009dda"/>
      <path id="Path_681" data-name="Path 681" d="M24.553,7.67c-3.015,2.074-2.818,5.786-3.778,8.873-.3,1.144-.834,2.193-1.1,3.367l.077.06a10.492,10.492,0,0,1,2.485-3.653c2.145-1.978,5.309-3.212,6.358-6.132-.042,4.058-3.438,7.258-6.68,9.546a13.508,13.508,0,0,0-3.367,4.016c-.072-1.025.155-2.056.077-3.152-.352-3.545-.608-7.6,1.9-10.231A7.57,7.57,0,0,1,24.553,7.67" transform="translate(84.367 9.805)" fill="#009dda"/>
      <path id="Path_682" data-name="Path 682" d="M37.894,10.25A14.265,14.265,0,0,1,39.217,23.9a23.838,23.838,0,0,0-1.537,5.631c-.137-.334-.167-.787-.292-1.168-1.061-4.1-4.946-7.019-6.543-10.887a20.083,20.083,0,0,1-1.174-3.945c1.7,3.152,5.905,4.785,7.049,8.253a15.619,15.619,0,0,1,.727,2.92.115.115,0,0,0,.125-.107,39.851,39.851,0,0,1,.137-10.851A8.947,8.947,0,0,0,36.428,8.5c.685.393.989,1.156,1.466,1.752" transform="translate(140.212 13.911)" fill="#009dda"/>
      <path id="Path_683" data-name="Path 683" d="M21.441,8.6c-2.312,3.516-.393,7.943-.5,11.947l-.3,4.094c.042.03.042.155.149.107.137-.453.167-.941.262-1.412.548-3.307,3.408-5.649,5.923-7.931A6.483,6.483,0,0,0,28.246,13.5a16.887,16.887,0,0,1-1.4,4.833c-1.949,3.8-5.554,6.924-6.209,11.274-.322-4.171-3.17-7.288-2.878-11.721-.089-3.593,1.4-6.531,3.5-9.206.06-.03.1-.1.179-.077" transform="translate(81.037 14.414)" fill="#009dda"/>
      <path id="Path_684" data-name="Path 684" d="M38.14,24.739c-1.6,2.264-3.534,4.386-5.011,6.7.167-1.823.381-4.082-.334-5.816a50.472,50.472,0,0,1-2.664-11.614l.042-1.567c.936,4.183,5.041,7.061,4.785,11.751a10.3,10.3,0,0,1-.477,3.1l.077.077.185-.209a45.914,45.914,0,0,1,1.859-6.87c1.353-3.087,3.027-6.209,2.342-9.939,2.056,4.4,1.43,10.279-.8,14.384" transform="translate(142.493 23.119)" fill="#009dda"/>
      <path id="Path_685" data-name="Path 685" d="M21.9,22.759A38.041,38.041,0,0,0,23.067,27.4c.06.03.107-.03.155-.077-1.567-4.386.685-8.444,2.95-11.87a11.547,11.547,0,0,0,1.144-3.033,25.466,25.466,0,0,1-.548,6.316c-.548,2.622-1.371,5.1-2.086,7.645a11.933,11.933,0,0,0-.107,5.035l-.226-.179c-1.662-3.063-4.946-5.452-5.923-8.8a18.656,18.656,0,0,1-.793-8.658,16.326,16.326,0,0,1,.947-3.319c-.93,4.749,2.264,8.175,3.319,12.3" transform="translate(79.411 23.64)" fill="#009dda"/>
      <path id="Path_686" data-name="Path 686" d="M34.615,22.03a10.984,10.984,0,0,1-1.859,5.53h.179a69.7,69.7,0,0,1,4.314-5.786c2.646-2.556,5.339-5.172,5.691-8.724.9,5.923-2.419,11.113-7.335,14.462-2.026,1.329-4.082,2.556-6.03,4.064V31.4c2.985-4.964,1.525-11.769,3.361-17.221l.685-1.823c-.381,3.4,1.1,6.269,1,9.677" transform="translate(139.731 33.027)" fill="#009dda"/>
      <path id="Path_687" data-name="Path 687" d="M29.573,28.307c.322,1.126.977,2.127,1.4,3.212-4.535-3.093-10.72-6.03-12.728-11.691a14.063,14.063,0,0,1-.757-6.608c.363,5.041,5.78,7.7,8.295,11.87a13.67,13.67,0,0,0,1.9,2.515c-.119-.53-.62-.989-.8-1.537a10.845,10.845,0,0,1-.989-5.953c.244-2.568,1.323-4.958.912-7.669,2.211,4.761,1.537,10.7,2.771,15.862" transform="translate(79.406 33.483)" fill="#009dda"/>
      <path id="Path_688" data-name="Path 688" d="M34.844,25.294a15,15,0,0,1-3.1,3.724c.4-.012.745-.363,1.1-.59,3.271-3.259,7.538-4.171,11.065-6.823a10.673,10.673,0,0,0,3.337-4.2c-.673,5.4-6.042,10.475-11.113,12.09-2.616.7-5.422.924-7.961,1.794,4.308-3.7,4.064-9.421,6.942-13.777a44.219,44.219,0,0,1,2.741-3.7c-1.752,3.516-1,8.068-3,11.483" transform="translate(132.74 40.257)" fill="#009dda"/>
      <path id="Path_689" data-name="Path 689" d="M31.5,20.317c1.519,3.748,2.1,7.979,5.613,10.809-3.8-1.251-8.265-.9-11.614-3.242-3.665-2.252-6.942-6.078-7.627-10.279,2.532,5.726,8.861,6.2,13.109,9.683a10.43,10.43,0,0,0,2.485,1.692l.042-.048a14.422,14.422,0,0,1-2.783-3.027c-2.485-3.456-1.615-8.3-3.474-12.013A27.864,27.864,0,0,1,31.5,20.317" transform="translate(81.724 40.663)" fill="#009dda"/>
      <path id="Path_690" data-name="Path 690" d="M34.821,24.264a23.971,23.971,0,0,1-3.063,1.174,32.146,32.146,0,0,0,3.974-.6c5.023-.787,10.779.018,14.3-4.261-1.311,2.985-4.582,5.482-7.562,6.531-5.136,1.931-10.3-.441-15.213-1.233l-.941-.125v-.03a13.748,13.748,0,0,0,6.5-2.92c2.753-2.646,5.2-5.375,8.265-7.46-2.27,2.908-2.515,7.049-6.257,8.92" transform="translate(123.556 47.859)" fill="#009dda"/>
      <path id="Path_691" data-name="Path 691" d="M36.033,22.54a14.17,14.17,0,0,0,6.757,3c-.59.215-1.371.155-2.008.316-4.433,1.1-9.361,2.884-14.069,1.281a13.651,13.651,0,0,1-7.746-6.394c4.052,4.612,10.672,3.075,16.077,4.278a7.614,7.614,0,0,0,2.27.292c-.644-.411-1.537-.369-2.24-.733-4.231-1.49-4.856-6.072-7.156-9.165,2.938,1.949,5.4,4.582,8.116,7.127" transform="translate(87.134 48.201)" fill="#009dda"/>
      <path id="Path_692" data-name="Path 692" d="M63.167,20.484A11.733,11.733,0,0,0,73.53,19.358a12.293,12.293,0,0,1-5.476,3.837c-4.57,1.7-9.331-.077-12.895-2.789-1.448-.912-2.723-2.235-4.6-2.115a6.546,6.546,0,0,0-1.9.185,35.236,35.236,0,0,1,9.635,6.68,14.8,14.8,0,0,1-1.746,1.585c-2.836-3.057-5.989-6-9.5-7.717a6.143,6.143,0,0,0-1.96.834,29.317,29.317,0,0,0-7.824,6.99L35.429,25.34a33.414,33.414,0,0,1,9.683-6.894c-3.474-1.1-5.738,1.811-8.372,3.289-3.075,2.145-7.49,3.146-11.208,1.674a12.256,12.256,0,0,1-5.369-3.688,11.908,11.908,0,0,0,10.595.918c4.457-1.937,9.087-4.386,14.456-3.212.84.012,1.662.852,2.455.137a17.142,17.142,0,0,1,11.947,1.508Z" transform="translate(93.065 56.495)" fill="#009dda"/>
      <rect id="Rectangle_132" data-name="Rectangle 132" width="91.024" height="1.771" transform="translate(13.004 78.91)" fill="#009dda"/>
      <rect id="Rectangle_133" data-name="Rectangle 133" width="91.024" height="1.771" transform="translate(175.235 78.91)" fill="#009dda"/>
    </g>
  </g>
</svg>
