<svg id="Group_427" data-name="Group 427" xmlns="http://www.w3.org/2000/svg" width="114.395" height="114.399" viewBox="0 0 114.395 114.399">
  <rect id="Rectangle_119" data-name="Rectangle 119" width="114.395" height="114.399" transform="translate(0 0)" fill="#8f0b34"/>
  <path id="Path_264" data-name="Path 264" d="M449.273,215.946c0,1.393-.512,2.383-1.905,2.383-1.361,0-1.873-.99-1.873-2.383V212.2c0-1.4.512-2.38,1.873-2.38,1.393,0,1.905.985,1.905,2.38Zm-3.641-12.758c0-1.4.477-2.214,1.736-2.214,1.291,0,1.769.816,1.769,2.214v1.562c0,1.4-.478,2.216-1.769,2.216-1.259,0-1.736-.818-1.736-2.216Zm7.519,12.347v-2.517c0-2.211-.781-3.808-2.587-4.627a4.062,4.062,0,0,0,2.248-4.015v-.95c0-3.609-1.873-5.547-5.445-5.547-3.537,0-5.375,1.938-5.375,5.547v.95a4.1,4.1,0,0,0,2.174,4.015c-1.8.818-2.55,2.415-2.55,4.627v2.517c0,3.5,1.667,5.957,5.751,5.957,4.117,0,5.783-2.452,5.783-5.957" transform="translate(-430.923 -188.528)" fill="#fff"/>
  <path id="Path_265" data-name="Path 265" d="M478.033,218.321l-11.627,11.061a1.928,1.928,0,0,0-.665,1.66v31a.666.666,0,0,0,.665.661h12.009a.662.662,0,0,0,.663-.661V218.6c0-.364-.287-1.031-1.045-.278" transform="translate(-399.13 -162.041)" fill="#fff"/>
  <path id="Path_266" data-name="Path 266" d="M463.582,224.54,451.953,235.6a1.927,1.927,0,0,0-.663,1.66V253.85a.666.666,0,0,0,.663.663h12.011a.664.664,0,0,0,.663-.663V224.818c0-.366-.29-1.036-1.045-.278" transform="translate(-418.175 -153.849)" fill="#fff"/>
  <path id="Path_267" data-name="Path 267" d="M504.591,212.535a.323.323,0,0,0-.1-.25.363.363,0,0,0-.216-.1l-.065,0-.093,0-8.905,2.007-.16.016a.371.371,0,0,0-.176.093.337.337,0,0,0,0,.478l.1.1,2.035,2.035L476.841,237.1l-9.316-9.316a.269.269,0,0,0-.382,0l-2.529,2.527v0L449.675,245.25a.274.274,0,0,0,0,.38l2.536,2.531a.264.264,0,0,0,.375,0l14.749-14.749,6.759,6.764.023.032,2.529,2.524a.267.267,0,0,0,.378,0l22.9-22.9,2.135,2.135a.334.334,0,0,0,.475,0,.342.342,0,0,0,.1-.22v-.028l1.959-9.089Z" transform="translate(-420.403 -169.668)" fill="#fff"/>
  <path id="Path_268" data-name="Path 268" d="M470.795,225.406l-5.625,5.67a.267.267,0,0,1-.362-.012l-5.1-5.194c-.932-.932-1.133-.178-1.133.188v26.716a.662.662,0,0,0,.661.663h12.011a.664.664,0,0,0,.663-.663V225.617c0-.366-.29-1.038-1.115-.211" transform="translate(-408.574 -152.772)" fill="#fff"/>
  <g id="Group_360" data-name="Group 360" transform="translate(28.305 8.3)">
    <g id="Group_359" data-name="Group 359" transform="translate(0)">
      <path id="Path_269" data-name="Path 269" d="M450.7,198.767h-1.481v-1.286h4.378v1.286h-1.481v7.726H450.7Z" transform="translate(-449.215 -197.354)" fill="#fff"/>
      <path id="Path_270" data-name="Path 270" d="M451.4,197.481h2.1c1.47,0,2.1.681,2.1,2.072v.554c0,.927-.294,1.518-.925,1.778v.026c.709.218.939.888.939,1.905V205.4a2.658,2.658,0,0,0,.155,1.094h-1.442a2.735,2.735,0,0,1-.13-1.108v-1.648c0-.837-.246-1.108-.888-1.108h-.489v3.864H451.4Zm1.931,3.862c.526,0,.851-.232.851-.953v-.7c0-.644-.22-.927-.723-.927h-.642v2.575Z" transform="translate(-446.338 -197.354)" fill="#fff"/>
      <path id="Path_271" data-name="Path 271" d="M454.945,197.481h1.917l1.467,9.012h-1.416l-.257-1.789v.026h-1.609l-.26,1.764h-1.312Zm1.544,6.024-.633-4.455h-.023l-.619,4.455Z" transform="translate(-443.601 -197.354)" fill="#fff"/>
      <path id="Path_272" data-name="Path 272" d="M455.864,197.481H458c1.469,0,2.1.681,2.1,2.072v.362c0,.925-.283,1.5-.913,1.764v.025c.758.257,1.055.925,1.055,1.88v.772a1.915,1.915,0,0,1-2.149,2.137h-2.227Zm1.968,3.669c.531,0,.851-.232.851-.953v-.5c0-.644-.218-.927-.721-.927h-.682v2.383Zm.26,4.056c.477,0,.732-.22.732-.89v-.783c0-.839-.269-1.1-.913-1.1h-.63v2.77Z" transform="translate(-440.452 -197.354)" fill="#fff"/>
      <path id="Path_273" data-name="Path 273" d="M459.414,197.481h1.919l1.465,9.012h-1.414l-.257-1.789v.026h-1.611l-.257,1.764h-1.312Zm1.544,6.024-.63-4.455H460.3l-.617,4.455Z" transform="translate(-437.707 -197.354)" fill="#fff"/>
      <path id="Path_274" data-name="Path 274" d="M460.334,197.481h1.419v7.726h2.329v1.286h-3.748Z" transform="translate(-434.561 -197.354)" fill="#fff"/>
      <path id="Path_275" data-name="Path 275" d="M462.245,197.481h1.419v3.669h1.518v-3.669H466.6v9.012h-1.416v-4.056h-1.518v4.056h-1.419Z" transform="translate(-432.043 -197.354)" fill="#fff"/>
      <path id="Path_276" data-name="Path 276" d="M464.534,204.428v-4.738a2.152,2.152,0,1,1,4.3,0v4.738a2.152,2.152,0,1,1-4.3,0Zm2.884.09V199.6c0-.644-.283-.888-.737-.888s-.732.243-.732.888v4.919c0,.642.283.888.732.888S467.417,205.161,467.417,204.519Z" transform="translate(-429.026 -197.426)" fill="#fff"/>
      <path id="Path_277" data-name="Path 277" d="M467.688,197.481h2.163c1.416,0,2.112.786,2.112,2.227v4.557c0,1.442-.7,2.228-2.112,2.228h-2.163Zm2.137,7.726c.45,0,.721-.232.721-.876v-4.687c0-.644-.271-.876-.721-.876H469.1v6.439Z" transform="translate(-424.869 -197.354)" fill="#fff"/>
      <path id="Path_278" data-name="Path 278" d="M469.943,197.481h1.416v9.012h-1.416Z" transform="translate(-421.897 -197.354)" fill="#fff"/>
      <path id="Path_279" data-name="Path 279" d="M470.965,204.428v-4.738c0-1.442.721-2.265,2.109-2.265s2.112.823,2.112,2.265v.772h-1.337V199.6c0-.644-.283-.888-.735-.888s-.733.243-.733.888v4.93c0,.644.283.876.733.876s.735-.232.735-.876v-1.764h-.707V201.48h2.044v2.948c0,1.442-.719,2.267-2.112,2.267S470.965,205.87,470.965,204.428Z" transform="translate(-420.55 -197.426)" fill="#fff"/>
      <path id="Path_280" data-name="Path 280" d="M473.181,197.481h1.778l1.377,5.394h.026v-5.394h1.261v9.012h-1.453l-1.7-6.578h-.025v6.578h-1.263Z" transform="translate(-417.63 -197.354)" fill="#fff"/>
      <path id="Path_281" data-name="Path 281" d="M475.508,204.428v-4.738a2.153,2.153,0,1,1,4.3,0v4.738a2.153,2.153,0,1,1-4.3,0Zm2.884.09V199.6c0-.644-.283-.888-.735-.888s-.732.243-.732.888v4.919c0,.642.283.888.732.888S478.391,205.161,478.391,204.519Z" transform="translate(-414.563 -197.426)" fill="#fff"/>
    </g>
  </g>
  <g id="Group_362" data-name="Group 362" transform="translate(28.795 20.659)">
    <g id="Group_361" data-name="Group 361">
      <path id="Path_282" data-name="Path 282" d="M449.426,202.814h3.862V204.1h-2.445v2.383h1.945v1.286h-1.945v2.77h2.445v1.284h-3.862Z" transform="translate(-449.426 -202.684)" fill="#fff"/>
      <path id="Path_283" data-name="Path 283" d="M452.291,209.814v-4.842a2.09,2.09,0,1,1,4.172,0v.953h-1.337v-1.041c0-.593-.283-.837-.709-.837s-.707.243-.707.837v5.032c0,.593.283.823.707.823s.709-.229.709-.823v-1.377h1.337v1.275a2.09,2.09,0,1,1-4.172,0Z" transform="translate(-445.65 -202.758)" fill="#fff"/>
      <path id="Path_284" data-name="Path 284" d="M454.458,202.814h2.1c1.467,0,2.1.681,2.1,2.072v.554c0,.927-.294,1.518-.927,1.776v.028c.709.218.941.888.941,1.9v1.585a2.687,2.687,0,0,0,.153,1.092h-1.442a2.764,2.764,0,0,1-.13-1.106V209.07c0-.837-.243-1.108-.885-1.108h-.489v3.862h-1.419Zm1.931,3.862c.529,0,.853-.232.853-.953v-.7c0-.644-.22-.927-.723-.927h-.642v2.575Z" transform="translate(-442.794 -202.684)" fill="#fff"/>
      <path id="Path_285" data-name="Path 285" d="M456.7,202.814h3.862V204.1h-2.445v2.383h1.945v1.286h-1.945v2.77h2.445v1.284H456.7Z" transform="translate(-439.843 -202.684)" fill="#fff"/>
      <path id="Path_286" data-name="Path 286" d="M458.607,209.763v-.515h1.34v.617c0,.644.283.874.732.874s.735-.229.735-.9c0-.749-.283-1.224-1.212-2.033-1.182-1.043-1.567-1.778-1.567-2.807a1.97,1.97,0,0,1,2.109-2.241c1.377,0,2.058.825,2.058,2.267v.373h-1.337v-.464c0-.644-.257-.888-.707-.888s-.709.243-.709.862c0,.656.3,1.131,1.221,1.945a3.475,3.475,0,0,1,1.56,2.883,2,2,0,0,1-2.137,2.29C459.3,212.027,458.607,211.2,458.607,209.763Z" transform="translate(-437.326 -202.758)" fill="#fff"/>
      <path id="Path_287" data-name="Path 287" d="M460.74,209.814v-4.842a2.089,2.089,0,1,1,4.17,0v.953h-1.337v-1.041c0-.593-.285-.837-.707-.837s-.709.243-.709.837v5.032c0,.593.283.823.709.823s.707-.229.707-.823v-1.377h1.337v1.275a2.089,2.089,0,1,1-4.17,0Z" transform="translate(-434.515 -202.758)" fill="#fff"/>
      <path id="Path_288" data-name="Path 288" d="M462.906,202.814h1.416v9.01h-1.416Z" transform="translate(-431.661 -202.684)" fill="#fff"/>
      <path id="Path_289" data-name="Path 289" d="M463.972,202.814h2.021l.9,6.448h.025l.9-6.448h2.021v9.01H468.5V205h-.026l-1.029,6.822h-1.184L465.235,205h-.028v6.822h-1.235Z" transform="translate(-430.256 -202.684)" fill="#fff"/>
      <path id="Path_290" data-name="Path 290" d="M466.96,202.814h3.862V204.1h-2.443v2.383h1.942v1.286h-1.942v2.77h2.443v1.284H466.96Z" transform="translate(-426.318 -202.684)" fill="#fff"/>
      <path id="Path_291" data-name="Path 291" d="M468.976,202.814h1.778l1.377,5.394h.025v-5.394h1.261v9.01h-1.453l-1.7-6.576h-.026v6.576h-1.263Z" transform="translate(-423.661 -202.684)" fill="#fff"/>
      <path id="Path_292" data-name="Path 292" d="M472.668,204.1h-1.481v-1.286h4.378V204.1h-1.481v7.723h-1.416Z" transform="translate(-420.747 -202.684)" fill="#fff"/>
      <path id="Path_293" data-name="Path 293" d="M473.326,209.763v-4.738a2.152,2.152,0,1,1,4.3,0v4.738a2.152,2.152,0,1,1-4.3,0Zm2.884.09v-4.919c0-.644-.283-.888-.735-.888s-.735.243-.735.888v4.919c0,.642.283.885.735.885S476.209,210.5,476.209,209.853Z" transform="translate(-417.928 -202.758)" fill="#fff"/>
    </g>
  </g>
  <g id="Group_364" data-name="Group 364" transform="translate(28.795 31.426)">
    <g id="Group_363" data-name="Group 363" transform="translate(0 0)">
      <path id="Path_294" data-name="Path 294" d="M449.426,208.3h3.862v1.286h-2.445v2.383h1.945v1.286h-1.945v2.77h2.445v1.286h-3.862Z" transform="translate(-449.426 -206.217)" fill="#fff"/>
      <path id="Path_295" data-name="Path 295" d="M451.4,215.3v-4.842a2.089,2.089,0,1,1,4.17,0v.955h-1.337v-1.043c0-.593-.283-.837-.707-.837s-.709.243-.709.837V215.4c0,.593.283.825.709.825s.707-.232.707-.825v-1.377h1.337V215.3a2.089,2.089,0,1,1-4.17,0Z" transform="translate(-446.82 -206.291)" fill="#fff"/>
      <path id="Path_296" data-name="Path 296" d="M453.526,215.252v-4.738a2.152,2.152,0,1,1,4.3,0v4.738a2.152,2.152,0,1,1-4.3,0Zm2.883.088v-4.916c0-.644-.283-.888-.737-.888s-.732.243-.732.888v4.916c0,.644.283.89.732.89S456.409,215.984,456.409,215.34Z" transform="translate(-444.023 -206.291)" fill="#fff"/>
      <path id="Path_297" data-name="Path 297" d="M455.791,208.3h1.778l1.379,5.394h.023V208.3h1.261v9.012h-1.453l-1.7-6.581h-.025v6.581h-1.263Z" transform="translate(-441.037 -206.217)" fill="#fff"/>
      <path id="Path_298" data-name="Path 298" d="M458.119,216.364v-4.738a2.152,2.152,0,1,1,4.3,0v4.738a2.152,2.152,0,1,1-4.3,0ZM460.4,207.4h1.546l-1.379,1.481h-1.069Zm.607,9.049v-4.916c0-.644-.283-.888-.735-.888s-.735.243-.735.888v4.916c0,.644.283.89.735.89S461,217.1,461,216.452Z" transform="translate(-437.969 -207.403)" fill="#fff"/>
      <path id="Path_299" data-name="Path 299" d="M460.384,208.3h2.021l.9,6.448h.028l.9-6.448h2.021v9.012h-1.34v-6.824h-.026l-1.029,6.824h-1.185l-1.029-6.824h-.028v6.824h-1.235Z" transform="translate(-434.984 -206.217)" fill="#fff"/>
      <path id="Path_300" data-name="Path 300" d="M463.372,208.3h1.419v9.012h-1.419Z" transform="translate(-431.046 -206.217)" fill="#fff"/>
      <path id="Path_301" data-name="Path 301" d="M464.4,215.3v-4.842a2.09,2.09,0,1,1,4.172,0v.955h-1.34v-1.043c0-.593-.285-.837-.707-.837s-.709.243-.709.837V215.4c0,.593.283.825.709.825s.707-.232.707-.825v-1.377h1.34V215.3a2.09,2.09,0,1,1-4.172,0Z" transform="translate(-429.692 -206.291)" fill="#fff"/>
      <path id="Path_302" data-name="Path 302" d="M466.522,215.252v-4.738a2.152,2.152,0,1,1,4.3,0v4.738a2.152,2.152,0,1,1-4.3,0Zm2.883.088v-4.916c0-.644-.283-.888-.735-.888s-.735.243-.735.888v4.916c0,.644.283.89.735.89S469.405,215.984,469.405,215.34Z" transform="translate(-426.895 -206.291)" fill="#fff"/>
    </g>
  </g>
</svg>
