<svg xmlns="http://www.w3.org/2000/svg" width="49.451" height="49.454" viewBox="0 0 49.451 49.454">
  <g id="Group_6" data-name="Group 6" transform="translate(-329.58 -195.104)">
    <rect id="Rectangle_6" data-name="Rectangle 6" width="49.451" height="49.454" transform="translate(329.58 195.104)" fill="#0fb2de"/>
    <path id="Path_33" data-name="Path 33" d="M336.283,205.158c.029-.557.265-.911.794-.911.573,0,.794.354.794,1v1.736c0,.631-.234,1-.809,1-.558,0-.779-.382-.779-1Zm.779,4.193a2.2,2.2,0,0,0,2.471-2.515v-1.472c0-1.632-.646-2.455-1.854-2.455a1.433,1.433,0,0,0-1.381.809h-.015v-2.147c0-.6.191-1.029.794-1.029s.78.352.78.969v.663h1.529v-.53c0-1.47-.485-2.5-2.339-2.5-1.765,0-2.426,1.132-2.426,2.692v4.852c0,1.546.676,2.663,2.441,2.663" fill="#fff"/>
    <path id="Path_34" data-name="Path 34" d="M362.171,218.937a2.223,2.223,0,0,0-1.695.1c-2.226.9-3.74,1.227-6.082.494-1.474-.461-2.853-1.428-4.484-.839a9.271,9.271,0,0,1-3.314.751l-.707-3.623h16.789ZM356.48,229.7a3.445,3.445,0,0,1-4.284,0,3.179,3.179,0,0,1-.4-3.877c.289-.54,2.353-3.641,2.531-3.9v-.02l.009.01.007-.01v.02c.173.264,2.242,3.365,2.53,3.9a3.18,3.18,0,0,1-.4,3.877m6.934-14.594a.222.222,0,0,0-.163-.071h-17.94a.216.216,0,0,0-.161.071.213.213,0,0,0-.046.169l3.014,18.231a.212.212,0,0,0,.208.175h3.7l.252,2.97-1.555,0,3.621,3.622,3.631-3.631h-1.557l.253-2.964h3.765a.207.207,0,0,0,.206-.179l2.819-18.227a.214.214,0,0,0-.046-.169" fill="#fff"/>
    <text id="E_SANEAMENTO" data-name="E SANEAMENTO" transform="translate(343.607 209.214)" fill="#fff" font-size="5.949" font-family="BebasNeue-Regular, Bebas Neue"><tspan x="0" y="0">E SANEAMENTO</tspan></text>
    <text id="ÁGUA_POTÁVEl" data-name="ÁGUA POTÁVEl" transform="translate(343.578 203.252)" fill="#fff" font-size="5.949" font-family="BebasNeue-Regular, Bebas Neue"><tspan x="0" y="0">ÁGUA POTÁVEl</tspan></text>
  </g>
</svg>
