<svg id="Group_432" data-name="Group 432" xmlns="http://www.w3.org/2000/svg" width="114.409" height="114.415" viewBox="0 0 114.409 114.415">
  <g id="Group_396" data-name="Group 396" transform="translate(0 0)">
    <rect id="Rectangle_126" data-name="Rectangle 126" width="114.409" height="114.415" transform="translate(0 0)" fill="#0085cb"/>
    <path id="Path_451" data-name="Path 451" d="M274.839,256.624v23.058H270.96v-17.65h-.033l-2.719,2.821h-.036v-4.047l3.572-4.182Z" transform="translate(-259.933 -246.997)" fill="#fff"/>
    <path id="Path_452" data-name="Path 452" d="M275.007,272.917l3.47-9.489h.032v9.489Zm7.111,6.773v-3.743h1.565v-3.03h-1.565V256.622H278.31l-6.7,16.946v2.378h6.838v3.743Z" transform="translate(-255.406 -246.999)" fill="#fff"/>
    <path id="Path_453" data-name="Path 453" d="M321.044,298.109a3.8,3.8,0,1,1,3.811-3.808,3.809,3.809,0,0,1-3.811,3.808m16.531-1.773c-1.442-1.945-10.741-13.805-23.782-13.805-11.323,0-23.436,10.273-23.436,10.273s-4.55-9.313-13.857-10.21c-.058,0-.113-.014-.176-.014h-.056a.379.379,0,0,0-.355.371,1.015,1.015,0,0,0,.144.341c1.2,1.991,4.26,7.661,4.26,13.321,0,5.679-3.08,11.36-4.267,13.344l-.081.125a.364.364,0,0,0-.056.2.369.369,0,0,0,.341.366l.1-.009a.5.5,0,0,0,.1-.007c9.334-.872,13.9-10.213,13.9-10.213s12.113,10.271,23.436,10.271c13.041,0,22.34-11.858,23.782-13.8.039-.053.072-.1.1-.132a.409.409,0,0,0,.035-.141.386.386,0,0,0-.035-.144,1.276,1.276,0,0,0-.1-.132" transform="translate(-249.732 -212.855)" fill="#fff"/>
    <path id="Path_454" data-name="Path 454" d="M276.292,274.034a.307.307,0,0,0-.072-.016.374.374,0,0,0-.373.378v2.6a.369.369,0,0,0,.109.269c6.293,5.47,12.252.345,13.632-1.011a.365.365,0,0,1,.1-.107.4.4,0,0,1,.2-.067.361.361,0,0,1,.255.1l.018.016c7.111,6.784,14.566,1.289,16.116,0l.153-.139a.361.361,0,0,1,.144-.03.393.393,0,0,1,.148.03l.151.139c1.553,1.289,9.007,6.784,16.114,0l.014-.016a.373.373,0,0,1,.253-.1.391.391,0,0,1,.209.067.413.413,0,0,1,.1.107c1.379,1.356,7.329,6.481,13.632,1.011a.388.388,0,0,0,.109-.269v-2.6a.371.371,0,0,0-.371-.378.379.379,0,0,0-.081.016q-.083.049-.188.1a11.457,11.457,0,0,1-13.391-1.88c-.051-.046-.1-.1-.158-.153a.436.436,0,0,0-.158-.032.64.64,0,0,0-.116.016.431.431,0,0,0-.188.148c-1.625,1.235-9.079,6.284-15.72.093l-.1-.1a.407.407,0,0,0-.267-.114.39.39,0,0,0-.262.114l-.1.1c-6.636,6.191-14.1,1.143-15.722-.093a.4.4,0,0,0-.185-.148.636.636,0,0,0-.118-.016.492.492,0,0,0-.158.032,1.4,1.4,0,0,1-.158.153,11.457,11.457,0,0,1-13.391,1.88c-.065-.032-.132-.065-.19-.1" transform="translate(-249.818 -226.646)" fill="#fff"/>
    <path id="Path_455" data-name="Path 455" d="M289.588,280.325a.348.348,0,0,1,.1-.1.39.39,0,0,1,.209-.072.361.361,0,0,1,.253.1l.016.016c7.109,6.775,14.566,1.282,16.119,0l.151-.144a.325.325,0,0,1,.144-.023.335.335,0,0,1,.146.023l.153.144c1.553,1.282,9.007,6.775,16.114,0l.016-.016a.356.356,0,0,1,.25-.1.363.363,0,0,1,.206.072.371.371,0,0,1,.107.1c1.375,1.354,7.329,6.483,13.632,1.008a.378.378,0,0,0,.111-.264v-2.6a.371.371,0,0,0-.373-.371.391.391,0,0,0-.081.016c-.056.028-.118.058-.188.1a11.472,11.472,0,0,1-13.391-1.88c-.051-.049-.1-.1-.158-.151a.33.33,0,0,0-.158-.037.255.255,0,0,0-.111.028.344.344,0,0,0-.192.141c-1.625,1.235-9.079,6.284-15.72.093l-.1-.1a.387.387,0,0,0-.267-.1.379.379,0,0,0-.262.1l-.1.1c-6.636,6.191-14.1,1.143-15.722-.093a.328.328,0,0,0-.185-.141.315.315,0,0,0-.118-.028.34.34,0,0,0-.155.037c-.051.053-.1.1-.16.151a11.472,11.472,0,0,1-13.391,1.88c-.065-.037-.132-.067-.19-.1a.309.309,0,0,0-.074-.016.37.37,0,0,0-.371.371v2.6a.358.358,0,0,0,.109.264c6.293,5.475,12.255.345,13.632-1.008" transform="translate(-249.818 -221.278)" fill="#fff"/>
    <g id="Group_393" data-name="Group 393" transform="translate(36.745 9.136)">
      <g id="Group_392" data-name="Group 392">
        <path id="Path_456" data-name="Path 456" d="M280.47,256.472H282.7c1.518,0,2.264.841,2.264,2.388v.95c0,1.546-.746,2.387-2.264,2.387h-.716v3.931H280.47Zm2.232,4.346c.484,0,.746-.222.746-.911v-1.145c0-.691-.262-.909-.746-.909h-.716v2.965Z" transform="translate(-280.47 -256.333)" fill="#fff"/>
        <path id="Path_457" data-name="Path 457" d="M282.765,256.472h2.248c1.574,0,2.248.73,2.248,2.221v.6c0,.992-.315,1.627-.992,1.9v.03c.758.232,1.006.95,1.006,2.04v1.7a2.823,2.823,0,0,0,.167,1.173H285.9a2.951,2.951,0,0,1-.139-1.187v-1.764c0-.9-.26-1.187-.95-1.187h-.524v4.137h-1.518Zm2.07,4.137c.566,0,.911-.246.911-1.018v-.749c0-.686-.234-.99-.772-.99h-.691v2.756Z" transform="translate(-277.445 -256.333)" fill="#fff"/>
        <path id="Path_458" data-name="Path 458" d="M285.115,263.917v-5.076a2.307,2.307,0,1,1,4.608,0v5.076a2.307,2.307,0,1,1-4.608,0Zm3.09.1v-5.271c0-.688-.3-.95-.786-.95s-.786.262-.786.95v5.271c0,.691.3.953.786.953S288.2,264.705,288.2,264.015Z" transform="translate(-274.348 -256.412)" fill="#fff"/>
        <path id="Path_459" data-name="Path 459" d="M288.957,257.854h-1.588v-1.382h4.691v1.382h-1.588v8.275h-1.516Z" transform="translate(-271.378 -256.333)" fill="#fff"/>
        <path id="Path_460" data-name="Path 460" d="M289.707,256.472h4.14v1.382h-2.622v2.55h2.084v1.379h-2.084v2.967h2.622v1.379h-4.14Z" transform="translate(-268.296 -256.333)" fill="#fff"/>
        <path id="Path_461" data-name="Path 461" d="M291.819,263.917v-5.076c0-1.546.772-2.429,2.26-2.429s2.265.883,2.265,2.429v.83h-1.435v-.927c0-.688-.3-.95-.786-.95s-.788.262-.788.95v5.285c0,.688.3.939.788.939s.786-.25.786-.939v-1.891h-.758v-1.379h2.193v3.159c0,1.546-.772,2.429-2.265,2.429S291.819,265.463,291.819,263.917Z" transform="translate(-265.513 -256.412)" fill="#fff"/>
        <path id="Path_462" data-name="Path 462" d="M294.193,256.472h4.138v1.382h-2.622v2.55h2.082v1.379h-2.082v2.967h2.622v1.379h-4.138Z" transform="translate(-262.384 -256.333)" fill="#fff"/>
        <path id="Path_463" data-name="Path 463" d="M296.352,256.472H298.6c1.572,0,2.246.73,2.246,2.221v.6c0,.992-.315,1.627-.99,1.9v.03c.758.232,1.006.95,1.006,2.04v1.7a2.861,2.861,0,0,0,.165,1.173h-1.546a3.015,3.015,0,0,1-.137-1.187v-1.764c0-.9-.262-1.187-.95-1.187h-.526v4.137h-1.516Zm2.068,4.137c.568,0,.911-.246.911-1.018v-.749c0-.686-.234-.99-.772-.99h-.691v2.756Z" transform="translate(-259.539 -256.333)" fill="#fff"/>
        <path id="Path_464" data-name="Path 464" d="M301.1,256.472h2.056l1.572,9.656h-1.516l-.278-1.917v.028h-1.722l-.276,1.889h-1.407Zm1.655,6.455-.677-4.77h-.025l-.663,4.77Z" transform="translate(-255.353 -256.333)" fill="#fff"/>
      </g>
    </g>
    <g id="Group_395" data-name="Group 395" transform="translate(36.332 23.002)">
      <g id="Group_394" data-name="Group 394">
        <path id="Path_465" data-name="Path 465" d="M280.292,262.394h1.53l.994,7.489h.028l.992-7.489h1.393l-1.463,9.656h-2.012Z" transform="translate(-280.292 -262.394)" fill="#fff"/>
        <path id="Path_466" data-name="Path 466" d="M282.737,262.394h1.516v9.656h-1.516Z" transform="translate(-277.07 -262.394)" fill="#fff"/>
        <path id="Path_467" data-name="Path 467" d="M283.879,262.394H286.2c1.518,0,2.262.841,2.262,2.387v4.884c0,1.544-.744,2.385-2.262,2.385h-2.318Zm2.29,8.277c.482,0,.772-.248.772-.939v-5.021c0-.691-.29-.937-.772-.937H285.4v6.9Z" transform="translate(-275.565 -262.394)" fill="#fff"/>
        <path id="Path_468" data-name="Path 468" d="M287.695,262.394h2.056l1.572,9.656H289.8l-.273-1.917v.025h-1.725l-.278,1.891h-1.407Zm1.655,6.455-.675-4.773h-.028l-.663,4.773Z" transform="translate(-272.61 -262.394)" fill="#fff"/>
        <path id="Path_469" data-name="Path 469" d="M289.631,262.394H291.8l.966,6.91h.028l.964-6.91h2.167v9.656h-1.435V264.74h-.028l-1.1,7.311h-1.27l-1.1-7.311h-.028v7.311h-1.323Z" transform="translate(-267.984 -262.394)" fill="#fff"/>
        <path id="Path_470" data-name="Path 470" d="M294.231,262.394h2.056l1.572,9.656H296.34l-.276-1.917v.025h-1.722l-.276,1.891h-1.407Zm1.655,6.455-.677-4.773h-.028l-.661,4.773Z" transform="translate(-263.993 -262.394)" fill="#fff"/>
        <path id="Path_471" data-name="Path 471" d="M295.216,262.394h2.248c1.574,0,2.248.73,2.248,2.22v.6c0,.99-.318,1.627-.992,1.9v.03c.758.232,1,.95,1,2.04v1.7a2.82,2.82,0,0,0,.169,1.173h-1.546a3.007,3.007,0,0,1-.139-1.187V269.1c0-.895-.262-1.184-.95-1.184h-.526v4.137h-1.516Zm2.07,4.137c.566,0,.909-.246.909-1.018v-.749c0-.688-.234-.99-.772-.99h-.691v2.756Z" transform="translate(-260.624 -262.394)" fill="#fff"/>
        <path id="Path_472" data-name="Path 472" d="M297.614,262.394h1.516v9.656h-1.516Z" transform="translate(-257.463 -262.394)" fill="#fff"/>
        <path id="Path_473" data-name="Path 473" d="M298.756,262.394h1.9l1.477,5.781h.028v-5.781h1.351v9.656h-1.558L300.135,265h-.028v7.049h-1.351Z" transform="translate(-255.958 -262.394)" fill="#fff"/>
        <path id="Path_474" data-name="Path 474" d="M301.3,262.394h1.518v3.931h1.627v-3.931h1.518v9.656h-1.518V267.7h-1.627v4.346H301.3Z" transform="translate(-252.611 -262.394)" fill="#fff"/>
        <path id="Path_475" data-name="Path 475" d="M305.195,262.394h2.056l1.572,9.656H307.3l-.276-1.917v.025h-1.722l-.276,1.891h-1.409Zm1.655,6.455-.677-4.773h-.028l-.661,4.773Z" transform="translate(-249.546 -262.394)" fill="#fff"/>
      </g>
    </g>
  </g>
</svg>
