<svg id="Group_425" data-name="Group 425" xmlns="http://www.w3.org/2000/svg" width="114.623" height="114.629" viewBox="0 0 114.623 114.629">
  <g id="Group_357" data-name="Group 357" transform="translate(0 0)">
    <rect id="Rectangle_117" data-name="Rectangle 117" width="114.623" height="114.629" transform="translate(0 0)" fill="#0fb2de"/>
    <path id="Path_226" data-name="Path 226" d="M330.947,211.826c.067-1.293.614-2.114,1.84-2.114,1.328,0,1.84.821,1.84,2.32v4.024c0,1.465-.542,2.318-1.875,2.318-1.293,0-1.806-.888-1.806-2.318Zm1.806,9.717c4.124,0,5.727-2.251,5.727-5.83V212.3c0-3.783-1.5-5.69-4.3-5.69a3.328,3.328,0,0,0-3.2,1.875h-.033v-4.977c0-1.4.443-2.387,1.84-2.387s1.808.818,1.808,2.248v1.537h3.544v-1.231c0-3.407-1.124-5.792-5.422-5.792-4.091,0-5.623,2.622-5.623,6.237v11.249c0,3.581,1.567,6.17,5.658,6.17" transform="translate(-315.411 -188.52)" fill="#fff"/>
    <path id="Path_227" data-name="Path 227" d="M377.142,222.827a5.155,5.155,0,0,0-3.929.239c-5.16,2.093-8.669,2.844-14.1,1.143-3.417-1.069-6.613-3.308-10.394-1.945A21.392,21.392,0,0,1,341.04,224l-1.639-8.4h38.915ZM363.95,247.765a7.993,7.993,0,0,1-9.93,0c-3.118-3.111-2-6.984-.92-8.987.67-1.254,5.454-8.439,5.867-9.054v-.046l.019.023.018-.023v.046c.4.614,5.2,7.8,5.864,9.054,1.085,2,2.2,5.876-.918,8.987m16.07-33.828a.5.5,0,0,0-.375-.167H338.059a.476.476,0,0,0-.477.559l6.986,42.258a.49.49,0,0,0,.482.406h8.574l.584,6.884-3.6,0,8.393,8.4,8.416-8.416-3.609,0,.586-6.87h8.727a.48.48,0,0,0,.477-.417l6.534-42.246a.486.486,0,0,0-.109-.392" transform="translate(-301.599 -167.585)" fill="#fff"/>
    <g id="Group_354" data-name="Group 354" transform="translate(33.08 22.914)">
      <g id="Group_353" data-name="Group 353">
        <path id="Path_228" data-name="Path 228" d="M336.326,203.79h4.137v1.379h-2.621v2.552h2.081V209.1h-2.081v2.967h2.621v1.379h-4.137Z" transform="translate(-336.326 -203.653)" fill="#fff"/>
        <path id="Path_229" data-name="Path 229" d="M339.324,211.234v-.552h1.435v.661c0,.691.3.939.786.939s.783-.248.783-.964c0-.8-.3-1.312-1.293-2.181-1.27-1.117-1.685-1.9-1.685-3.006a2.112,2.112,0,0,1,2.265-2.4c1.477,0,2.207.883,2.207,2.427v.4h-1.435v-.494c0-.691-.276-.953-.758-.953s-.758.262-.758.923c0,.7.315,1.215,1.307,2.084,1.27,1.117,1.671,1.889,1.671,3.09a2.143,2.143,0,0,1-2.292,2.455C340.068,213.661,339.324,212.78,339.324,211.234Z" transform="translate(-332.375 -203.731)" fill="#fff"/>
        <path id="Path_230" data-name="Path 230" d="M343.051,203.79H345.1l1.572,9.656H345.16l-.276-1.917v.026H343.16l-.276,1.891h-1.407Zm1.653,6.455-.677-4.773H344l-.661,4.773Z" transform="translate(-329.537 -203.653)" fill="#fff"/>
        <path id="Path_231" data-name="Path 231" d="M344.035,203.79h1.9l1.477,5.779h.025V203.79h1.351v9.656h-1.558l-1.822-7.049h-.025v7.049h-1.351Z" transform="translate(-326.166 -203.653)" fill="#fff"/>
        <path id="Path_232" data-name="Path 232" d="M346.575,203.79h4.137v1.379h-2.621v2.552h2.081V209.1h-2.081v2.967h2.621v1.379h-4.137Z" transform="translate(-322.819 -203.653)" fill="#fff"/>
        <path id="Path_233" data-name="Path 233" d="M350.135,203.79h2.054l1.572,9.656h-1.516l-.276-1.917v.026h-1.725l-.276,1.891h-1.407Zm1.653,6.455-.677-4.773h-.026l-.661,4.773Z" transform="translate(-320.201 -203.653)" fill="#fff"/>
        <path id="Path_234" data-name="Path 234" d="M351.119,203.79h2.167l.964,6.912h.028l.967-6.912h2.165v9.656h-1.435v-7.311h-.028l-1.1,7.311h-1.268l-1.106-7.311h-.025v7.311h-1.326Z" transform="translate(-316.83 -203.653)" fill="#fff"/>
        <path id="Path_235" data-name="Path 235" d="M354.32,203.79h4.138v1.379h-2.622v2.552h2.081V209.1h-2.081v2.967h2.622v1.379H354.32Z" transform="translate(-312.611 -203.653)" fill="#fff"/>
        <path id="Path_236" data-name="Path 236" d="M356.479,203.79h1.9l1.477,5.779h.028V203.79h1.351v9.656H359.68l-1.822-7.049h-.028v7.049h-1.351Z" transform="translate(-309.766 -203.653)" fill="#fff"/>
        <path id="Path_237" data-name="Path 237" d="M360.434,205.169h-1.588V203.79h4.689v1.379H361.95v8.277h-1.516Z" transform="translate(-306.647 -203.653)" fill="#fff"/>
        <path id="Path_238" data-name="Path 238" d="M361.136,211.234v-5.076a2.306,2.306,0,1,1,4.606,0v5.076a2.306,2.306,0,1,1-4.606,0Zm3.09.1v-5.269c0-.691-.3-.953-.786-.953s-.788.262-.788.953v5.269c0,.688.3.95.788.95S364.226,212.02,364.226,211.331Z" transform="translate(-303.629 -203.731)" fill="#fff"/>
      </g>
    </g>
    <g id="Group_356" data-name="Group 356" transform="translate(32.61 6.997)">
      <g id="Group_355" data-name="Group 355">
        <path id="Path_239" data-name="Path 239" d="M337.7,199.1h2.056l1.572,9.656h-1.518l-.276-1.917v.025h-1.722l-.276,1.891h-1.409Zm1.173-2.234h1.655l-1.477,1.588H337.9Zm.482,8.692-.677-4.775h-.028l-.661,4.775Z" transform="translate(-336.123 -196.864)" fill="#fff"/>
        <path id="Path_240" data-name="Path 240" d="M338.634,205.272V200.2c0-1.544.772-2.427,2.262-2.427s2.262.883,2.262,2.427v.827h-1.435V200.1c0-.691-.3-.953-.786-.953s-.788.262-.788.953v5.28c0,.691.3.939.788.939s.786-.248.786-.939v-1.887h-.758v-1.381h2.193v3.159c0,1.546-.772,2.427-2.262,2.427S338.634,206.818,338.634,205.272Z" transform="translate(-332.814 -195.671)" fill="#fff"/>
        <path id="Path_241" data-name="Path 241" d="M340.983,205.194v-7.366H342.5V205.3c0,.691.29.939.772.939s.772-.248.772-.939v-7.475h1.463v7.366c0,1.546-.772,2.427-2.262,2.427S340.983,206.74,340.983,205.194Z" transform="translate(-329.718 -195.594)" fill="#fff"/>
        <path id="Path_242" data-name="Path 242" d="M344.8,197.828h2.054l1.572,9.656h-1.516l-.276-1.917v.025h-1.725l-.276,1.891h-1.407Zm1.655,6.458-.677-4.775h-.028l-.661,4.775Z" transform="translate(-326.762 -195.594)" fill="#fff"/>
        <path id="Path_243" data-name="Path 243" d="M346.736,197.828h2.235c1.516,0,2.26.841,2.26,2.387v.95c0,1.546-.744,2.387-2.26,2.387h-.719v3.931h-1.516Zm2.235,4.346c.482,0,.744-.22.744-.911v-1.145c0-.688-.262-.911-.744-.911h-.719v2.967Z" transform="translate(-322.136 -195.594)" fill="#fff"/>
        <path id="Path_244" data-name="Path 244" d="M348.984,205.272V200.2a2.306,2.306,0,1,1,4.606,0v5.076a2.306,2.306,0,1,1-4.606,0Zm3.09.1V200.1c0-.691-.3-.953-.786-.953s-.788.262-.788.953v5.269c0,.688.3.95.788.95S352.074,206.058,352.074,205.369Z" transform="translate(-319.173 -195.671)" fill="#fff"/>
        <path id="Path_245" data-name="Path 245" d="M352.824,199.207h-1.585v-1.379h4.689v1.379H354.34v8.277h-1.516Z" transform="translate(-316.201 -195.594)" fill="#fff"/>
        <path id="Path_246" data-name="Path 246" d="M354.976,199.1h2.056l1.572,9.656h-1.516l-.278-1.917v.025h-1.722l-.276,1.891H353.4Zm1.173-2.234H357.8l-1.477,1.588h-1.145Zm.482,8.692-.677-4.775h-.025l-.663,4.775Z" transform="translate(-313.348 -196.864)" fill="#fff"/>
        <path id="Path_247" data-name="Path 247" d="M355.788,197.828h1.534l.99,7.491h.028l.994-7.491h1.393l-1.463,9.656h-2.014Z" transform="translate(-310.206 -195.594)" fill="#fff"/>
        <path id="Path_248" data-name="Path 248" d="M358.234,197.828h4.138v1.379H359.75v2.552h2.081v1.379H359.75v2.967h2.622v1.379h-4.138Z" transform="translate(-306.983 -195.594)" fill="#fff"/>
        <path id="Path_249" data-name="Path 249" d="M360.393,197.828h1.516v8.277h2.5v1.379h-4.012Z" transform="translate(-304.137 -195.594)" fill="#fff"/>
      </g>
    </g>
  </g>
</svg>
