<svg xmlns="http://www.w3.org/2000/svg" width="351.309" height="351.238" viewBox="0 0 351.309 351.238">
  <g id="Group_18" data-name="Group 18" transform="translate(-124.74 -383.557)">
    <path id="Path_102" data-name="Path 102" d="M214.99,509.065a99.653,99.653,0,0,1,15.74-20.251L179.109,432.2a176.736,176.736,0,0,0-32.776,42.666Z" fill="#5fae32"/>
    <path id="Path_103" data-name="Path 103" d="M341.552,469.07A99.018,99.018,0,0,1,363.2,482.636l51.768-56.524a176.281,176.281,0,0,0-45.881-28.627Z" fill="#dc9427"/>
    <path id="Path_104" data-name="Path 104" d="M460.115,486.094,391.495,520.3a98.127,98.127,0,0,1,6.873,24.244l76.33-7.2a173.778,173.778,0,0,0-14.583-51.247" fill="#b40922"/>
    <path id="Path_105" data-name="Path 105" d="M386.574,510.382l68.612-34.2a176.448,176.448,0,0,0-32.067-42.562l-51.767,56.51a99.527,99.527,0,0,1,15.222,20.255" fill="#4c8e32"/>
    <path id="Path_106" data-name="Path 106" d="M201.354,559.142c0-1.537.05-3.081.119-4.618l-76.346-6.834c-.241,3.783-.387,7.6-.387,11.452a176.153,176.153,0,0,0,5.2,42.47l73.741-21.153a98.991,98.991,0,0,1-2.323-21.317" fill="#3b6b34"/>
    <path id="Path_107" data-name="Path 107" d="M376.969,621.9a100.379,100.379,0,0,1-18.622,17.517l40.311,65.266a177.055,177.055,0,0,0,39.476-36.66Z" fill="#ffb300"/>
    <path id="Path_108" data-name="Path 108" d="M399.435,559.142a98.433,98.433,0,0,1-2.27,21.071l73.729,21.178a175.009,175.009,0,0,0,5.155-42.249q0-5.418-.342-10.782l-76.346,7.215c.045,1.2.074,2.377.074,3.567" fill="#e8271e"/>
    <path id="Path_109" data-name="Path 109" d="M225.06,623.36l-61.018,46.38a177.157,177.157,0,0,0,39.844,36.1l40.309-65.2A100.136,100.136,0,0,1,225.06,623.36" fill="#fa8916"/>
    <path id="Path_110" data-name="Path 110" d="M202.593,543.508a97.539,97.539,0,0,1,7.315-24.593l-68.593-34.174a174.257,174.257,0,0,0-15.137,51.914Z" fill="#0085cb"/>
    <path id="Path_111" data-name="Path 111" d="M389.281,710.583,349.024,645.4a98.484,98.484,0,0,1-23.493,9.546l14.208,75.4a174.446,174.446,0,0,0,49.542-19.768" fill="#8f0b34"/>
    <path id="Path_112" data-name="Path 112" d="M394.23,590.886a99.131,99.131,0,0,1-10.718,22.071l61.213,46.175A174.8,174.8,0,0,0,467.9,612.057Z" fill="#0fb2de"/>
    <path id="Path_113" data-name="Path 113" d="M314.679,657.147a98.074,98.074,0,0,1-25.818.362l-14.191,75.4a176.281,176.281,0,0,0,54.2-.424Z" fill="#ee511d"/>
    <path id="Path_114" data-name="Path 114" d="M306.73,460.3a98.183,98.183,0,0,1,24.5,4.735l27.538-71.57a174.6,174.6,0,0,0-52.042-9.848Z" fill="#dd052d"/>
    <path id="Path_115" data-name="Path 115" d="M277.953,655.622a98.58,98.58,0,0,1-24.313-9.2l-40.329,65.229a174.882,174.882,0,0,0,50.459,19.289Z" fill="#d10054"/>
    <path id="Path_116" data-name="Path 116" d="M270.627,464.679a98.3,98.3,0,0,1,25.025-4.451V383.557a174.793,174.793,0,0,0-52.749,9.607Z" fill="#063859"/>
    <path id="Path_117" data-name="Path 117" d="M218.346,614.547a98.508,98.508,0,0,1-11.685-23.424l-73.684,21.154a174.938,174.938,0,0,0,24.338,48.646Z" fill="#b5791c"/>
    <path id="Path_118" data-name="Path 118" d="M239.03,481.459a99.311,99.311,0,0,1,21.24-12.85l-27.709-71.478a175.532,175.532,0,0,0-45.194,27.675Z" fill="#00588e"/>
  </g>
</svg>
