<svg id="Group_426" data-name="Group 426" xmlns="http://www.w3.org/2000/svg" width="114.395" height="114.399" viewBox="0 0 114.395 114.399">
  <rect id="Rectangle_118" data-name="Rectangle 118" width="114.395" height="114.399" transform="translate(0 0)" fill="#ffb300"/>
  <path id="Path_250" data-name="Path 250" d="M384.64,201.145h5.988l-5.174,19.9H389.3l5.068-19.493v-3.572H384.64Z" transform="translate(-372.906 -188.393)" fill="#fff"/>
  <g id="Group_358" data-name="Group 358" transform="translate(31.691 52.792)">
    <path id="Path_251" data-name="Path 251" d="M412.923,243.992a7.758,7.758,0,0,1-2.3-15.166v2.888a5.074,5.074,0,1,0,4.594-.007v-2.883a7.758,7.758,0,0,1-2.292,15.168m-1.108-16.663a1.11,1.11,0,0,1,2.216,0v5.12a1.11,1.11,0,0,1-2.216,0Zm1.106-5.89A14.912,14.912,0,1,0,427.83,236.35a14.91,14.91,0,0,0-14.909-14.911" transform="translate(-386.974 -210.271)" fill="#fff"/>
    <path id="Path_252" data-name="Path 252" d="M402.081,228.511a1.246,1.246,0,0,0-1.147-1.224H394.4a1.228,1.228,0,0,0,0,2.452h6.53a1.249,1.249,0,0,0,1.147-1.228" transform="translate(-393.25 -202.564)" fill="#fff"/>
    <path id="Path_253" data-name="Path 253" d="M420.662,228.511a1.246,1.246,0,0,0-1.145-1.224h-6.53a1.228,1.228,0,0,0,0,2.452h6.53a1.248,1.248,0,0,0,1.145-1.228" transform="translate(-368.762 -202.564)" fill="#fff"/>
    <path id="Path_254" data-name="Path 254" d="M405.145,225.452a1.245,1.245,0,0,0,1.222-1.147v-6.53a1.227,1.227,0,0,0-2.45,0v6.53a1.25,1.25,0,0,0,1.228,1.147" transform="translate(-379.192 -216.621)" fill="#fff"/>
    <path id="Path_255" data-name="Path 255" d="M405.145,244.033a1.245,1.245,0,0,0,1.222-1.147v-6.53a1.227,1.227,0,0,0-2.45,0v6.53a1.25,1.25,0,0,0,1.228,1.147" transform="translate(-379.192 -192.133)" fill="#fff"/>
    <path id="Path_256" data-name="Path 256" d="M402.482,226.991a1.247,1.247,0,0,0-.387-1.632l-5.665-3.243a1.228,1.228,0,0,0-1.219,2.128l5.667,3.245a1.253,1.253,0,0,0,1.6-.5" transform="translate(-391.388 -209.546)" fill="#fff"/>
    <path id="Path_257" data-name="Path 257" d="M418.609,236.218a1.251,1.251,0,0,0-.387-1.632l-5.665-3.24a1.228,1.228,0,0,0-1.219,2.128L417,236.719a1.251,1.251,0,0,0,1.6-.5" transform="translate(-370.134 -197.382)" fill="#fff"/>
    <path id="Path_258" data-name="Path 258" d="M408.468,225.853a1.246,1.246,0,0,0,1.629-.387l3.245-5.665a1.228,1.228,0,0,0-2.128-1.219l-3.245,5.665a1.255,1.255,0,0,0,.5,1.606" transform="translate(-374.012 -214.759)" fill="#fff"/>
    <path id="Path_259" data-name="Path 259" d="M399.239,241.98a1.246,1.246,0,0,0,1.629-.387l3.243-5.665a1.228,1.228,0,0,0-2.128-1.219l-3.243,5.665a1.253,1.253,0,0,0,.5,1.606" transform="translate(-386.176 -193.506)" fill="#fff"/>
    <path id="Path_260" data-name="Path 260" d="M403.619,225.853a1.248,1.248,0,0,0,.489-1.6l-3.257-5.663a1.226,1.226,0,0,0-2.121,1.224l3.252,5.66a1.248,1.248,0,0,0,1.636.38" transform="translate(-386.2 -214.746)" fill="#fff"/>
    <path id="Path_261" data-name="Path 261" d="M412.88,241.961a1.246,1.246,0,0,0,.489-1.6l-3.252-5.658a1.228,1.228,0,0,0-2.126,1.221l3.254,5.66a1.25,1.25,0,0,0,1.634.38" transform="translate(-373.992 -193.517)" fill="#fff"/>
    <path id="Path_262" data-name="Path 262" d="M410.938,226.988a1.249,1.249,0,0,0,1.6.491l5.658-3.257a1.228,1.228,0,0,0-1.222-2.126l-5.66,3.257a1.251,1.251,0,0,0-.38,1.634" transform="translate(-370.145 -209.571)" fill="#fff"/>
    <path id="Path_263" data-name="Path 263" d="M394.83,236.251a1.246,1.246,0,0,0,1.6.489l5.658-3.254a1.228,1.228,0,0,0-1.222-2.126l-5.66,3.257a1.249,1.249,0,0,0-.38,1.634" transform="translate(-391.374 -197.364)" fill="#fff"/>
  </g>
  <g id="Group_419" data-name="Group 419" transform="translate(32.14 9.081)">
    <g id="Group_416" data-name="Group 416" transform="translate(0 0)">
      <g id="Group_415" data-name="Group 415">
        <path id="Path_606" data-name="Path 606" d="M393.444,197.823h4.138V199.2H394.96v2.552h2.084v1.379H394.96V206.1h2.622v1.379h-4.138Z" transform="translate(-393.444 -197.684)" fill="#fff"/>
        <path id="Path_607" data-name="Path 607" d="M395.6,197.823h1.905l1.474,5.779h.028v-5.779h1.351v9.654H398.8l-1.822-7.049h-.028v7.049H395.6Z" transform="translate(-390.599 -197.684)" fill="#fff"/>
        <path id="Path_608" data-name="Path 608" d="M398.143,197.823h4.14V199.2h-2.621v2.552h2.081v1.379h-2.081V206.1h2.621v1.379h-4.14Z" transform="translate(-387.251 -197.684)" fill="#fff"/>
        <path id="Path_609" data-name="Path 609" d="M400.3,197.823h2.246c1.574,0,2.248.73,2.248,2.221v.593c0,.992-.318,1.627-.992,1.9v.028c.758.234,1.008.95,1.008,2.042v1.7a2.849,2.849,0,0,0,.165,1.171h-1.546a3,3,0,0,1-.137-1.184v-1.766c0-.9-.264-1.187-.953-1.187h-.524v4.137H400.3Zm2.068,4.137c.566,0,.911-.248.911-1.02v-.746c0-.688-.234-.992-.772-.992h-.691v2.758Z" transform="translate(-384.404 -197.684)" fill="#fff"/>
        <path id="Path_610" data-name="Path 610" d="M402.652,205.268v-5.076c0-1.546.772-2.429,2.262-2.429s2.262.883,2.262,2.429v.827h-1.435v-.925c0-.691-.3-.95-.786-.95s-.788.26-.788.95v5.283c0,.691.3.939.788.939s.786-.248.786-.939v-1.889h-.758v-1.379h2.193v3.159c0,1.544-.772,2.427-2.262,2.427S402.652,206.812,402.652,205.268Z" transform="translate(-381.309 -197.763)" fill="#fff"/>
        <path id="Path_611" data-name="Path 611" d="M405.026,197.823h1.516v9.654h-1.516Z" transform="translate(-378.18 -197.684)" fill="#fff"/>
        <path id="Path_612" data-name="Path 612" d="M407.569,197.823h2.054l1.572,9.654h-1.516l-.276-1.917v.028h-1.725l-.276,1.889h-1.407Zm1.655,6.455-.677-4.773h-.028l-.661,4.773Z" transform="translate(-376.903 -197.684)" fill="#fff"/>
        <path id="Path_613" data-name="Path 613" d="M408.44,205.268v-.554h1.435v.663c0,.691.3.939.786.939s.786-.248.786-.967c0-.8-.3-1.31-1.293-2.179-1.27-1.117-1.685-1.9-1.685-3.009a2.112,2.112,0,0,1,2.265-2.4c1.474,0,2.207.883,2.207,2.429v.4H411.5v-.5c0-.691-.278-.95-.76-.95s-.758.26-.758.923c0,.7.318,1.215,1.31,2.084,1.27,1.117,1.669,1.889,1.669,3.09a2.142,2.142,0,0,1-2.29,2.455C409.186,207.7,408.44,206.812,408.44,205.268Z" transform="translate(-373.681 -197.763)" fill="#fff"/>
      </g>
    </g>
    <g id="Group_418" data-name="Group 418" transform="translate(0.229 10.535)">
      <g id="Group_417" data-name="Group 417">
        <path id="Path_614" data-name="Path 614" d="M393.543,203.272h2.248c1.572,0,2.246.732,2.246,2.221v.593c0,.994-.315,1.627-.99,1.9v.028c.758.234,1,.953,1,2.042v1.7a2.867,2.867,0,0,0,.167,1.173h-1.546a3.016,3.016,0,0,1-.137-1.187v-1.766c0-.9-.262-1.187-.95-1.187h-.526v4.14h-1.516Zm2.068,4.137c.568,0,.911-.248.911-1.02v-.744c0-.691-.236-.994-.772-.994h-.691v2.758Z" transform="translate(-393.543 -201.038)" fill="#fff"/>
        <path id="Path_615" data-name="Path 615" d="M395.94,203.272h4.138v1.379h-2.619V207.2h2.082v1.379h-2.082v2.965h2.619v1.382H395.94Z" transform="translate(-390.384 -201.038)" fill="#fff"/>
        <path id="Path_616" data-name="Path 616" d="M398.1,203.272H400l1.474,5.779h.028v-5.779h1.351v9.656H401.3l-1.822-7.049h-.028v7.049H398.1Z" transform="translate(-387.539 -201.038)" fill="#fff"/>
        <path id="Path_617" data-name="Path 617" d="M400.592,210.716V205.64a2.306,2.306,0,1,1,4.606,0v5.076a2.306,2.306,0,1,1-4.606,0Zm3.09.1v-5.269c0-.688-.3-.95-.786-.95s-.788.262-.788.95v5.269c0,.691.3.953.788.953S403.682,211.5,403.682,210.811Z" transform="translate(-384.253 -201.115)" fill="#fff"/>
        <path id="Path_618" data-name="Path 618" d="M402.846,203.272h1.532l.99,7.491h.028l.994-7.491h1.393l-1.46,9.656h-2.017Z" transform="translate(-381.282 -201.038)" fill="#fff"/>
        <path id="Path_619" data-name="Path 619" d="M406.692,204.542h2.054l1.571,9.656H408.8l-.276-1.919v.028H406.8l-.278,1.891h-1.407Zm1.173-2.234h1.653l-1.474,1.585H406.9Zm.482,8.69-.677-4.773h-.028L406.982,211Z" transform="translate(-378.288 -202.308)" fill="#fff"/>
        <path id="Path_620" data-name="Path 620" d="M407.5,203.272h1.532l.992,7.491h.026l.994-7.491h1.4l-1.463,9.656h-2.014Z" transform="translate(-375.144 -201.038)" fill="#fff"/>
        <path id="Path_621" data-name="Path 621" d="M409.948,203.272h4.138v1.379h-2.622V207.2h2.084v1.379h-2.084v2.965h2.622v1.382h-4.138Z" transform="translate(-371.923 -201.038)" fill="#fff"/>
        <path id="Path_622" data-name="Path 622" d="M412.108,203.272h1.518v9.656h-1.518Z" transform="translate(-369.076 -201.038)" fill="#fff"/>
        <path id="Path_623" data-name="Path 623" d="M413.137,210.716v-.552h1.435v.661c0,.691.3.939.786.939s.783-.248.783-.967c0-.8-.3-1.31-1.293-2.179-1.27-1.117-1.685-1.9-1.685-3.006a2.111,2.111,0,0,1,2.265-2.4c1.477,0,2.207.881,2.207,2.427v.4H416.2v-.5c0-.688-.276-.95-.758-.95s-.758.262-.758.922c0,.7.315,1.215,1.307,2.084,1.27,1.117,1.671,1.889,1.671,3.09a2.144,2.144,0,0,1-2.292,2.455C413.881,213.143,413.137,212.26,413.137,210.716Z" transform="translate(-367.72 -201.115)" fill="#fff"/>
        <path id="Path_624" data-name="Path 624" d="M393.543,208.672h4.137v1.379h-2.622V212.6h2.084v1.379h-2.084v2.965h2.622v1.381h-4.137Z" transform="translate(-393.543 -193.921)" fill="#fff"/>
        <path id="Path_625" data-name="Path 625" d="M398.055,208.672h2.056l1.569,9.656h-1.516l-.276-1.919v.028h-1.722l-.276,1.891h-1.409Zm1.655,6.455-.677-4.773h-.028l-.661,4.773Z" transform="translate(-389.671 -193.921)" fill="#fff"/>
        <path id="Path_626" data-name="Path 626" d="M399,216.173v-5.187a2.24,2.24,0,1,1,4.471,0v1.02h-1.437v-1.117c0-.635-.3-.895-.758-.895s-.758.26-.758.895v5.394c0,.635.3.883.758.883s.758-.248.758-.883v-1.477h1.437v1.368a2.239,2.239,0,1,1-4.471,0Z" transform="translate(-386.355 -194)" fill="#fff"/>
        <path id="Path_627" data-name="Path 627" d="M401.317,208.672h4.137v1.379h-2.621V212.6h2.084v1.379h-2.084v2.965h2.621v1.381h-4.137Z" transform="translate(-383.298 -193.921)" fill="#fff"/>
        <path id="Path_628" data-name="Path 628" d="M403.363,216.117v-.554H404.8v.663c0,.691.3.939.786.939s.786-.248.786-.967c0-.8-.3-1.31-1.3-2.179-1.268-1.117-1.683-1.9-1.683-3.006a2.112,2.112,0,0,1,2.262-2.4c1.476,0,2.209.883,2.209,2.429v.4h-1.437v-.5c0-.691-.276-.95-.758-.95s-.758.26-.758.923c0,.7.318,1.215,1.31,2.084,1.268,1.117,1.669,1.889,1.669,3.09a2.142,2.142,0,0,1-2.29,2.455C404.107,218.544,403.363,217.661,403.363,216.117Z" transform="translate(-380.601 -194)" fill="#fff"/>
        <path id="Path_629" data-name="Path 629" d="M405.576,216.117v-.554h1.435v.663c0,.691.3.939.786.939s.786-.248.786-.967c0-.8-.3-1.31-1.3-2.179-1.27-1.117-1.683-1.9-1.683-3.006a2.112,2.112,0,0,1,2.262-2.4c1.477,0,2.207.883,2.207,2.429v.4h-1.435v-.5c0-.691-.276-.95-.758-.95s-.758.26-.758.923c0,.7.318,1.215,1.307,2.084,1.27,1.117,1.671,1.889,1.671,3.09a2.143,2.143,0,0,1-2.29,2.455C406.32,218.544,405.576,217.661,405.576,216.117Z" transform="translate(-377.685 -194)" fill="#fff"/>
        <path id="Path_630" data-name="Path 630" d="M408.839,207.708h1.655l-1.477,1.585h-1.145Zm-.9,2.234h1.516V219.6h-1.516Z" transform="translate(-374.659 -195.191)" fill="#fff"/>
        <path id="Path_631" data-name="Path 631" d="M408.872,208.672H410.4l.992,7.489h.025l.994-7.489h1.4l-1.463,9.656h-2.014Z" transform="translate(-373.341 -193.921)" fill="#fff"/>
        <path id="Path_632" data-name="Path 632" d="M411.316,208.672h4.137v1.379h-2.619V212.6h2.081v1.379h-2.081v2.965h2.619v1.381h-4.137Z" transform="translate(-370.12 -193.921)" fill="#fff"/>
        <path id="Path_633" data-name="Path 633" d="M413.475,208.672h1.518v9.656h-1.518Z" transform="translate(-367.274 -193.921)" fill="#fff"/>
        <path id="Path_634" data-name="Path 634" d="M414.505,216.117v-.554h1.435v.663c0,.691.3.939.786.939s.788-.248.788-.967c0-.8-.306-1.31-1.3-2.179-1.27-1.117-1.685-1.9-1.685-3.006a2.113,2.113,0,0,1,2.265-2.4c1.476,0,2.207.883,2.207,2.429v.4h-1.435v-.5c0-.691-.276-.95-.758-.95s-.758.26-.758.923c0,.7.315,1.215,1.307,2.084,1.27,1.117,1.671,1.889,1.671,3.09a2.143,2.143,0,0,1-2.29,2.455C415.249,218.544,414.505,217.661,414.505,216.117Z" transform="translate(-365.917 -194)" fill="#fff"/>
      </g>
    </g>
  </g>
</svg>
