<svg xmlns="http://www.w3.org/2000/svg" width="49.359" height="49.36" viewBox="0 0 49.359 49.36">
  <g id="Group_15" data-name="Group 15" transform="translate(-329.553 -253.627)">
    <rect id="Rectangle_16" data-name="Rectangle 16" width="49.359" height="49.36" transform="translate(329.553 253.627)" fill="#5dad32"/>
    <path id="Path_79" data-name="Path 79" d="M333.167,259.563v1.746h.014l1.174-1.217h.016v7.618h1.672v-9.952h-1.335Z" fill="#fff"/>
    <path id="Path_80" data-name="Path 80" d="M340.022,260.914a1.51,1.51,0,0,0-1.409.69H338.6v-2.481h2.878v-1.365h-4.4v5.607H338.6v-.22c0-.587.265-.91.735-.91.514,0,.72.352.72.9v2.407c0,.528-.191.9-.705.9-.572,0-.777-.382-.777-.969v-1.247h-1.528v1.13c0,1.511.6,2.48,2.3,2.48a2.071,2.071,0,0,0,2.378-2.275v-2.437c0-1.57-.807-2.2-1.7-2.2" fill="#fff"/>
    <path id="Rectangle_17" data-name="Rectangle 17" d="M.108,0H1.562a.109.109,0,0,1,.109.109V3.7a.109.109,0,0,1-.109.109H.11A.11.11,0,0,1,0,3.7V.108A.108.108,0,0,1,.108,0Z" transform="translate(348.429 287)" fill="#fff"/>
    <path id="Path_81" data-name="Path 81" d="M365.965,292.355H342a.112.112,0,0,0-.109.113v1.464a.109.109,0,0,0,.109.109h23.969a.11.11,0,0,0,.11-.109v-1.464a.113.113,0,0,0-.11-.113" fill="#fff"/>
    <path id="Path_82" data-name="Path 82" d="M365.965,295.267H342a.109.109,0,0,0-.109.108v1.469a.111.111,0,0,0,.109.109h23.969a.111.111,0,0,0,.11-.109v-1.469a.11.11,0,0,0-.11-.108" fill="#fff"/>
    <path id="Path_83" data-name="Path 83" d="M361.4,283.021a3.543,3.543,0,0,0-2.072-.781,2.776,2.776,0,0,0-1.926.818.2.2,0,0,0-.064.15v.131a.21.21,0,0,0,.069.164.191.191,0,0,0,.169.038.188.188,0,0,0,.044-.011.3.3,0,0,0,.119-.076,1.939,1.939,0,0,1,.962-.2,3.627,3.627,0,0,1,2.469,1.035l.021.02a.292.292,0,0,0,.413,0l.018-.02a3.636,3.636,0,0,1,2.474-1.038,1.934,1.934,0,0,1,.963.2.322.322,0,0,0,.132.081.3.3,0,0,0,.141.005.207.207,0,0,0,.15-.2v-.115a.21.21,0,0,0-.064-.149,2.778,2.778,0,0,0-1.949-.839,3.529,3.529,0,0,0-2.069.782" fill="#fff"/>
    <path id="Path_84" data-name="Path 84" d="M359.917,273.468a.2.2,0,0,0-.1.127l-.025.079a.211.211,0,0,0,.033.181.192.192,0,0,0,.148.079.063.063,0,0,0,.03,0,.264.264,0,0,0,.116-.03.607.607,0,0,1,.146-.016,2.08,2.08,0,0,1,1.711,1.119l.009.015a.243.243,0,0,0,.153.123.309.309,0,0,0,.076.012.255.255,0,0,0,.121-.03l.015-.007a2.388,2.388,0,0,1,1.069-.265,1.637,1.637,0,0,1,1.094.35.3.3,0,0,0,.081.089.485.485,0,0,0,.076.037.236.236,0,0,0,.037.006.078.078,0,0,0,.022,0,.212.212,0,0,0,.2-.147l.02-.071a.184.184,0,0,0,.008-.058.205.205,0,0,0-.028-.1,1.8,1.8,0,0,0-1.625-.977,2.564,2.564,0,0,0-.863.162,2.1,2.1,0,0,0-1.617-.9,1.985,1.985,0,0,0-.9.227" fill="#fff"/>
    <path id="Path_85" data-name="Path 85" d="M354.852,277.155l.007.108a.2.2,0,0,0,.1.162.21.21,0,0,0,.162.025.2.2,0,0,0,.034-.012.249.249,0,0,0,.1-.077,1.777,1.777,0,0,1,.914-.207,2.968,2.968,0,0,1,1.895.716l.017.019a.285.285,0,0,0,.185.068h.017a.282.282,0,0,0,.189-.089l.016-.019a2.884,2.884,0,0,1,2.1-.971,1.429,1.429,0,0,1,.624.114.33.33,0,0,0,.125.065.294.294,0,0,0,.088.006.216.216,0,0,0,.05-.013.2.2,0,0,0,.137-.2l-.006-.093a.205.205,0,0,0-.072-.144,2.35,2.35,0,0,0-1.533-.6,2.855,2.855,0,0,0-1.794.742,3,3,0,0,0-1.6-.53,2.284,2.284,0,0,0-1.7.785.212.212,0,0,0-.056.153" fill="#fff"/>
    <path id="Path_86" data-name="Path 86" d="M342.723,279.08a2.6,2.6,0,0,1,2.6-2.6c.055,0,.111.005.166.008a3.514,3.514,0,1,1,6.663,1.8,3.927,3.927,0,0,1-.852,7.761l-5.243-.031a2.779,2.779,0,0,1-2.025-4.686,2.6,2.6,0,0,1-1.308-2.253" fill="#fff"/>
    <text id="VIDA" transform="translate(345.186 261.794)" fill="#fff" font-size="5.949" font-family="BebasNeue-Regular, Bebas Neue"><tspan x="0" y="0">VIDA</tspan></text>
    <text id="TERRESTRE" transform="translate(345.18 267.719)" fill="#fff" font-size="5.949" font-family="BebasNeue-Regular, Bebas Neue"><tspan x="0" y="0">TERRESTRE</tspan></text>
  </g>
</svg>
