<svg id="Group_437" data-name="Group 437" xmlns="http://www.w3.org/2000/svg" width="114.626" height="114.629" viewBox="0 0 114.626 114.629">
  <g id="Group_373" data-name="Group 373" transform="translate(0 0)">
    <rect id="Rectangle_121" data-name="Rectangle 121" width="114.626" height="114.629" transform="translate(0 0)" fill="#d10054"/>
    <path id="Path_339" data-name="Path 339" d="M41.064,262.035v17.71h3.889V256.611h-3.1l-3.582,4.2v4.063H38.3l2.729-2.834Z" transform="translate(-30.006 -247.014)" fill="#fff"/>
    <path id="Path_340" data-name="Path 340" d="M46.206,274.543V262.121c0-1.4.51-2.39,1.84-2.39,1.365,0,1.875.992,1.875,2.39v12.422c0,1.4-.51,2.387-1.875,2.387-1.33,0-1.84-.987-1.84-2.387m7.607-.614V262.735c0-3.616-1.808-6.242-5.767-6.242-3.92,0-5.732,2.626-5.732,6.242v11.193c0,3.583,1.813,6.244,5.732,6.244,3.959,0,5.767-2.661,5.767-6.244" transform="translate(-24.671 -247.169)" fill="#fff"/>
    <path id="Path_341" data-name="Path 341" d="M77.7,285.139H54.79a.25.25,0,0,0-.248.25v5.19a.249.249,0,0,0,.248.25H77.7a.246.246,0,0,0,.25-.25v-5.19a.248.248,0,0,0-.25-.25" transform="translate(-8.556 -209.417)" fill="#fff"/>
    <path id="Path_342" data-name="Path 342" d="M77.957,281.176a.252.252,0,0,0-.25-.25H54.791a.252.252,0,0,0-.25.25v5.194a.251.251,0,0,0,.25.25H77.706a.251.251,0,0,0,.25-.25Z" transform="translate(-8.557 -214.969)" fill="#fff"/>
    <path id="Path_343" data-name="Path 343" d="M100.788,295.222a26.413,26.413,0,0,0-4.914-10.02l-.049.039a25.177,25.177,0,0,1,1.959,3.477,24.33,24.33,0,0,1-41.106,25.863,22.965,22.965,0,0,1,33.338-31.308c.049.044.1.09.146.132a.852.852,0,0,0,.522.188.9.9,0,0,0,.575-.22l.09-.093,2.914-2.876.195-.192a.872.872,0,0,0,.185-.517.9.9,0,0,0-.234-.593c-.03-.025-.063-.051-.093-.081a28.211,28.211,0,1,0-36.243,43.2,26.616,26.616,0,0,0,42.714-27" transform="translate(-18.132 -226.982)" fill="#fff"/>
    <g id="Group_370" data-name="Group 370" transform="translate(36.805 9.305)">
      <g id="Group_369" data-name="Group 369">
        <path id="Path_344" data-name="Path 344" d="M50.581,256.544h2.248c1.572,0,2.248.732,2.248,2.221v.6c0,.992-.318,1.627-.994,1.9v.03c.76.234,1.008.95,1.008,2.04v1.7a2.855,2.855,0,0,0,.165,1.173H53.71a3.009,3.009,0,0,1-.137-1.184V263.25c0-.9-.262-1.187-.953-1.187H52.1V266.2H50.581Zm2.068,4.137c.566,0,.911-.246.911-1.018v-.746c0-.688-.234-.992-.772-.992H52.1v2.756Z" transform="translate(-50.581 -256.407)" fill="#fff"/>
        <path id="Path_345" data-name="Path 345" d="M52.978,256.544h4.14v1.381H54.5v2.55H56.58v1.379H54.5v2.967h2.622V266.2h-4.14Z" transform="translate(-47.422 -256.407)" fill="#fff"/>
        <path id="Path_346" data-name="Path 346" d="M55.138,256.544h2.316c1.518,0,2.262.841,2.262,2.387v4.884c0,1.544-.744,2.385-2.262,2.385H55.138Zm2.288,8.277c.482,0,.772-.248.772-.939v-5.021c0-.691-.29-.936-.772-.936h-.772v6.9Z" transform="translate(-44.575 -256.407)" fill="#fff"/>
        <path id="Path_347" data-name="Path 347" d="M57.529,263.91v-7.366h1.516v7.478c0,.691.29.939.772.939s.774-.248.774-.939v-7.478h1.46v7.366c0,1.546-.772,2.429-2.26,2.429S57.529,265.456,57.529,263.91Z" transform="translate(-41.424 -256.407)" fill="#fff"/>
        <path id="Path_348" data-name="Path 348" d="M59.813,264.849l2.814-6.924H59.95v-1.381h4.3V257.9l-2.814,6.924h2.814V266.2H59.813Z" transform="translate(-38.414 -256.407)" fill="#fff"/>
        <path id="Path_349" data-name="Path 349" d="M62.1,256.544h1.516V266.2H62.1Z" transform="translate(-35.404 -256.407)" fill="#fff"/>
        <path id="Path_350" data-name="Path 350" d="M63.239,256.544h2.248c1.574,0,2.248.732,2.248,2.221v.6c0,.992-.318,1.627-.994,1.9v.03c.76.234,1.008.95,1.008,2.04v1.7a2.856,2.856,0,0,0,.165,1.173H66.37a2.945,2.945,0,0,1-.139-1.184V263.25c0-.9-.262-1.187-.953-1.187h-.524V266.2H63.239Zm2.07,4.137c.563,0,.909-.246.909-1.018v-.746c0-.688-.234-.992-.772-.992h-.691v2.756Z" transform="translate(-33.899 -256.407)" fill="#fff"/>
        <path id="Path_351" data-name="Path 351" d="M67.989,256.544h2.056l1.572,9.656H70.1l-.273-1.917v.028H68.1l-.276,1.889H66.415ZM69.644,263l-.677-4.77h-.025L68.279,263Z" transform="translate(-29.713 -256.407)" fill="#fff"/>
        <path id="Path_352" data-name="Path 352" d="M68.86,263.988v-.549h1.435v.661c0,.691.3.939.786.939s.788-.248.788-.966c0-.8-.3-1.31-1.3-2.179-1.268-1.117-1.683-1.905-1.683-3.006a2.11,2.11,0,0,1,2.262-2.4c1.477,0,2.207.881,2.207,2.427v.4H71.922v-.5c0-.686-.276-.95-.758-.95s-.758.264-.758.925c0,.7.315,1.212,1.31,2.081,1.27,1.119,1.669,1.891,1.669,3.09a2.142,2.142,0,0,1-2.288,2.457C69.6,266.417,68.86,265.534,68.86,263.988Z" transform="translate(-26.491 -256.485)" fill="#fff"/>
      </g>
    </g>
    <g id="Group_372" data-name="Group 372" transform="translate(36.805 22.927)">
      <g id="Group_371" data-name="Group 371">
        <path id="Path_353" data-name="Path 353" d="M50.581,262.421H52.9c1.518,0,2.262.841,2.262,2.387v4.884c0,1.544-.744,2.385-2.262,2.385H50.581Zm2.29,8.277c.482,0,.772-.248.772-.939v-5.021c0-.691-.29-.936-.772-.936H52.1v6.9Z" transform="translate(-50.581 -262.284)" fill="#fff"/>
        <path id="Path_354" data-name="Path 354" d="M53,262.421h4.137V263.8H54.512v2.55H56.6v1.379H54.512V270.7h2.622v1.379H53Z" transform="translate(-47.398 -262.284)" fill="#fff"/>
        <path id="Path_355" data-name="Path 355" d="M55.042,269.865v-.549h1.435v.661c0,.691.3.939.786.939s.786-.248.786-.967c0-.8-.3-1.31-1.3-2.179-1.27-1.117-1.683-1.905-1.683-3.006a2.11,2.11,0,0,1,2.262-2.4c1.474,0,2.207.881,2.207,2.427v.4H58.1v-.5c0-.686-.276-.95-.76-.95s-.758.264-.758.925c0,.7.318,1.212,1.312,2.082,1.268,1.12,1.669,1.891,1.669,3.09a2.143,2.143,0,0,1-2.29,2.457C55.786,272.294,55.042,271.411,55.042,269.865Z" transform="translate(-44.702 -262.362)" fill="#fff"/>
        <path id="Path_356" data-name="Path 356" d="M57.368,262.421h1.516v9.656H57.368Z" transform="translate(-41.636 -262.284)" fill="#fff"/>
        <path id="Path_357" data-name="Path 357" d="M58.462,269.865v-5.076c0-1.546.774-2.427,2.262-2.427s2.262.881,2.262,2.427v.83H61.552v-.927c0-.686-.3-.95-.786-.95s-.786.264-.786.95v5.285c0,.691.3.939.786.939s.786-.248.786-.939v-1.891h-.758v-1.377h2.193v3.157c0,1.546-.772,2.429-2.262,2.429S58.462,271.411,58.462,269.865Z" transform="translate(-40.195 -262.362)" fill="#fff"/>
        <path id="Path_358" data-name="Path 358" d="M60.812,269.787v-7.366H62.33V269.9c0,.691.287.939.772.939s.772-.248.772-.939v-7.478h1.463v7.366c0,1.546-.772,2.429-2.262,2.429S60.812,271.333,60.812,269.787Z" transform="translate(-37.097 -262.284)" fill="#fff"/>
        <path id="Path_359" data-name="Path 359" d="M64.627,262.421h2.056l1.572,9.656H66.736l-.274-1.917v.028H64.738l-.278,1.889h-1.4Zm1.655,6.455-.675-4.77h-.028l-.663,4.77Z" transform="translate(-34.141 -262.284)" fill="#fff"/>
        <path id="Path_360" data-name="Path 360" d="M65.613,262.421h1.516V270.7h2.5v1.379H65.613Z" transform="translate(-30.77 -262.284)" fill="#fff"/>
        <path id="Path_361" data-name="Path 361" d="M67.659,262.421h2.316c1.518,0,2.262.841,2.262,2.387v4.884c0,1.544-.744,2.385-2.262,2.385H67.659Zm2.288,8.277c.482,0,.772-.248.772-.939v-5.021c0-.691-.29-.936-.772-.936h-.772v6.9Z" transform="translate(-28.074 -262.284)" fill="#fff"/>
        <path id="Path_362" data-name="Path 362" d="M71.473,262.421h2.056l1.572,9.656H73.584l-.276-1.917v.028H71.584l-.276,1.889H69.9Zm1.655,6.455-.675-4.77h-.028l-.663,4.77Z" transform="translate(-25.119 -262.284)" fill="#fff"/>
        <path id="Path_363" data-name="Path 363" d="M72.459,262.421h2.316c1.518,0,2.262.841,2.262,2.387v4.884c0,1.544-.744,2.385-2.262,2.385H72.459Zm2.29,8.277c.482,0,.772-.248.772-.939v-5.021c0-.691-.29-.936-.772-.936h-.774v6.9Z" transform="translate(-21.748 -262.284)" fill="#fff"/>
        <path id="Path_364" data-name="Path 364" d="M74.874,262.421h4.14V263.8H76.392v2.55h2.084v1.379H76.392V270.7h2.622v1.379h-4.14Z" transform="translate(-18.565 -262.284)" fill="#fff"/>
        <path id="Path_365" data-name="Path 365" d="M76.92,269.865v-.549h1.435v.661c0,.691.3.939.786.939s.788-.248.788-.967c0-.8-.3-1.31-1.3-2.179-1.268-1.117-1.683-1.905-1.683-3.006a2.11,2.11,0,0,1,2.262-2.4c1.477,0,2.207.881,2.207,2.427v.4H79.984v-.5c0-.686-.278-.95-.76-.95s-.758.264-.758.925c0,.7.315,1.212,1.31,2.082,1.27,1.12,1.669,1.891,1.669,3.09a2.143,2.143,0,0,1-2.29,2.457C77.666,272.294,76.92,271.411,76.92,269.865Z" transform="translate(-15.869 -262.362)" fill="#fff"/>
      </g>
    </g>
  </g>
</svg>
