<svg xmlns="http://www.w3.org/2000/svg" width="49.341" height="49.343" viewBox="0 0 49.341 49.343">
  <g id="Group_3" data-name="Group 3" transform="translate(-157.116 -195.215)">
    <rect id="Rectangle_3" data-name="Rectangle 3" width="49.341" height="49.343" transform="translate(157.116 195.215)" fill="#4c8e32"/>
    <path id="Path_20" data-name="Path 20" d="M164.157,209.433a2.1,2.1,0,0,0,2.422-2.275v-1.467A1.53,1.53,0,0,0,165.346,204a1.59,1.59,0,0,0,1.144-1.614v-.866a2,2,0,0,0-2.215-2.273c-1.733,0-2.334,1.027-2.334,2.494v.88h1.527v-1.012c0-.617.19-.969.719-.969s.718.352.718.895v1.072c0,.529-.351.806-.894.806h-.631v1.278h.705c.586,0,.82.277.82.806v1.644c0,.527-.234.9-.748.9-.571,0-.777-.382-.777-.969v-1.423h-1.526v1.306c0,1.511.6,2.48,2.3,2.48" fill="#fff"/>
    <path id="Path_21" data-name="Path 21" d="M198.36,226.052a2.318,2.318,0,0,0-2.241-2.513,3.472,3.472,0,0,0-1.931,1.193c-.44-.455-1.2-1.195-1.876-1.195a2.361,2.361,0,0,0-2.295,2.515,2.538,2.538,0,0,0,.717,1.777l3.459,3.465,3.453-3.46,0,0a2.545,2.545,0,0,0,.717-1.779" fill="#fff"/>
    <path id="Path_22" data-name="Path 22" d="M183.634,236.952a.223.223,0,0,1-.036,0,.564.564,0,0,1-.524-.47l-1.758-10.232-2.66,4.934a.569.569,0,0,1-1.063-.189l-1.129-7.9-2.067,4.643a.568.568,0,0,1-.519.337h-8.034a.568.568,0,1,1,0-1.136h7.664l2.72-6.108a.567.567,0,0,1,1.08.151l1.166,8.144,2.625-4.867a.568.568,0,0,1,1.059.173l1.626,9.476,5.931-19.7a.568.568,0,0,1,1.056-.083l3.119,6.468a.567.567,0,1,1-1.022.493l-2.487-5.152-6.2,20.609a.569.569,0,0,1-.543.4" fill="#fff"/>
    <text id="SAÚDE_" data-name="SAÚDE " transform="translate(171.062 203.381)" fill="#fff" font-size="5.949" font-family="BebasNeue-Regular, Bebas Neue"><tspan x="0" y="0">SAÚDE </tspan></text>
    <text id="E" transform="translate(183.53 203.381)" fill="#fff" font-size="5.949" font-family="BebasNeue-Regular, Bebas Neue"><tspan x="0" y="0">E</tspan></text>
    <text id="BEM-ESTAR" transform="translate(171.062 209.204)" fill="#fff" font-size="5.949" font-family="BebasNeue-Regular, Bebas Neue"><tspan x="0" y="0">BEM-ESTAR</tspan></text>
  </g>
</svg>
