<svg xmlns="http://www.w3.org/2000/svg" width="49.451" height="49.454" viewBox="0 0 49.451 49.454">
  <g id="Group_12" data-name="Group 12" transform="translate(-157.233 -253.729)">
    <rect id="Rectangle_13" data-name="Rectangle 13" width="49.451" height="49.454" transform="translate(157.233 253.729)" fill="#b5791c"/>
    <path id="Path_68" data-name="Path 68" d="M162.17,260.227h.016v7.633h1.676V257.89h-1.341l-1.543,1.808v1.75h.014Z" fill="#fff"/>
    <path id="Path_69" data-name="Path 69" d="M164.861,259.949v1.2h1.53V259.9c0-.6.294-.779.647-.779.324,0,.6.132.6.751v.823a1.97,1.97,0,0,1-.618,1.72l-.94,1a3.479,3.479,0,0,0-1.251,2.6v1.839h4.353v-1.368h-2.751v-.471a1.9,1.9,0,0,1,.707-1.529l1.073-1.132a3.135,3.135,0,0,0,1.059-2.515v-.971c0-1.426-.69-2.1-2.19-2.1a1.969,1.969,0,0,0-2.221,2.177" fill="#fff"/>
    <path id="Path_70" data-name="Path 70" d="M195.5,280.221a8.932,8.932,0,0,0-5.381-1.765,5.867,5.867,0,0,0-1.3.125l-.134.032a9.673,9.673,0,0,0-5.9,3.894l-.074.091a.322.322,0,0,0-.062.186.332.332,0,0,0,.044.165l.057.092q.616,1.031,1.024,1.79a.328.328,0,0,0,.531.076c.017-.023.036-.047.047-.066,2.15-2.974,3.835-3.369,4.949-3.631l.138-.033a3.239,3.239,0,0,1,.683-.058,6.317,6.317,0,0,1,3.726,1.2A5.628,5.628,0,0,1,195.733,287c0,3.556-1.721,4.942-3.165,5.481a5.062,5.062,0,0,1-1.764.31,6.289,6.289,0,0,1-2.646-.6l-.1-.051c-1.241-.539-3.1-1.662-4.848-5.183-3.593-7.216-6.611-7.9-8.61-8.354l-.1-.023a6,6,0,0,0-1.289-.116,8.582,8.582,0,0,0-5.291,1.751c-1.3,1.04-2.857,3.059-2.857,6.772a7.845,7.845,0,0,0,7.966,8.326,9.792,9.792,0,0,0,1.827-.178,7.787,7.787,0,0,0,3.114-1.424l1.051.948a.312.312,0,0,0,.426-.019.281.281,0,0,0,.077-.2l.813-5.009v-.058a.294.294,0,0,0-.1-.218.288.288,0,0,0-.21-.078h0l-4.875,1.348-.093.016a.285.285,0,0,0-.156.089.3.3,0,0,0-.078.221.3.3,0,0,0,.1.208l1.011.913a4.738,4.738,0,0,1-1.579.641,6.76,6.76,0,0,1-1.293.128,5.279,5.279,0,0,1-4.178-1.89l-.027-.037a5.358,5.358,0,0,1-1.125-3.727,5.666,5.666,0,0,1,1.851-4.687,6.13,6.13,0,0,1,3.634-1.176,3.4,3.4,0,0,1,.691.058l.108.024c1.6.361,3.781.856,6.81,6.94,1.6,3.212,3.606,5.313,6.127,6.42a9.021,9.021,0,0,0,3.862.9,7.689,7.689,0,0,0,2.7-.478c1.472-.55,4.9-2.428,4.9-7.981,0-3.712-1.576-5.735-2.9-6.78" fill="#fff"/>
    <text id="CONSUMO_e_" data-name="CONSUMO e " transform="translate(172.872 261.909)" fill="#fff" font-size="5.949" font-family="BebasNeue-Regular, Bebas Neue"><tspan x="0" y="0">CONSUMO e </tspan></text>
    <text id="PRODUÇÃO" transform="translate(172.872 267.847)" fill="#fff" font-size="5.949" font-family="BebasNeue-Regular, Bebas Neue"><tspan x="0" y="0">PRODUÇÃO</tspan></text>
    <text id="RESPONSÁVEIs" transform="translate(172.872 273.784)" fill="#fff" font-size="5.949" font-family="BebasNeue-Regular, Bebas Neue"><tspan x="0" y="0">RESPONSÁVEIs</tspan></text>
  </g>
</svg>
