<svg id="Group_428" data-name="Group 428" xmlns="http://www.w3.org/2000/svg" width="114.395" height="114.395" viewBox="0 0 114.395 114.395">
  <rect id="Rectangle_120" data-name="Rectangle 120" width="114.395" height="114.395" transform="translate(0 0)" fill="#ee511d"/>
  <path id="Path_303" data-name="Path 303" d="M506.084,207.52c-.07,1.291-.614,2.109-1.836,2.109-1.326,0-1.836-.818-1.836-2.313V203.3c0-1.46.54-2.311,1.868-2.311,1.291,0,1.8.883,1.8,2.311Zm3.841-3.537c0-3.572-1.565-6.152-5.644-6.152-4.117,0-5.711,2.241-5.711,5.813v3.4c0,3.774,1.493,5.679,4.284,5.679a3.323,3.323,0,0,0,3.2-1.873h.035v4.963c0,1.4-.547,2.383-1.938,2.383s-1.905-.818-1.905-2.244v-1.53H498.7v1.224c0,3.4,1.224,5.779,5.512,5.779,4.075,0,5.709-2.619,5.709-6.221Z" transform="translate(-488.972 -188.592)" fill="#fff"/>
  <path id="Path_304" data-name="Path 304" d="M560.227,260.618l-11.478,6.622V253.991l11.478-6.627ZM522.31,267.24V255l10.6,6.122Zm-1.743,0-11.478-6.622V247.364l11.478,6.627Zm12.348-36.653-10.6,6.126V224.468Zm14.091,6.126-10.6-6.126,10.6-6.119Zm-10.6,9.142,11.474-6.625,11.476,6.625-11.476,6.627Zm-2.619-1.514-10.6-6.119,10.6-6.122Zm12.348-6.119-10.6,6.119V232.1Zm-12.348,21.39-10.6-6.122,10.6-6.126ZM561.536,245.1l-12.788-7.378V222.957a.873.873,0,0,0-.436-.756L535.1,214.568a.889.889,0,0,0-.874,0L521,222.2a.873.873,0,0,0-.436.756v14.765L507.782,245.1a.869.869,0,0,0-.436.756v15.266a.872.872,0,0,0,.436.756L521,269.51a.874.874,0,0,0,.433.116.891.891,0,0,0,.438-.116l12.783-7.383,12.783,7.383a.877.877,0,0,0,.871,0l13.224-7.633a.872.872,0,0,0,.436-.756V245.855a.869.869,0,0,0-.436-.756" transform="translate(-477.405 -166.685)" fill="#fff"/>
  <g id="Group_366" data-name="Group 366" transform="translate(27.206 6.805)">
    <g id="Group_365" data-name="Group 365" transform="translate(0 0)">
      <path id="Path_305" data-name="Path 305" d="M506.166,197.663h1.388V206.5h-1.388Z" transform="translate(-506.166 -195.619)" fill="#fff"/>
      <path id="Path_306" data-name="Path 306" d="M507.213,197.663h1.741l1.351,5.292h.026v-5.292h1.238V206.5h-1.426l-1.667-6.451h-.028V206.5h-1.235Z" transform="translate(-504.786 -195.619)" fill="#fff"/>
      <path id="Path_307" data-name="Path 307" d="M509.541,197.663h2.121c1.388,0,2.072.77,2.072,2.186v4.469c0,1.414-.684,2.183-2.072,2.183h-2.121Zm2.1,7.575c.44,0,.7-.225.7-.858v-4.6c0-.63-.264-.858-.7-.858h-.709v6.312Z" transform="translate(-501.718 -195.619)" fill="#fff"/>
      <path id="Path_308" data-name="Path 308" d="M511.732,205.568v-6.743h1.388v6.842c0,.633.267.86.707.86s.709-.227.709-.86v-6.842h1.337v6.743c0,1.414-.707,2.223-2.072,2.223S511.732,206.982,511.732,205.568Zm2.2-8.787h1.514l-1.349,1.451h-1.048Z" transform="translate(-498.83 -196.781)" fill="#fff"/>
      <path id="Path_309" data-name="Path 309" d="M513.843,204.477v-.505h1.314v.6c0,.633.278.86.719.86s.721-.227.721-.883c0-.732-.281-1.2-1.189-2a3.425,3.425,0,0,1-1.539-2.754,1.93,1.93,0,0,1,2.07-2.2c1.351,0,2.021.807,2.021,2.223v.364h-1.314v-.454c0-.63-.253-.869-.7-.869s-.7.239-.7.844c0,.644.292,1.113,1.2,1.908a3.41,3.41,0,0,1,1.528,2.828,1.96,1.96,0,0,1-2.1,2.248C514.524,206.7,513.843,205.891,513.843,204.477Z" transform="translate(-496.048 -195.69)" fill="#fff"/>
      <path id="Path_310" data-name="Path 310" d="M517.268,198.926h-1.451v-1.263h4.293v1.263h-1.453V206.5h-1.388Z" transform="translate(-493.447 -195.619)" fill="#fff"/>
      <path id="Path_311" data-name="Path 311" d="M517.959,197.663h2.058c1.44,0,2.058.67,2.058,2.033v.545c0,.909-.29,1.488-.909,1.741v.026c.693.216.923.872.923,1.868v1.553a2.554,2.554,0,0,0,.151,1.073h-1.414a2.646,2.646,0,0,1-.128-1.085V203.8c0-.823-.241-1.087-.872-1.087h-.48V206.5h-1.388Zm1.894,3.787c.517,0,.834-.227.834-.934v-.681c0-.63-.215-.909-.709-.909h-.63v2.524Z" transform="translate(-490.624 -195.619)" fill="#fff"/>
      <path id="Path_312" data-name="Path 312" d="M520.157,197.663h1.386V206.5h-1.386Z" transform="translate(-487.727 -195.619)" fill="#fff"/>
      <path id="Path_313" data-name="Path 313" d="M522.484,197.663h1.882l1.439,8.838h-1.391l-.25-1.755v.026h-1.581l-.25,1.729h-1.289ZM524,203.574l-.619-4.369h-.025l-.6,4.369Z" transform="translate(-486.557 -195.619)" fill="#fff"/>
      <path id="Path_314" data-name="Path 314" d="M523.843,202.236h-.454V200.9h1.337v1.2l-.7,1.655h-.642Z" transform="translate(-483.468 -191.354)" fill="#fff"/>
      <path id="Path_315" data-name="Path 315" d="M506.166,203.063h1.388V211.9h-1.388Z" transform="translate(-506.166 -188.502)" fill="#fff"/>
      <path id="Path_316" data-name="Path 316" d="M507.213,203.063h1.741l1.351,5.289h.026v-5.289h1.238V211.9h-1.426l-1.667-6.451h-.028V211.9h-1.235Z" transform="translate(-504.786 -188.502)" fill="#fff"/>
      <path id="Path_317" data-name="Path 317" d="M509.5,209.877v-4.645a2.112,2.112,0,1,1,4.219,0v4.645a2.112,2.112,0,1,1-4.219,0Zm2.83.088v-4.824c0-.63-.278-.872-.719-.872s-.721.241-.721.872v4.824c0,.63.276.872.721.872S512.327,210.6,512.327,209.965Z" transform="translate(-501.776 -188.573)" fill="#fff"/>
      <path id="Path_318" data-name="Path 318" d="M511.564,203.063h1.4l.911,6.856h.026l.909-6.856h1.275l-1.337,8.838H512.9Z" transform="translate(-499.052 -188.502)" fill="#fff"/>
      <path id="Path_319" data-name="Path 319" d="M515.086,203.063h1.88l1.442,8.838h-1.391l-.25-1.755v.026h-1.581l-.253,1.729h-1.287Zm1.514,5.911-.617-4.369h-.026l-.607,4.369Z" transform="translate(-496.307 -188.502)" fill="#fff"/>
      <path id="Path_320" data-name="Path 320" d="M518.731,206.115V205.09c0-.579-.278-.821-.7-.821s-.7.241-.7.821v4.937c0,.582.278.809.7.809s.7-.227.7-.809v-1.351h1.312v1.252a1.9,1.9,0,0,1-1.718,2.158v.38c.556,0,.872.151.872.591,0,.684-.531.772-1.289.772-.7,0-1.21-.151-1.21-.732v-.127h.934v.1a.244.244,0,0,0,.276.253c.229,0,.329-.088.329-.3,0-.239-.153-.327-.466-.327h-.065v-.607a1.9,1.9,0,0,1-1.755-2.158v-4.747a2.049,2.049,0,1,1,4.091,0v.934Z" transform="translate(-493.269 -188.573)" fill="#fff"/>
      <path id="Path_321" data-name="Path 321" d="M519.359,204.254h1.882l1.439,8.838H521.29l-.25-1.755v.026h-1.581l-.25,1.729H517.92Zm-.807-.946c.313-.709.668-1.062,1.147-1.062a1.367,1.367,0,0,1,.758.241.863.863,0,0,0,.431.162c.2,0,.338-.139.5-.491l.67.4c-.315.707-.67,1.062-1.15,1.062a1.387,1.387,0,0,1-.758-.241.86.86,0,0,0-.426-.165c-.2,0-.343.141-.508.494Zm2.323,6.856-.619-4.369h-.025l-.6,4.369Z" transform="translate(-490.675 -189.693)" fill="#fff"/>
      <path id="Path_322" data-name="Path 322" d="M520.221,209.877v-4.645a2.111,2.111,0,1,1,4.216,0v4.645a2.111,2.111,0,1,1-4.216,0Zm2.83.088v-4.824c0-.63-.278-.872-.721-.872s-.719.241-.719.872v4.824c0,.63.276.872.719.872S523.051,210.6,523.051,209.965Z" transform="translate(-487.643 -188.573)" fill="#fff"/>
      <path id="Path_323" data-name="Path 323" d="M523.319,203.063H527.1v1.263h-2.4v2.334h1.91v1.263h-1.91v2.714h2.4V211.9h-3.785Z" transform="translate(-483.56 -188.502)" fill="#fff"/>
    </g>
  </g>
  <g id="Group_368" data-name="Group 368" transform="translate(27.206 33.558)">
    <g id="Group_367" data-name="Group 367" transform="translate(0 0)">
      <path id="Path_324" data-name="Path 324" d="M506.166,208.378h1.388v8.838h-1.388Z" transform="translate(-506.166 -208.251)" fill="#fff"/>
      <path id="Path_325" data-name="Path 325" d="M507.213,208.378h1.741l1.351,5.289h.026v-5.289h1.238v8.838h-1.426l-1.667-6.453h-.028v6.453h-1.235Z" transform="translate(-504.786 -208.251)" fill="#fff"/>
      <path id="Path_326" data-name="Path 326" d="M509.541,208.378h3.674v1.261h-2.285V212.1h1.792v1.261h-1.792v3.852h-1.388Z" transform="translate(-501.718 -208.251)" fill="#fff"/>
      <path id="Path_327" data-name="Path 327" d="M511.416,208.378h2.058c1.439,0,2.058.668,2.058,2.033v.542c0,.909-.29,1.49-.909,1.741v.026c.693.216.923.871.923,1.868v1.555a2.566,2.566,0,0,0,.151,1.073h-1.414a2.664,2.664,0,0,1-.127-1.087v-1.616c0-.821-.241-1.087-.872-1.087h-.48v3.79h-1.389Zm1.894,3.785c.517,0,.834-.225.834-.932v-.684c0-.63-.216-.909-.709-.909h-.63v2.524Z" transform="translate(-499.247 -208.251)" fill="#fff"/>
      <path id="Path_328" data-name="Path 328" d="M514.9,208.378h1.88l1.439,8.838h-1.388l-.253-1.757v.028h-1.581l-.25,1.729h-1.289Zm1.513,5.908-.619-4.369h-.025l-.6,4.369Z" transform="translate(-496.56 -208.251)" fill="#fff"/>
      <path id="Path_329" data-name="Path 329" d="M515.8,208.378h3.788v1.261h-2.4v2.336H519.1v1.263h-1.908v2.714h2.4v1.263H515.8Z" transform="translate(-493.469 -208.251)" fill="#fff"/>
      <path id="Path_330" data-name="Path 330" d="M517.675,215.191v-.5h1.314v.6c0,.63.278.858.719.858s.721-.227.721-.883c0-.732-.278-1.2-1.189-2-1.161-1.022-1.539-1.741-1.539-2.751a1.932,1.932,0,0,1,2.07-2.2c1.351,0,2.021.809,2.021,2.223v.366h-1.314v-.457c0-.63-.253-.869-.7-.869s-.693.239-.693.846c0,.644.29,1.11,1.2,1.905a3.414,3.414,0,0,1,1.527,2.83,1.959,1.959,0,0,1-2.1,2.246C518.356,217.414,517.675,216.607,517.675,215.191Z" transform="translate(-490.998 -208.323)" fill="#fff"/>
      <path id="Path_331" data-name="Path 331" d="M521.1,209.639h-1.451v-1.261h4.293v1.261h-1.453v7.577H521.1Z" transform="translate(-488.397 -208.251)" fill="#fff"/>
      <path id="Path_332" data-name="Path 332" d="M521.792,208.378h2.058c1.44,0,2.058.668,2.058,2.033v.542c0,.909-.29,1.49-.909,1.741v.026c.693.216.922.871.922,1.868v1.555a2.566,2.566,0,0,0,.151,1.073h-1.414a2.663,2.663,0,0,1-.127-1.087v-1.616c0-.821-.241-1.087-.871-1.087h-.48v3.79h-1.388Zm1.894,3.785c.517,0,.834-.225.834-.932v-.684c0-.63-.216-.909-.709-.909h-.63v2.524Z" transform="translate(-485.572 -208.251)" fill="#fff"/>
      <path id="Path_333" data-name="Path 333" d="M523.966,215.118v-6.74h1.391v6.842c0,.63.264.858.7.858s.709-.227.709-.858v-6.842h1.337v6.74c0,1.416-.7,2.223-2.07,2.223S523.966,216.535,523.966,215.118Z" transform="translate(-482.707 -208.251)" fill="#fff"/>
      <path id="Path_334" data-name="Path 334" d="M527.474,209.639h-1.451v-1.261h4.291v1.261h-1.451v7.577h-1.388Z" transform="translate(-479.996 -208.251)" fill="#fff"/>
      <path id="Path_335" data-name="Path 335" d="M528.143,215.118v-6.74h1.391v6.842c0,.63.264.858.7.858s.709-.227.709-.858v-6.842h1.337v6.74c0,1.416-.707,2.223-2.072,2.223S528.143,216.535,528.143,215.118Z" transform="translate(-477.202 -208.251)" fill="#fff"/>
      <path id="Path_336" data-name="Path 336" d="M530.357,208.378h2.056c1.442,0,2.058.668,2.058,2.033v.542c0,.909-.29,1.49-.906,1.741v.026c.691.216.92.871.92,1.868v1.555a2.6,2.6,0,0,0,.151,1.073h-1.414a2.705,2.705,0,0,1-.127-1.087v-1.616c0-.821-.239-1.087-.872-1.087h-.48v3.79h-1.386Zm1.891,3.785c.519,0,.837-.225.837-.932v-.684c0-.63-.216-.909-.709-.909h-.633v2.524Z" transform="translate(-474.284 -208.251)" fill="#fff"/>
      <path id="Path_337" data-name="Path 337" d="M533.835,208.378h1.88l1.442,8.838h-1.391l-.25-1.757v.028h-1.581l-.25,1.729H532.4Zm1.513,5.908-.616-4.369h-.026l-.607,4.369Z" transform="translate(-471.597 -208.251)" fill="#fff"/>
      <path id="Path_338" data-name="Path 338" d="M534.637,215.191v-.5h1.312v.6c0,.63.28.858.721.858s.721-.227.721-.883c0-.732-.281-1.2-1.189-2-1.161-1.022-1.539-1.741-1.539-2.751a1.932,1.932,0,0,1,2.07-2.2c1.351,0,2.019.809,2.019,2.223v.366h-1.312v-.457c0-.63-.25-.869-.7-.869s-.7.239-.7.846c0,.644.292,1.11,1.2,1.905a3.414,3.414,0,0,1,1.528,2.83,1.959,1.959,0,0,1-2.1,2.246C535.318,217.414,534.637,216.607,534.637,215.191Z" transform="translate(-468.644 -208.323)" fill="#fff"/>
    </g>
  </g>
</svg>
