<svg id="Group_434" data-name="Group 434" xmlns="http://www.w3.org/2000/svg" width="114.623" height="114.629" viewBox="0 0 114.623 114.629">
  <rect id="Rectangle_124" data-name="Rectangle 124" width="114.623" height="114.629" transform="translate(0 0)" fill="#b5791c"/>
  <path id="Path_404" data-name="Path 404" d="M156.214,262.049h.036v17.693h3.885V256.632h-3.108l-3.576,4.192v4.057h.033Z" transform="translate(-144.77 -246.987)" fill="#fff"/>
  <path id="Path_405" data-name="Path 405" d="M157.375,261.559v2.8h3.546v-2.9c0-1.4.681-1.806,1.5-1.806.753,0,1.4.306,1.4,1.738V263.3c0,1.912-.167,2.661-1.432,3.989L160.2,269.6c-2.116,2.251-2.9,3.75-2.9,6.033v4.26h10.09v-3.171h-6.377v-1.089a4.413,4.413,0,0,1,1.639-3.546l2.487-2.624c2.014-2.149,2.455-3.512,2.455-5.829v-2.251c0-3.305-1.6-4.875-5.076-4.875-3.412,0-5.148,1.808-5.148,5.046" transform="translate(-139.693 -247.143)" fill="#fff"/>
  <path id="Path_406" data-name="Path 406" d="M228.1,281.287a20.713,20.713,0,0,0-12.473-4.089,13.6,13.6,0,0,0-3.009.29l-.311.072c-2.958.7-7.916,1.868-13.683,9.026l-.171.211a.745.745,0,0,0-.144.431.769.769,0,0,0,.1.383l.132.216q1.429,2.385,2.371,4.149a.762.762,0,0,0,1.233.174c.039-.053.083-.109.109-.151,4.984-6.9,8.889-7.811,11.471-8.416l.32-.076a7.507,7.507,0,0,1,1.583-.134,14.657,14.657,0,0,1,8.637,2.77c2.9,2.288,4.367,5.943,4.367,10.862,0,8.242-3.989,11.455-7.336,12.7a11.68,11.68,0,0,1-4.089.719,14.579,14.579,0,0,1-6.133-1.4l-.241-.118c-2.876-1.249-7.174-3.852-11.237-12.011-8.328-16.728-15.324-18.314-19.957-19.364l-.243-.053a13.685,13.685,0,0,0-2.988-.271,19.883,19.883,0,0,0-12.264,4.061c-3.02,2.408-6.622,7.088-6.622,15.7,0,5.245,1.082,8.713,3.852,12.354a18.437,18.437,0,0,0,14.612,6.942,22.686,22.686,0,0,0,4.235-.41,18.059,18.059,0,0,0,7.218-3.3l2.436,2.2a.726.726,0,0,0,.987-.042.658.658,0,0,0,.178-.466l1.884-11.608V302.5a.7.7,0,0,0-.714-.684h-.007l-11.3,3.122-.216.037a.679.679,0,0,0-.362.209.7.7,0,0,0-.181.51.688.688,0,0,0,.229.484l2.343,2.116a11.02,11.02,0,0,1-3.662,1.486,15.813,15.813,0,0,1-2.995.3,12.226,12.226,0,0,1-9.684-4.383l-.063-.086c-1.952-2.561-2.608-4.738-2.608-8.637,0-4.935,1.444-8.592,4.29-10.866a14.226,14.226,0,0,1,8.423-2.726,7.855,7.855,0,0,1,1.6.137l.25.056c3.7.837,8.764,1.984,15.785,16.084,3.709,7.445,8.358,12.315,14.2,14.883a20.946,20.946,0,0,0,8.952,2.077,17.876,17.876,0,0,0,6.249-1.108c3.412-1.275,11.355-5.628,11.355-18.5,0-8.6-3.653-13.293-6.72-15.715" transform="translate(-139.399 -219.882)" fill="#fff"/>
  <g id="Group_382" data-name="Group 382" transform="translate(36.816 7.015)">
    <g id="Group_381" data-name="Group 381" transform="translate(0 0)">
      <path id="Path_407" data-name="Path 407" d="M165.59,256.485h2.234c1.516,0,2.262.841,2.262,2.388v.95c0,1.546-.746,2.385-2.262,2.385h-.719v3.933H165.59Zm2.234,4.346c.482,0,.744-.222.744-.911v-1.145c0-.691-.262-.911-.744-.911h-.719v2.967Z" transform="translate(-165.59 -254.195)" fill="#fff"/>
      <path id="Path_408" data-name="Path 408" d="M167.886,256.485h2.246c1.574,0,2.251.73,2.251,2.221v.593c0,.992-.318,1.63-.994,1.9v.028c.758.234,1.006.953,1.006,2.042v1.7a2.828,2.828,0,0,0,.167,1.173h-1.546a3.025,3.025,0,0,1-.137-1.187v-1.766c0-.9-.262-1.187-.953-1.187H169.4v4.14h-1.516Zm2.068,4.14c.566,0,.911-.25.911-1.022v-.744c0-.691-.234-.994-.772-.994H169.4v2.761Z" transform="translate(-162.564 -254.195)" fill="#fff"/>
      <path id="Path_409" data-name="Path 409" d="M170.235,263.928v-5.074a2.307,2.307,0,1,1,4.608,0v5.074a2.307,2.307,0,1,1-4.608,0Zm3.09.1v-5.269c0-.688-.3-.95-.786-.95s-.786.262-.786.95v5.269c0,.691.3.953.786.953S173.325,264.716,173.325,264.025Z" transform="translate(-159.468 -254.274)" fill="#fff"/>
      <path id="Path_410" data-name="Path 410" d="M172.662,256.485h2.318c1.518,0,2.262.841,2.262,2.388v4.881c0,1.544-.744,2.387-2.262,2.387h-2.318Zm2.29,8.277c.482,0,.772-.248.772-.939V258.8c0-.691-.29-.939-.772-.939h-.772v6.9Z" transform="translate(-156.27 -254.195)" fill="#fff"/>
      <path id="Path_411" data-name="Path 411" d="M175.054,263.849v-7.364h1.516v7.475c0,.691.29.939.772.939s.774-.248.774-.939v-7.475h1.46v7.364c0,1.546-.772,2.429-2.26,2.429S175.054,265.4,175.054,263.849Z" transform="translate(-153.117 -254.195)" fill="#fff"/>
      <path id="Path_412" data-name="Path 412" d="M180.461,259.821V258.7c0-.633-.3-.895-.758-.895s-.76.262-.76.895v5.4c0,.633.3.881.76.881s.758-.248.758-.881v-1.476H181.9v1.365a2.074,2.074,0,0,1-1.875,2.357v.415c.6,0,.95.165.95.647,0,.746-.579.844-1.407.844-.758,0-1.324-.167-1.324-.8v-.139h1.02v.111a.267.267,0,0,0,.3.276c.248,0,.359-.1.359-.329,0-.262-.167-.359-.51-.359h-.07v-.663a2.07,2.07,0,0,1-1.917-2.357V258.8a2.239,2.239,0,1,1,4.469,0v1.022Z" transform="translate(-149.99 -254.274)" fill="#fff"/>
      <path id="Path_413" data-name="Path 413" d="M181.148,257.787H183.2l1.572,9.656h-1.518l-.276-1.917v.025h-1.725l-.276,1.891h-1.407Zm-.883-1.036c.343-.772.73-1.159,1.254-1.159a1.5,1.5,0,0,1,.828.264.942.942,0,0,0,.471.178c.22,0,.371-.153.552-.538l.73.443c-.345.772-.73,1.159-1.254,1.159a1.511,1.511,0,0,1-.83-.264.935.935,0,0,0-.468-.178c-.22,0-.371.153-.552.538Zm2.538,7.491-.677-4.773H182.1l-.661,4.773Z" transform="translate(-147.16 -255.497)" fill="#fff"/>
      <path id="Path_414" data-name="Path 414" d="M182.084,263.928v-5.074a2.307,2.307,0,1,1,4.608,0v5.074a2.307,2.307,0,1,1-4.608,0Zm3.09.1v-5.269c0-.688-.3-.95-.786-.95s-.786.262-.786.95v5.269c0,.691.3.953.786.953S185.174,264.716,185.174,264.025Z" transform="translate(-143.852 -254.274)" fill="#fff"/>
    </g>
  </g>
  <g id="Group_384" data-name="Group 384" transform="translate(36.816 22.932)">
    <g id="Group_383" data-name="Group 383" transform="translate(0)">
      <path id="Path_415" data-name="Path 415" d="M165.59,262.423h4.137V263.8h-2.622v2.55h2.084v1.379h-2.084V270.7h2.622v1.379H165.59Z" transform="translate(-165.59 -262.286)" fill="#fff"/>
      <path id="Path_416" data-name="Path 416" d="M168.659,269.923v-5.185a2.239,2.239,0,1,1,4.469,0v1.018h-1.435V264.64c0-.633-.3-.9-.76-.9s-.758.264-.758.9v5.394c0,.635.3.883.758.883s.76-.248.76-.883v-1.476h1.435v1.365a2.239,2.239,0,1,1-4.469,0Z" transform="translate(-161.545 -262.364)" fill="#fff"/>
      <path id="Path_417" data-name="Path 417" d="M170.931,269.867v-5.076a2.307,2.307,0,1,1,4.608,0v5.076a2.307,2.307,0,1,1-4.608,0Zm3.09.1v-5.271c0-.686-.3-.95-.786-.95s-.786.264-.786.95v5.271c0,.691.3.953.786.953S174.021,270.655,174.021,269.964Z" transform="translate(-158.551 -262.364)" fill="#fff"/>
      <path id="Path_418" data-name="Path 418" d="M173.358,262.423h1.905l1.474,5.781h.028v-5.781h1.351v9.656h-1.558l-1.822-7.049h-.028v7.049h-1.351Z" transform="translate(-155.352 -262.286)" fill="#fff"/>
      <path id="Path_419" data-name="Path 419" d="M175.785,269.867v-.549h1.435v.661c0,.691.3.939.786.939s.786-.248.786-.967c0-.8-.3-1.31-1.3-2.179-1.27-1.117-1.683-1.905-1.683-3.006a2.11,2.11,0,0,1,2.262-2.4c1.477,0,2.207.881,2.207,2.427v.4h-1.435v-.5c0-.686-.276-.95-.758-.95s-.758.264-.758.925c0,.7.315,1.212,1.31,2.082,1.268,1.12,1.669,1.891,1.669,3.09a2.143,2.143,0,0,1-2.29,2.457C176.529,272.3,175.785,271.413,175.785,269.867Z" transform="translate(-152.154 -262.364)" fill="#fff"/>
      <path id="Path_420" data-name="Path 420" d="M178.087,269.789v-7.366h1.518V269.9c0,.691.29.939.772.939s.774-.248.774-.939v-7.478h1.46v7.366c0,1.546-.772,2.429-2.262,2.429S178.087,271.335,178.087,269.789Z" transform="translate(-149.12 -262.286)" fill="#fff"/>
      <path id="Path_421" data-name="Path 421" d="M180.5,262.423h2.165l.967,6.912h.028l.967-6.912h2.165v9.656h-1.435v-7.311h-.028l-1.1,7.311h-1.27l-1.1-7.311h-.025v7.311H180.5Z" transform="translate(-145.937 -262.286)" fill="#fff"/>
      <path id="Path_422" data-name="Path 422" d="M183.655,269.867v-5.076a2.306,2.306,0,1,1,4.606,0v5.076a2.306,2.306,0,1,1-4.606,0Zm3.09.1v-5.271c0-.686-.3-.95-.786-.95s-.788.264-.788.95v5.271c0,.691.3.953.788.953S186.745,270.655,186.745,269.964Z" transform="translate(-141.782 -262.364)" fill="#fff"/>
    </g>
  </g>
  <g id="Group_386" data-name="Group 386" transform="translate(36.551 34.596)">
    <g id="Group_385" data-name="Group 385" transform="translate(0 0)">
      <path id="Path_423" data-name="Path 423" d="M165.476,275.8v-.549h1.437v.661c0,.691.3.939.784.939s.788-.248.788-.964c0-.8-.3-1.312-1.3-2.181-1.268-1.115-1.68-1.9-1.68-3.006a2.109,2.109,0,0,1,2.26-2.4c1.477,0,2.207.883,2.207,2.429v.4H168.54v-.5c0-.688-.276-.95-.76-.95s-.758.262-.758.923c0,.7.318,1.215,1.31,2.084,1.27,1.117,1.671,1.889,1.671,3.09a2.143,2.143,0,0,1-2.29,2.455C166.222,278.232,165.476,277.349,165.476,275.8Z" transform="translate(-165.476 -266.205)" fill="#fff"/>
      <path id="Path_424" data-name="Path 424" d="M167.779,275.724V268.36h1.516v7.475c0,.691.29.939.772.939s.774-.248.774-.939V268.36h1.46v7.364c0,1.546-.772,2.429-2.26,2.429S167.779,277.27,167.779,275.724Z" transform="translate(-162.441 -266.126)" fill="#fff"/>
      <path id="Path_425" data-name="Path 425" d="M170.08,275.8v-.549h1.437v.661c0,.691.3.939.783.939s.788-.248.788-.964c0-.8-.3-1.312-1.3-2.181-1.268-1.115-1.683-1.9-1.683-3.006a2.111,2.111,0,0,1,2.262-2.4c1.477,0,2.207.883,2.207,2.429v.4h-1.433v-.5c0-.688-.276-.95-.76-.95s-.758.262-.758.923c0,.7.318,1.215,1.31,2.084,1.27,1.117,1.671,1.889,1.671,3.09a2.144,2.144,0,0,1-2.292,2.455C170.826,278.232,170.08,277.349,170.08,275.8Z" transform="translate(-159.408 -266.205)" fill="#fff"/>
      <path id="Path_426" data-name="Path 426" d="M173.819,269.739h-1.585V268.36h4.689v1.379h-1.585v8.277h-1.518Z" transform="translate(-156.57 -266.126)" fill="#fff"/>
      <path id="Path_427" data-name="Path 427" d="M174.572,268.36h4.137v1.379h-2.622v2.552h2.084v1.379h-2.084v2.967h2.622v1.379h-4.137Z" transform="translate(-153.488 -266.126)" fill="#fff"/>
      <path id="Path_428" data-name="Path 428" d="M176.731,268.36h1.905l1.474,5.781h.028V268.36h1.351v9.656h-1.558l-1.822-7.049h-.028v7.049h-1.351Z" transform="translate(-150.643 -266.126)" fill="#fff"/>
      <path id="Path_429" data-name="Path 429" d="M180.686,269.739H179.1V268.36h4.689v1.379H182.2v8.277h-1.516Z" transform="translate(-147.523 -266.126)" fill="#fff"/>
      <path id="Path_430" data-name="Path 430" d="M182.836,269.63h2.056l1.572,9.656h-1.518l-.274-1.917v.025h-1.724l-.278,1.891h-1.4Zm1.173-2.234h1.655l-1.477,1.585h-1.145Zm.482,8.69-.675-4.773h-.028l-.663,4.773Z" transform="translate(-144.669 -267.396)" fill="#fff"/>
      <path id="Path_431" data-name="Path 431" d="M183.649,268.36h1.53l.994,7.489h.028l.992-7.489h1.393l-1.46,9.656h-2.014Z" transform="translate(-141.526 -266.126)" fill="#fff"/>
      <path id="Path_432" data-name="Path 432" d="M186.094,268.36h4.137v1.379H187.61v2.552h2.084v1.379H187.61v2.967h2.622v1.379h-4.137Z" transform="translate(-138.303 -266.126)" fill="#fff"/>
      <path id="Path_433" data-name="Path 433" d="M188.253,268.36h1.518v9.656h-1.518Z" transform="translate(-135.458 -266.126)" fill="#fff"/>
      <path id="Path_434" data-name="Path 434" d="M189.282,275.8v-.549h1.435v.661c0,.691.3.939.786.939s.786-.248.786-.964c0-.8-.3-1.312-1.3-2.181-1.268-1.115-1.683-1.9-1.683-3.006a2.111,2.111,0,0,1,2.262-2.4c1.477,0,2.207.883,2.207,2.429v.4h-1.435v-.5c0-.688-.276-.95-.758-.95s-.758.262-.758.923c0,.7.315,1.215,1.31,2.084,1.268,1.117,1.669,1.889,1.669,3.09a2.142,2.142,0,0,1-2.29,2.455C190.026,278.232,189.282,277.349,189.282,275.8Z" transform="translate(-134.102 -266.205)" fill="#fff"/>
    </g>
  </g>
</svg>
