<svg xmlns="http://www.w3.org/2000/svg" width="49.343" height="49.346" viewBox="0 0 49.343 49.346">
  <g id="Group_1" data-name="Group 1" transform="translate(-42.284 -195.607)">
    <rect id="Rectangle_1" data-name="Rectangle 1" width="49.343" height="49.346" transform="translate(42.284 195.607)" fill="#da062d"/>
    <path id="Path_1" data-name="Path 1" d="M49.172,202.1h.014v7.616H50.86v-9.949H49.523l-1.54,1.8v1.746H48Z" fill="#fff"/>
    <path id="Path_2" data-name="Path 2" d="M80.284,219.15a1.366,1.366,0,1,1,1.366,1.366,1.366,1.366,0,0,1-1.366-1.366" fill="#fff"/>
    <path id="Path_3" data-name="Path 3" d="M83.245,221.043a1.821,1.821,0,0,1,1.654,1.814v3.786a.53.53,0,1,1-1.06,0v-3.251c0-.122-.035-.287-.258-.287-.154,0-.187.163-.192.267v9.749a.762.762,0,0,1-1.523,0V227.5a.206.206,0,0,0-.216-.223.209.209,0,0,0-.22.223v5.619a.761.761,0,0,1-1.522,0v-9.749c0-.1-.038-.267-.19-.267-.225,0-.259.165-.259.287v3.251a.53.53,0,1,1-1.059,0v-3.786a1.822,1.822,0,0,1,1.656-1.814.737.737,0,0,1,.1-.008h2.985a.8.8,0,0,1,.1.008" fill="#fff"/>
    <path id="Path_4" data-name="Path 4" d="M72.16,219.868a1.293,1.293,0,1,0-1.292,1.293,1.293,1.293,0,0,0,1.292-1.293" fill="#fff"/>
    <path id="Path_5" data-name="Path 5" d="M68.261,222.8l-1.075,3.5s-.191.641.353.8.705-.466.705-.466l.868-2.922s.046-.225.216-.175.1.289.1.289L67.924,229.3h1.4v3.921a.674.674,0,0,0,1.347,0V229.3h.383v3.921a.675.675,0,0,0,1.349,0V229.3h1.4L72.3,223.826s-.064-.241.1-.289.216.175.216.175l.867,2.922s.165.627.706.466.352-.8.352-.8l-1.075-3.5s-.383-1.012-1.235-1.012H69.5c-.85,0-1.236,1.012-1.236,1.012" fill="#fff"/>
    <path id="Path_6" data-name="Path 6" d="M64.413,219.868a1.293,1.293,0,1,0-1.293,1.293,1.294,1.294,0,0,0,1.293-1.293" fill="#fff"/>
    <path id="Path_7" data-name="Path 7" d="M60.513,222.8l-1.075,3.5s-.192.641.353.8.7-.466.7-.466l.867-2.922s.047-.225.216-.175.106.289.106.289L60.176,229.3h1.4v3.921a.674.674,0,0,0,1.348,0V229.3h.384v3.921a.674.674,0,0,0,1.348,0V229.3h1.4l-1.508-5.475s-.064-.241.1-.289.216.175.216.175l.866,2.922s.165.627.706.466.353-.8.353-.8l-1.075-3.5s-.384-1.012-1.235-1.012H61.749c-.851,0-1.236,1.012-1.236,1.012" fill="#fff"/>
    <path id="Path_8" data-name="Path 8" d="M76.5,227.107a1.077,1.077,0,1,0-1.077-1.077,1.076,1.076,0,0,0,1.077,1.077" fill="#fff"/>
    <path id="Path_9" data-name="Path 9" d="M73.923,230.452a.374.374,0,0,0,.157.509.359.359,0,0,0,.462-.149l.585-1.867s.1-.125.1,0v4.393h0a.552.552,0,1,0,1.1,0V231.61s-.033-.246.165-.246.168.246.168.246v1.733a.554.554,0,0,0,1.107,0V228.95c0-.13.068-.037.068-.037l.458,1.278a2.96,2.96,0,0,0,.262.6.408.408,0,0,0,.533-.22.4.4,0,0,0-.044-.392l0,0c-.014-.041-.687-1.69-.765-1.922-.243-.709-.685-.7-1.11-.715s-.681,0-.681,0-.272-.011-.833.006-.738.305-1.358,1.9c-.088.229-.387.971-.391,1.015Z" fill="#fff"/>
    <path id="Path_10" data-name="Path 10" d="M52.86,219.15a1.365,1.365,0,1,0-1.367,1.366,1.366,1.366,0,0,0,1.367-1.366" fill="#fff"/>
    <path id="Path_11" data-name="Path 11" d="M49.9,221.043a1.82,1.82,0,0,0-1.653,1.814v3.786a.53.53,0,1,0,1.059,0v-3.251c0-.122.036-.287.259-.287.153,0,.186.163.192.267v9.749a.761.761,0,0,0,1.521,0V227.5a.208.208,0,0,1,.217-.223.211.211,0,0,1,.221.223v5.619a.76.76,0,0,0,1.52,0v-9.749c0-.1.039-.267.193-.267.223,0,.257.165.257.287v3.251a.53.53,0,1,0,1.06,0v-3.786a1.821,1.821,0,0,0-1.655-1.814.781.781,0,0,0-.1-.008H50a.83.83,0,0,0-.1.008" fill="#fff"/>
    <line id="Line_1" data-name="Line 1" x1="1.213" y2="6.429" transform="translate(47.494 227.194)" fill="none" stroke="#fff" stroke-linecap="round" stroke-miterlimit="10" stroke-width="0.401"/>
    <path id="Path_12" data-name="Path 12" d="M55.392,226.543a.393.393,0,0,0-.725.208.725.725,0,0,0,.038.172l1.086,1.965a.687.687,0,0,1,.067.258v4.219h0a.529.529,0,1,0,1.059,0V231.7s-.029-.236.16-.236.161.236.161.236v1.665a.531.531,0,0,0,1.062,0v-4.219a.7.7,0,0,1,.065-.258l1-1.814a1.789,1.789,0,0,0,.122-.323.391.391,0,0,0-.392-.391.385.385,0,0,0-.331.183h0c-.033.027-.535.921-.7,1.086a.431.431,0,0,1-.332.158H56.428a.43.43,0,0,1-.332-.158c-.168-.165-.669-1.059-.7-1.086Z" fill="#fff"/>
    <path id="Path_13" data-name="Path 13" d="M57.08,227.107A1.077,1.077,0,1,0,56,226.03a1.076,1.076,0,0,0,1.076,1.077" fill="#fff"/>
    <path id="Path_14" data-name="Path 14" d="M57.082,228.619l1.217.887.579,2.13H55.285l.58-2.13Z" fill="#fff"/>
    <text id="ERRADICAÇÃO" transform="translate(56.325 203.726)" fill="#fff" font-size="5.949" font-family="BebasNeue-Regular, Bebas Neue"><tspan x="0" y="0">ERRADICAÇÃO</tspan></text>
    <text id="DA_POBREZA" data-name="DA POBREZA" transform="translate(56.325 209.692)" fill="#fff" font-size="5.949" font-family="BebasNeue-Regular, Bebas Neue"><tspan x="0" y="0">DA POBREZA</tspan></text>
  </g>
</svg>
