<svg xmlns="http://www.w3.org/2000/svg" width="49.452" height="49.454" viewBox="0 0 49.452 49.454">
  <g id="Group_10" data-name="Group 10" transform="translate(-42.228 -253.729)">
    <rect id="Rectangle_10" data-name="Rectangle 10" width="49.452" height="49.454" transform="translate(42.228 253.729)" fill="#d10054"/>
    <path id="Path_56" data-name="Path 56" d="M47,260.209v7.64h1.678v-9.981H47.338l-1.545,1.81v1.753h.014l1.177-1.223Z" fill="#fff"/>
    <path id="Path_57" data-name="Path 57" d="M51.519,265.538V260.18c0-.6.22-1.031.794-1.031s.809.428.809,1.031v5.358c0,.6-.22,1.031-.809,1.031s-.794-.427-.794-1.031m3.282-.264v-4.83c0-1.56-.78-2.693-2.488-2.693-1.691,0-2.473,1.133-2.473,2.693v4.83c0,1.545.782,2.694,2.473,2.694a2.378,2.378,0,0,0,2.488-2.694" fill="#fff"/>
    <path id="Path_58" data-name="Path 58" d="M72.06,286.4H62.175a.109.109,0,0,0-.107.108v2.239a.108.108,0,0,0,.107.109H72.06a.107.107,0,0,0,.108-.109v-2.239a.108.108,0,0,0-.108-.108" fill="#fff"/>
    <path id="Path_59" data-name="Path 59" d="M72.169,282.293a.108.108,0,0,0-.108-.108H62.175a.108.108,0,0,0-.108.108v2.241a.109.109,0,0,0,.108.108h9.886a.109.109,0,0,0,.108-.108Z" fill="#fff"/>
    <path id="Path_60" data-name="Path 60" d="M77.888,283.17a11.406,11.406,0,0,0-2.12-4.324l-.021.018a10.91,10.91,0,0,1,.845,1.5,10.5,10.5,0,0,1-17.734,11.158,9.907,9.907,0,0,1,14.383-13.506c.021.018.041.038.064.057a.362.362,0,0,0,.224.081.389.389,0,0,0,.248-.1l.039-.039,1.257-1.242.084-.082a.376.376,0,0,0,.08-.223.383.383,0,0,0-.1-.256c-.013-.012-.027-.023-.04-.036A12.171,12.171,0,1,0,59.46,294.818,11.482,11.482,0,0,0,77.888,283.17" fill="#fff"/>
    <text id="REDUÇÃO_DAS" data-name="REDUÇÃO DAS" transform="translate(57.863 261.969)" fill="#fff" font-size="5.949" font-family="BebasNeue-Regular, Bebas Neue"><tspan x="0" y="0">REDUÇÃO DAS</tspan></text>
    <text id="DESIGUALDADES" transform="translate(57.863 267.845)" fill="#fff" font-size="5.949" font-family="BebasNeue-Regular, Bebas Neue"><tspan x="0" y="0">DESIGUALDADES</tspan></text>
  </g>
</svg>
