<svg xmlns="http://www.w3.org/2000/svg" width="49.357" height="49.36" viewBox="0 0 49.357 49.36">
  <g id="Group_13" data-name="Group 13" transform="translate(-214.735 -253.729)">
    <rect id="Rectangle_14" data-name="Rectangle 14" width="49.357" height="49.36" transform="translate(214.735 253.729)" fill="#3b6b34"/>
    <path id="Path_71" data-name="Path 71" d="M220.966,257.87v9.948h-1.673V260.2h-.014l-1.173,1.217h-.016v-1.746l1.54-1.8Z" fill="#fff"/>
    <path id="Path_72" data-name="Path 72" d="M226.482,260.027v.866a1.592,1.592,0,0,1-1.144,1.614,1.528,1.528,0,0,1,1.232,1.687v1.468c0,1.379-.733,2.273-2.421,2.273s-2.305-.968-2.305-2.48v-1.3h1.527v1.423c0,.588.205.969.778.969.513,0,.748-.367.748-.9V264c0-.529-.235-.808-.822-.808h-.7V261.92H224c.543,0,.894-.279.894-.807v-1.072c0-.543-.191-.894-.718-.894s-.72.351-.72.968v1.013h-1.526v-.88c0-1.468.6-2.5,2.333-2.5a2,2,0,0,1,2.216,2.275" fill="#fff"/>
    <path id="Path_73" data-name="Path 73" d="M247.255,286.431c-.205-.056-1.061-1.239-.384-2.016.112-.128-.227-.505-.133-.512.369-.029.565.2.663.532.008.145.013.292.013.442a7.8,7.8,0,0,1-.159,1.554m-2.087,3.846a1.259,1.259,0,0,1-.239-.089c-.417-.211-.367.127-.57.053s.23-.552-.384-.151-.446-.061-.714-.739a1.384,1.384,0,0,1,.789-1.628,9.668,9.668,0,0,1,1.382-.365c.916-.228,1.109-.771,1.276-.441.031.063.061.121.088.176a1.2,1.2,0,0,1,.118.5,7.636,7.636,0,0,1-1.746,2.688m-5.373,2.217a7.611,7.611,0,0,1-2.141-.307.313.313,0,0,1-.092-.372,1.7,1.7,0,0,1,1.492-.909c1.234-.119,2.858.8,3.117.654s.78-.829,1.547-.8a1.2,1.2,0,0,1,.695.175,7.589,7.589,0,0,1-4.618,1.559m-1.035-4.964c-.1.17-.392,1.451-.584,1.3s.078-1.486.133-1.587c.3-.551.952-.524.451.285m3.111-1.513a.69.69,0,0,1-.728-.065c-.192-.15.121-.4.236-.406.256-.022.641.335.492.471m3.361.013c-.081-.032-.154-.108-.216-.3a.172.172,0,0,1,.249-.219.74.74,0,0,1,.359.438c0,.125-.307.109-.392.077m.324.234c.256-.021.641.334.491.471a.686.686,0,0,1-.727-.065c-.192-.15.121-.4.236-.406m-8.171,3.037a2.17,2.17,0,0,1-.469.977,1.58,1.58,0,0,1-1.038.4c-.347-.026-.4-.952-.4-1.426,0-.164-.232.322-.354-.667-.077-.634-.483.065-.512-.357s-.233-.337-.446-.6-.478.025-.775.159-.174.2-.594.068l-.026-.01a7.6,7.6,0,0,1-.6-2.964c0-.258.015-.511.037-.761a.793.793,0,0,1,.047-.071c.4-.476.394-.589.394-.589l.447-.153a7.451,7.451,0,0,1,1.248.311c.441.165,1.136.541,1.541.376.292-.121.52-.28.493-.525-.032-.3-.273-.378-.564-.172-.108.075-.337-.461-.516-.432s.222.63.07.655-.46-.63-.512-.735-.289-.368-.5-.168c-.449.427-1.18.4-1.326.511-.445.334-.563-.11-.553-.38.018-.062.035-.124.055-.185a.917.917,0,0,1,.848-.1c.2.132.338-.033.416-.114s.05-.2,0-.31.1-.182.2-.209a5.419,5.419,0,0,0,.577-.345,1.9,1.9,0,0,1,1.156-.006.613.613,0,0,0,.761-.153,2.028,2.028,0,0,1,.553-.461c.109-.051-.272-.408-.587-.02s-.475.424-.623.424-1.027-.219-1.136-.5.276-.486.6-.642a7.98,7.98,0,0,1,1.439-.205c.462-.1,1.052-.333,1.349-.13s-1.241.549-.735.821c.179.1.992-.467,1.271-.612.654-.338-.636-.449-.468-1.136.189-.777-1.584-.476-2.467-.41a7.616,7.616,0,0,1,11.509,4.636,1.219,1.219,0,0,1-.037.353.5.5,0,0,1-.892.069c-.077-.112-.4-.421-.393.107s.513.583.026.9a1.892,1.892,0,0,1-.8.32,1.031,1.031,0,0,0-.388.914c.054.291.749,1.085.233,1.052a2.986,2.986,0,0,1-1.18-1.031c-.159-.421-.332-.832-.455-1.15a.454.454,0,0,0-.718-.21c-.27.184.076.371-.119.767s-.333.75-.62.423c-.743-.852-1.823-.433-1.993-1.38-.091-.514-.533-.464-.9-.756s-.579-.446-.642-.237c-.055.183,1.165,1.15,1.251,1.4.13.368-.365.694-.726.781s-.52-.2-.874-.573-.511-.633-.536-.343a1.669,1.669,0,0,0,.7,1.264c.309.2.654.284.553.6s0,.138-.347.48a.932.932,0,0,0-.386.928c.025.475-.1.5-.174.9s-.244.052-.394.632m-4.093-8.395c.019-.02.033-.037.04-.046a1.028,1.028,0,0,1,.6-.22c.19-.033.443.064.473.189s-.475.356-.567.442c-.264.242-.675.735-.917.789a.287.287,0,0,1-.2-.021,7.583,7.583,0,0,1,.567-1.133m.391-.776c.1-.145.427-.558.466-.61a.586.586,0,0,1,.369-.152c.116-.022.27.044.29.13a1.013,1.013,0,0,1-.1.484,1.26,1.26,0,0,1-.809.365c-.177-.027-.247-.165-.213-.217m24.217,4.5a22.577,22.577,0,0,0-36.236,0c-.056.078-.1.145-.142.2.039.058.086.125.142.2a22.579,22.579,0,0,0,36.236,0c.056-.08.1-.147.14-.2-.037-.058-.084-.125-.14-.2" fill="#fff"/>
    <text id="AÇÃO_CONTRA_a_" data-name="AÇÃO CONTRA a " transform="translate(230.335 261.78)" fill="#fff" font-size="5.723" font-family="BebasNeue-Regular, Bebas Neue"><tspan x="0" y="0">AÇÃO CONTRA a </tspan></text>
    <text id="MUDANÇA_GLOBAL" data-name="MUDANÇA GLOBAL" transform="translate(230.323 267.4)" fill="#fff" font-size="5.723" font-family="BebasNeue-Regular, Bebas Neue"><tspan x="0" y="0">MUDANÇA GLOBAL</tspan></text>
    <text id="DO_CLIMA" data-name="DO CLIMA" transform="translate(230.323 272.714)" fill="#fff" font-size="5.723" font-family="BebasNeue-Regular, Bebas Neue"><tspan x="0" y="0">DO CLIMA</tspan></text>
  </g>
</svg>
