<svg id="Group_422" data-name="Group 422" xmlns="http://www.w3.org/2000/svg" width="114.369" height="114.372" viewBox="0 0 114.369 114.372">
  <g id="Group_339" data-name="Group 339" transform="translate(0 0)">
    <rect id="Rectangle_114" data-name="Rectangle 114" width="114.369" height="114.372" transform="translate(0)" fill="#4c8e32"/>
    <path id="Path_161" data-name="Path 161" d="M159.666,221.593c3.913,0,5.614-2.077,5.614-5.273v-3.4c0-2.109-.92-3.47-2.858-3.913a3.681,3.681,0,0,0,2.652-3.739v-2.007c0-3.266-1.565-5.269-5.134-5.269-4.017,0-5.41,2.378-5.41,5.779v2.04h3.539v-2.346c0-1.43.44-2.244,1.667-2.244s1.664.814,1.664,2.072v2.485c0,1.226-.814,1.868-2.072,1.868h-1.463v2.962H159.5c1.358,0,1.9.644,1.9,1.871v3.808c0,1.224-.542,2.077-1.734,2.077-1.324,0-1.8-.888-1.8-2.248v-3.3h-3.537v3.03c0,3.5,1.4,5.746,5.338,5.746" transform="translate(-143.346 -188.637)" fill="#fff"/>
    <path id="Path_162" data-name="Path 162" d="M201.829,228.109c0-3.22-2.068-5.827-5.194-5.827-1.562,0-3.449,1.711-4.476,2.765-1.02-1.055-2.784-2.768-4.348-2.768-3.127,0-5.32,2.61-5.32,5.829a5.886,5.886,0,0,0,1.662,4.119l8.018,8.032,8-8.022-.007-.007a5.9,5.9,0,0,0,1.662-4.121" transform="translate(-106.23 -156.629)" fill="#fff"/>
    <path id="Path_163" data-name="Path 163" d="M200.3,266.193c-.028,0-.053,0-.083,0a1.31,1.31,0,0,1-1.215-1.092l-4.075-23.717-6.166,11.439a1.318,1.318,0,0,1-2.464-.438l-2.617-18.307-4.791,10.764a1.319,1.319,0,0,1-1.2.779H159.068a1.317,1.317,0,1,1,0-2.633h17.764l6.3-14.155a1.314,1.314,0,0,1,2.5.348l2.7,18.877,6.085-11.279a1.314,1.314,0,0,1,2.455.4l3.769,21.964L214.4,213.486a1.319,1.319,0,0,1,2.45-.19l7.23,14.99a1.316,1.316,0,1,1-2.369,1.145l-5.765-11.944-14.38,47.772a1.316,1.316,0,0,1-1.259.934" transform="translate(-138.838 -169.45)" fill="#fff"/>
    <g id="Group_336" data-name="Group 336" transform="translate(32.629 7.039)">
      <g id="Group_335" data-name="Group 335">
        <path id="Path_164" data-name="Path 164" d="M163.667,205.4v-.552H165.1v.661c0,.691.3.939.786.939s.786-.248.786-.964c0-.8-.3-1.312-1.3-2.181-1.27-1.117-1.683-1.9-1.683-3.006a2.11,2.11,0,0,1,2.262-2.4c1.474,0,2.207.883,2.207,2.427v.4h-1.435v-.494c0-.691-.276-.953-.76-.953s-.758.262-.758.923c0,.7.318,1.215,1.312,2.084,1.268,1.117,1.669,1.889,1.669,3.09a2.141,2.141,0,0,1-2.29,2.455C164.411,207.828,163.667,206.947,163.667,205.4Z" transform="translate(-163.667 -195.8)" fill="#fff"/>
        <path id="Path_165" data-name="Path 165" d="M167.394,197.957h2.056l1.572,9.656H169.5l-.276-1.917v.026H167.5l-.276,1.891H165.82Zm1.655,6.455-.677-4.773h-.026l-.663,4.773Z" transform="translate(-160.83 -195.723)" fill="#fff"/>
        <path id="Path_166" data-name="Path 166" d="M168.354,206.594v-7.366h1.518V206.7c0,.691.29.939.772.939s.774-.248.774-.939v-7.475h1.46v7.366c0,1.546-.772,2.427-2.262,2.427S168.354,208.14,168.354,206.594Zm2.4-9.6h1.655l-1.477,1.588h-1.145Z" transform="translate(-157.49 -196.993)" fill="#fff"/>
        <path id="Path_167" data-name="Path 167" d="M170.769,197.957h2.318c1.518,0,2.262.841,2.262,2.387v4.884c0,1.544-.744,2.385-2.262,2.385h-2.318Zm2.29,8.277c.482,0,.772-.248.772-.939v-5.021c0-.691-.29-.939-.772-.939h-.772v6.9Z" transform="translate(-154.307 -195.723)" fill="#fff"/>
        <path id="Path_168" data-name="Path 168" d="M173.184,197.957h4.14v1.379H174.7v2.552h2.084v1.379H174.7v2.967h2.622v1.379h-4.14Z" transform="translate(-151.124 -195.723)" fill="#fff"/>
      </g>
    </g>
    <g id="Group_338" data-name="Group 338" transform="translate(32.89 22.634)">
      <g id="Group_337" data-name="Group 337">
        <path id="Path_169" data-name="Path 169" d="M163.78,203.781H166.1c1.516,0,2.262.839,2.262,2.385v4.884c0,1.544-.746,2.385-2.262,2.385H163.78Zm2.29,8.275c.482,0,.772-.248.772-.936V206.1c0-.688-.29-.939-.772-.939H165.3v6.9Z" transform="translate(-163.78 -203.642)" fill="#fff"/>
        <path id="Path_170" data-name="Path 170" d="M166.195,203.781h4.137v1.377h-2.622v2.552h2.084v1.382h-2.084v2.965h2.622v1.379h-4.137Z" transform="translate(-160.597 -203.642)" fill="#fff"/>
        <path id="Path_171" data-name="Path 171" d="M172.568,213.486a2.827,2.827,0,0,1-1.006.167,2.143,2.143,0,0,1-2.3-2.429v-5.076a2.307,2.307,0,1,1,4.608,0v5.076a2.71,2.71,0,0,1-.429,1.585c.111.195.29.223.568.223h.234v1.379h-.4A1.171,1.171,0,0,1,172.568,213.486Zm-.22-2.165v-5.269c0-.691-.3-.953-.786-.953s-.786.262-.786.953v5.269c0,.691.3.95.786.95S172.348,212.012,172.348,211.321Z" transform="translate(-156.56 -203.721)" fill="#fff"/>
        <path id="Path_172" data-name="Path 172" d="M171.661,211.145v-7.364h1.518v7.475c0,.688.29.936.772.936s.774-.248.774-.936v-7.475h1.46v7.364c0,1.546-.772,2.429-2.26,2.429S171.661,212.691,171.661,211.145Z" transform="translate(-153.394 -203.642)" fill="#fff"/>
        <path id="Path_173" data-name="Path 173" d="M175.478,203.781h2.056l1.572,9.654h-1.518l-.276-1.917v.028h-1.725l-.276,1.889H173.9Zm1.655,6.455-.677-4.773h-.026l-.663,4.773Z" transform="translate(-150.437 -203.642)" fill="#fff"/>
        <path id="Path_174" data-name="Path 174" d="M176.462,203.781h1.518v8.275h2.5v1.379h-4.015Z" transform="translate(-147.066 -203.642)" fill="#fff"/>
        <path id="Path_175" data-name="Path 175" d="M178.508,203.781h1.516v9.654h-1.516Z" transform="translate(-144.37 -203.642)" fill="#fff"/>
        <path id="Path_176" data-name="Path 176" d="M179.65,203.781h2.318c1.518,0,2.262.839,2.262,2.385v4.884c0,1.544-.744,2.385-2.262,2.385H179.65Zm2.29,8.275c.482,0,.772-.248.772-.936V206.1c0-.688-.29-.939-.772-.939h-.772v6.9Z" transform="translate(-142.865 -203.642)" fill="#fff"/>
        <path id="Path_177" data-name="Path 177" d="M183.466,203.781h2.056l1.572,9.654h-1.518l-.273-1.917v.028h-1.725l-.278,1.889h-1.407Zm1.655,6.455-.675-4.773h-.028l-.663,4.773Z" transform="translate(-139.91 -203.642)" fill="#fff"/>
        <path id="Path_178" data-name="Path 178" d="M184.451,203.781h2.316c1.518,0,2.262.839,2.262,2.385v4.884c0,1.544-.744,2.385-2.262,2.385h-2.316Zm2.288,8.275c.482,0,.772-.248.772-.936V206.1c0-.688-.29-.939-.772-.939h-.772v6.9Z" transform="translate(-136.537 -203.642)" fill="#fff"/>
        <path id="Path_179" data-name="Path 179" d="M186.866,203.781H191v1.377h-2.622v2.552h2.084v1.382h-2.084v2.965H191v1.379h-4.137Z" transform="translate(-133.355 -203.642)" fill="#fff"/>
      </g>
    </g>
  </g>
</svg>
