<svg xmlns="http://www.w3.org/2000/svg" width="49.353" height="49.354" viewBox="0 0 49.353 49.354">
  <g id="Group_7" data-name="Group 7" transform="translate(-387.104 -195.104)">
    <rect id="Rectangle_7" data-name="Rectangle 7" width="49.353" height="49.354" transform="translate(387.104 195.104)" fill="#ffb300"/>
    <path id="Path_35" data-name="Path 35" d="M392.166,200.605h2.583l-2.232,8.586h1.661l2.187-8.41V199.24h-4.2Z" fill="#fff"/>
    <path id="Path_36" data-name="Path 36" d="M411.8,229.956a3.763,3.763,0,0,1-1.118-7.356V224a2.462,2.462,0,1,0,2.23,0v-1.4a3.763,3.763,0,0,1-1.112,7.358m-.537-8.083a.538.538,0,0,1,1.074,0v2.484a.538.538,0,0,1-1.074,0Zm.536-2.857a7.233,7.233,0,1,0,7.232,7.233,7.233,7.233,0,0,0-7.232-7.233" fill="#fff"/>
    <path id="Path_37" data-name="Path 37" d="M403.5,226.185a.6.6,0,0,0-.556-.594h-3.168a.6.6,0,0,0,0,1.19h3.168a.606.606,0,0,0,.556-.6" fill="#fff"/>
    <path id="Path_38" data-name="Path 38" d="M424.388,226.185a.6.6,0,0,0-.555-.594h-3.168a.6.6,0,0,0,0,1.19h3.168a.606.606,0,0,0,.555-.6" fill="#fff"/>
    <path id="Path_39" data-name="Path 39" d="M411.8,217.882a.6.6,0,0,0,.592-.556v-3.167a.595.595,0,0,0-1.188,0v3.167a.606.606,0,0,0,.6.556" fill="#fff"/>
    <path id="Path_40" data-name="Path 40" d="M411.8,238.775a.6.6,0,0,0,.592-.556v-3.168a.6.6,0,0,0-1.188,0v3.168a.606.606,0,0,0,.6.556" fill="#fff"/>
    <path id="Path_41" data-name="Path 41" d="M404.593,222.061a.6.6,0,0,0-.188-.792l-2.748-1.573a.6.6,0,0,0-.591,1.032l2.749,1.574a.607.607,0,0,0,.778-.241" fill="#fff"/>
    <path id="Path_42" data-name="Path 42" d="M422.726,232.438a.6.6,0,0,0-.188-.791l-2.748-1.573a.6.6,0,0,0-.591,1.032l2.749,1.574a.606.606,0,0,0,.778-.242" fill="#fff"/>
    <path id="Path_43" data-name="Path 43" d="M415.926,218.98a.606.606,0,0,0,.791-.188l1.574-2.748a.6.6,0,0,0-1.032-.592l-1.574,2.748a.609.609,0,0,0,.241.78" fill="#fff"/>
    <path id="Path_44" data-name="Path 44" d="M405.549,237.113a.6.6,0,0,0,.79-.188l1.574-2.748a.6.6,0,0,0-1.032-.592l-1.574,2.749a.608.608,0,0,0,.242.779" fill="#fff"/>
    <path id="Path_45" data-name="Path 45" d="M407.661,218.987a.6.6,0,0,0,.238-.778l-1.58-2.747a.6.6,0,0,0-1.029.6l1.578,2.745a.606.606,0,0,0,.793.185" fill="#fff"/>
    <path id="Path_46" data-name="Path 46" d="M418.076,237.1a.6.6,0,0,0,.238-.777l-1.578-2.746a.6.6,0,0,0-1.031.593l1.578,2.746a.6.6,0,0,0,.793.184" fill="#fff"/>
    <path id="Path_47" data-name="Path 47" d="M419,222.048a.606.606,0,0,0,.778.237l2.745-1.579a.6.6,0,0,0-.593-1.031l-2.745,1.579a.608.608,0,0,0-.185.794" fill="#fff"/>
    <path id="Path_48" data-name="Path 48" d="M400.888,232.463a.6.6,0,0,0,.778.237l2.745-1.579a.6.6,0,0,0-.592-1.031l-2.746,1.58a.606.606,0,0,0-.185.793" fill="#fff"/>
    <text id="ENERGIA_LIMPA" data-name="ENERGIA LIMPA" transform="translate(401.057 203.265)" fill="#fff" font-size="5.949" font-family="BebasNeue-Regular, Bebas Neue"><tspan x="0" y="0">ENERGIA LIMPA</tspan></text>
    <text id="E_ACESSÍVEL" data-name="E ACESSÍVEL" transform="translate(401.053 209.187)" fill="#fff" font-size="5.949" font-family="BebasNeue-Regular, Bebas Neue"><tspan x="0" y="0">E ACESSÍVEL</tspan></text>
  </g>
</svg>
