<svg id="Group_421" data-name="Group 421" xmlns="http://www.w3.org/2000/svg" width="114.372" height="114.379" viewBox="0 0 114.372 114.379">
  <rect id="Rectangle_113" data-name="Rectangle 113" width="114.372" height="114.379" transform="translate(0 0)" fill="#dc9427"/>
  <path id="Path_156" data-name="Path 156" d="M107.127,218.537h-6.36V217.45a4.406,4.406,0,0,1,1.629-3.539l2.482-2.617c2.007-2.142,2.452-3.5,2.452-5.816V203.23c0-3.3-1.6-4.863-5.069-4.863-3.4,0-5.134,1.806-5.134,5.035v2.788h3.537V203.3c0-1.393.677-1.8,1.5-1.8.749,0,1.393.308,1.393,1.734v1.905c0,1.908-.169,2.656-1.425,3.98l-2.179,2.313c-2.109,2.246-2.89,3.743-2.89,6.022V221.7h10.069Z" transform="translate(-85.736 -189.052)" fill="#fff"/>
  <path id="Path_157" data-name="Path 157" d="M123.735,249.749v1.609l-.007.035.007.037a.762.762,0,0,0,.742.726l.014,0,.019,0h18.868l.016,0,.016,0a.761.761,0,0,0,.744-.758l0,0,0-.007v-1.82c10.623-3.479,18.578-12.09,20.328-22.579l.009-.063a.556.556,0,0,0,.009-.107.758.758,0,0,0-.76-.76H103.611a.763.763,0,0,0-.77.76l.039.343c1.84,10.593,10.016,19.25,20.854,22.588" transform="translate(-78.114 -152.558)" fill="#fff"/>
  <path id="Path_158" data-name="Path 158" d="M122.2,215.43c-.248.352-6.057,8.715.127,15.477,2.837,3.106,2.594,5.843,1.782,7.7h3.968c.8-2.731.471-6.159-2.749-9.677-4.559-4.983.058-11.719.125-11.826a1.486,1.486,0,0,0-.642-2.221,2.111,2.111,0,0,0-2.612.552" transform="translate(-56.176 -167.595)" fill="#fff"/>
  <path id="Path_159" data-name="Path 159" d="M118.95,238.6h3.973c.8-2.733.468-6.156-2.756-9.677-4.557-4.986.056-11.717.13-11.826a1.487,1.487,0,0,0-.647-2.218,2.109,2.109,0,0,0-2.61.547c-.25.352-6.064,8.715.127,15.481,2.837,3.106,2.591,5.843,1.782,7.693" transform="translate(-62.98 -167.594)" fill="#fff"/>
  <path id="Path_160" data-name="Path 160" d="M111.876,215.432c-.25.352-6.059,8.715.13,15.477,2.837,3.108,2.591,5.848,1.782,7.7h3.971c.8-2.731.471-6.156-2.756-9.677-4.559-4.983.056-11.719.13-11.828a1.488,1.488,0,0,0-.647-2.218,2.1,2.1,0,0,0-2.61.552" transform="translate(-69.782 -167.596)" fill="#fff"/>
  <g id="Group_413" data-name="Group 413" transform="translate(32.227 9.025)">
    <path id="Path_592" data-name="Path 592" d="M106.077,198.3h4.14v1.379H107.6v2.552h2.084v1.379H107.6v2.965h2.622v1.382h-4.14Z" transform="translate(-106.077 -198.163)" fill="#fff"/>
    <path id="Path_593" data-name="Path 593" d="M108.237,198.3h2.246c1.574,0,2.251.73,2.251,2.221v.593c0,.994-.318,1.627-.994,1.9v.028c.76.234,1.006.953,1.006,2.042v1.7a2.828,2.828,0,0,0,.167,1.173h-1.546a3.017,3.017,0,0,1-.137-1.187v-1.766c0-.9-.262-1.187-.953-1.187h-.524v4.14h-1.516Zm2.068,4.137c.566,0,.911-.248.911-1.02v-.746c0-.688-.234-.992-.772-.992h-.691v2.758Z" transform="translate(-103.23 -198.163)" fill="#fff"/>
    <path id="Path_594" data-name="Path 594" d="M110.634,198.3h2.248c1.574,0,2.248.73,2.248,2.221v.593c0,.994-.318,1.627-.994,1.9v.028c.76.234,1.008.953,1.008,2.042v1.7a2.867,2.867,0,0,0,.165,1.173h-1.544a2.951,2.951,0,0,1-.139-1.187v-1.766c0-.9-.262-1.187-.95-1.187h-.526v4.14h-1.516Zm2.07,4.137c.563,0,.909-.248.909-1.02v-.746c0-.688-.234-.992-.772-.992h-.691v2.758Z" transform="translate(-100.071 -198.163)" fill="#fff"/>
    <path id="Path_595" data-name="Path 595" d="M114.432,198.3h2.056l1.572,9.656h-1.518l-.276-1.919v.028h-1.725l-.276,1.891h-1.407Zm1.655,6.455-.677-4.773h-.026l-.663,4.773Z" transform="translate(-97.14 -198.163)" fill="#fff"/>
    <path id="Path_596" data-name="Path 596" d="M115.416,198.3h2.318c1.518,0,2.262.841,2.262,2.385v4.884c0,1.546-.744,2.387-2.262,2.387h-2.318Zm2.29,8.275c.482,0,.772-.248.772-.936V200.62c0-.691-.29-.939-.772-.939h-.772v6.9Z" transform="translate(-93.769 -198.163)" fill="#fff"/>
    <path id="Path_597" data-name="Path 597" d="M117.831,198.3h1.518v9.656h-1.518Z" transform="translate(-90.586 -198.163)" fill="#fff"/>
    <path id="Path_598" data-name="Path 598" d="M118.931,205.8v-5.187a2.24,2.24,0,1,1,4.471,0v1.02h-1.435v-1.117c0-.635-.3-.895-.76-.895s-.758.26-.758.895v5.394c0,.635.3.883.758.883s.76-.248.76-.883v-1.477H123.4V205.8a2.24,2.24,0,1,1-4.471,0Z" transform="translate(-89.137 -198.242)" fill="#fff"/>
    <path id="Path_599" data-name="Path 599" d="M122.653,198.3h2.054l1.574,9.656h-1.518l-.276-1.919v.028h-1.725l-.276,1.891h-1.407Zm1.655,6.455-.677-4.773H123.6l-.661,4.773Z" transform="translate(-86.306 -198.163)" fill="#fff"/>
    <path id="Path_600" data-name="Path 600" d="M123.637,198.3h2.248c1.572,0,2.248.73,2.248,2.221v.593c0,.994-.318,1.627-.994,1.9v.028c.76.234,1.008.953,1.008,2.042v1.7a2.867,2.867,0,0,0,.165,1.173h-1.544a2.951,2.951,0,0,1-.139-1.187v-1.766c0-.9-.262-1.187-.953-1.187h-.524v4.14h-1.516Zm2.07,4.137c.563,0,.909-.248.909-1.02v-.746c0-.688-.234-.992-.772-.992h-.691v2.758Z" transform="translate(-82.935 -198.163)" fill="#fff"/>
  </g>
  <g id="Group_414" data-name="Group 414" transform="translate(31.829 22.854)">
    <path id="Path_601" data-name="Path 601" d="M107.477,204.268h2.056l1.572,9.654h-1.516l-.276-1.917v.028h-1.725l-.276,1.889H105.9Zm1.655,6.455-.675-4.773h-.028l-.663,4.773Z" transform="translate(-105.905 -204.129)" fill="#fff"/>
    <path id="Path_602" data-name="Path 602" d="M109.414,204.268h4.015v1.379h-2.5v2.689h1.959v1.379h-1.959v4.207h-1.518Z" transform="translate(-101.28 -204.129)" fill="#fff"/>
    <path id="Path_603" data-name="Path 603" d="M111.413,211.713v-5.076a2.307,2.307,0,1,1,4.608,0v5.076a2.307,2.307,0,1,1-4.608,0Zm3.09.1V206.54c0-.691-.3-.953-.786-.953s-.786.262-.786.953v5.269c0,.691.3.953.786.953S114.5,212.5,114.5,211.808Z" transform="translate(-98.646 -204.208)" fill="#fff"/>
    <path id="Path_604" data-name="Path 604" d="M113.84,204.268H116l.967,6.91H117l.964-6.91h2.167v9.654H118.7v-7.308h-.028l-1.1,7.308h-1.27l-1.1-7.308h-.028v7.308H113.84Z" transform="translate(-95.447 -204.129)" fill="#fff"/>
    <path id="Path_605" data-name="Path 605" d="M117.04,204.268h4.14v1.379h-2.622V208.2h2.084v1.379h-2.084v2.965h2.622v1.379h-4.14Z" transform="translate(-91.23 -204.129)" fill="#fff"/>
  </g>
</svg>
