<svg id="Group_423" data-name="Group 423" xmlns="http://www.w3.org/2000/svg" width="114.626" height="114.629" viewBox="0 0 114.626 114.629">
  <g id="Group_346" data-name="Group 346" transform="translate(0 0)">
    <rect id="Rectangle_115" data-name="Rectangle 115" width="114.626" height="114.629" fill="#b40922"/>
    <path id="Path_180" data-name="Path 180" d="M215.2,214.432l3.477-9.51h.035v9.51Zm3.442,6.782h3.683v-3.75H223.9v-3.032h-1.567V198.1h-3.82L211.8,215.076v2.387h6.849Z" transform="translate(-200.689 -188.495)" fill="#fff"/>
    <path id="Path_181" data-name="Path 181" d="M240.621,227.222l-20.557-11.87v38.4l20.557,6.2Z" transform="translate(-189.793 -165.759)" fill="#fff"/>
    <path id="Path_182" data-name="Path 182" d="M229.908,227.3v32.668l20.692-6.222V215.353Z" transform="translate(-176.819 -165.758)" fill="#fff"/>
    <path id="Path_183" data-name="Path 183" d="M248.564,216.315a2.433,2.433,0,0,0-4.865,0v2.624h4.865Z" transform="translate(-158.644 -167.694)" fill="#fff"/>
    <path id="Path_184" data-name="Path 184" d="M244.3,251.049h-.6l2.432,8.5,2.429-8.5h0V216.885H243.7v34.164Z" transform="translate(-158.646 -163.737)" fill="#fff"/>
    <path id="Path_185" data-name="Path 185" d="M270.484,217.052l-2.2-1.74v39.532l-22.841,7.382h-2.323l-22.739-6.354v-40.56l-2.2,1.74v40.366l24.841,6.878h2.528l22.92-7.276,2.023-.6Z" transform="translate(-192.287 -165.811)" fill="#fff"/>
    <g id="Group_341" data-name="Group 341" transform="translate(32.967 22.915)">
      <g id="Group_340" data-name="Group 340">
        <path id="Path_186" data-name="Path 186" d="M221.227,203.9h2.318c1.518,0,2.262.839,2.262,2.385v4.884c0,1.544-.744,2.385-2.262,2.385h-2.318Zm2.29,8.275c.482,0,.772-.248.772-.936v-5.023c0-.688-.29-.939-.772-.939h-.772v6.9Z" transform="translate(-221.227 -203.763)" fill="#fff"/>
        <path id="Path_187" data-name="Path 187" d="M223.642,203.9h4.14v1.377H225.16v2.552h2.084v1.381H225.16v2.965h2.622v1.379h-4.14Z" transform="translate(-218.044 -203.763)" fill="#fff"/>
        <path id="Path_188" data-name="Path 188" d="M230.017,213.607a2.835,2.835,0,0,1-1.006.167,2.144,2.144,0,0,1-2.306-2.429v-5.076a2.307,2.307,0,1,1,4.608,0v5.076a2.727,2.727,0,0,1-.427,1.585c.109.195.29.222.566.222h.234v1.379h-.4A1.165,1.165,0,0,1,230.017,213.607Zm-.223-2.165v-5.269c0-.691-.3-.953-.783-.953s-.788.262-.788.953v5.269c0,.691.3.953.788.953S229.795,212.133,229.795,211.442Z" transform="translate(-214.007 -203.842)" fill="#fff"/>
        <path id="Path_189" data-name="Path 189" d="M229.109,211.266V203.9h1.518v7.475c0,.691.287.939.772.939s.772-.248.772-.939V203.9h1.46v7.364c0,1.546-.772,2.429-2.26,2.429S229.109,212.812,229.109,211.266Z" transform="translate(-210.839 -203.763)" fill="#fff"/>
        <path id="Path_190" data-name="Path 190" d="M232.925,203.9h2.056l1.572,9.654h-1.518l-.274-1.917v.028h-1.727l-.276,1.889h-1.407Zm1.655,6.455-.677-4.773h-.026l-.663,4.773Z" transform="translate(-207.884 -203.763)" fill="#fff"/>
        <path id="Path_191" data-name="Path 191" d="M233.91,203.9h1.516v8.275h2.5v1.379H233.91Z" transform="translate(-204.512 -203.763)" fill="#fff"/>
        <path id="Path_192" data-name="Path 192" d="M235.955,203.9h1.518v9.654h-1.518Z" transform="translate(-201.817 -203.763)" fill="#fff"/>
        <path id="Path_193" data-name="Path 193" d="M237.1,203.9h2.316c1.518,0,2.262.839,2.262,2.385v4.884c0,1.544-.744,2.385-2.262,2.385H237.1Zm2.288,8.275c.482,0,.772-.248.772-.936v-5.023c0-.688-.29-.939-.772-.939h-.772v6.9Z" transform="translate(-200.31 -203.763)" fill="#fff"/>
        <path id="Path_194" data-name="Path 194" d="M240.912,203.9h2.056l1.572,9.654h-1.516l-.276-1.917v.028h-1.725l-.276,1.889H239.34Zm1.655,6.455-.674-4.773h-.028l-.663,4.773Z" transform="translate(-197.356 -203.763)" fill="#fff"/>
        <path id="Path_195" data-name="Path 195" d="M241.9,203.9h2.316c1.518,0,2.262.839,2.262,2.385v4.884c0,1.544-.744,2.385-2.262,2.385H241.9Zm2.29,8.275c.482,0,.772-.248.772-.936v-5.023c0-.688-.29-.939-.772-.939h-.774v6.9Z" transform="translate(-193.984 -203.763)" fill="#fff"/>
        <path id="Path_196" data-name="Path 196" d="M244.313,203.9h4.137v1.377h-2.622v2.552h2.084v1.381h-2.084v2.965h2.622v1.379h-4.137Z" transform="translate(-190.802 -203.763)" fill="#fff"/>
      </g>
    </g>
    <g id="Group_343" data-name="Group 343" transform="translate(32.967 9.318)">
      <g id="Group_342" data-name="Group 342">
        <path id="Path_197" data-name="Path 197" d="M221.227,197.976h4.14v1.379h-2.622v2.552h2.084v1.379h-2.084v2.965h2.622v1.379h-4.14Z" transform="translate(-221.227 -197.976)" fill="#fff"/>
        <path id="Path_198" data-name="Path 198" d="M223.387,197.976H225.7c1.518,0,2.262.841,2.262,2.385v4.884c0,1.546-.744,2.385-2.262,2.385h-2.316Zm2.288,8.275c.482,0,.772-.248.772-.936v-5.023c0-.688-.29-.936-.772-.936H224.9v6.9Z" transform="translate(-218.38 -197.976)" fill="#fff"/>
        <path id="Path_199" data-name="Path 199" d="M225.778,205.342v-7.366h1.516v7.475c0,.691.29.939.772.939s.774-.248.774-.939v-7.475h1.46v7.366c0,1.544-.772,2.427-2.26,2.427S225.778,206.886,225.778,205.342Z" transform="translate(-215.229 -197.976)" fill="#fff"/>
      </g>
    </g>
    <g id="Group_345" data-name="Group 345" transform="translate(48.928 7.028)">
      <g id="Group_344" data-name="Group 344">
        <path id="Path_200" data-name="Path 200" d="M228.113,205.477V200.29a2.239,2.239,0,1,1,4.469,0v1.02h-1.432v-1.117c0-.635-.306-.9-.76-.9s-.758.262-.758.9v5.394c0,.635.3.883.758.883s.76-.248.76-.883v-1.477h1.432v1.368a2.238,2.238,0,1,1-4.469,0Z" transform="translate(-228.113 -195.765)" fill="#fff"/>
        <path id="Path_201" data-name="Path 201" d="M231.833,197.976h2.056l1.572,9.654h-1.518l-.273-1.917v.028h-1.725l-.276,1.889h-1.407Zm1.655,6.455-.675-4.773h-.028l-.663,4.773Z" transform="translate(-225.282 -195.686)" fill="#fff"/>
        <path id="Path_202" data-name="Path 202" d="M235.811,201.309v-1.117c0-.635-.3-.9-.758-.9s-.76.262-.76.9v5.394c0,.635.3.883.76.883s.758-.248.758-.883v-1.477h1.435v1.368a2.076,2.076,0,0,1-1.875,2.357v.413c.607,0,.95.167.95.649,0,.744-.579.841-1.407.841-.758,0-1.324-.165-1.324-.8V208.8h1.02v.109a.268.268,0,0,0,.3.276c.248,0,.359-.1.359-.329,0-.264-.165-.359-.51-.359h-.07v-.663a2.073,2.073,0,0,1-1.917-2.357V200.29a2.239,2.239,0,1,1,4.469,0v1.02Z" transform="translate(-221.966 -195.765)" fill="#fff"/>
        <path id="Path_203" data-name="Path 203" d="M236.5,199.278h2.056l1.572,9.654h-1.518l-.276-1.917v.028h-1.725l-.276,1.889h-1.407Zm-.883-1.034c.343-.774.73-1.159,1.256-1.159a1.494,1.494,0,0,1,.825.262.964.964,0,0,0,.471.178c.22,0,.371-.151.552-.538l.73.44c-.345.772-.73,1.159-1.254,1.159a1.53,1.53,0,0,1-.83-.262.948.948,0,0,0-.468-.178c-.22,0-.371.151-.552.538Zm2.538,7.489-.677-4.773h-.025l-.663,4.773Z" transform="translate(-219.137 -196.988)" fill="#fff"/>
        <path id="Path_204" data-name="Path 204" d="M237.434,205.421v-5.076a2.307,2.307,0,1,1,4.608,0v5.076a2.307,2.307,0,1,1-4.608,0Zm3.09.1v-5.269c0-.691-.3-.953-.786-.953s-.786.262-.786.953v5.269c0,.691.3.953.786.953S240.524,206.207,240.524,205.516Z" transform="translate(-215.829 -195.765)" fill="#fff"/>
      </g>
    </g>
  </g>
</svg>
