<svg xmlns="http://www.w3.org/2000/svg" width="49.451" height="49.454" viewBox="0 0 49.451 49.454">
  <g id="Group_5" data-name="Group 5" transform="translate(-272.057 -195.499)">
    <rect id="Rectangle_5" data-name="Rectangle 5" width="49.451" height="49.454" transform="translate(272.057 195.499)" fill="#e8271e"/>
    <path id="Path_29" data-name="Path 29" d="M279.941,202.8a1.513,1.513,0,0,0-1.412.691h-.016v-2.485H281.4v-1.368h-4.412v5.619h1.528v-.222c0-.589.266-.911.737-.911.514,0,.721.352.721.9v2.411c0,.53-.192.9-.707.9-.573,0-.779-.382-.779-.97v-1.249h-1.53v1.131c0,1.515.6,2.486,2.309,2.486a2.074,2.074,0,0,0,2.383-2.279v-2.442c0-1.573-.809-2.206-1.706-2.206" fill="#fff"/>
    <path id="Path_30" data-name="Path 30" d="M296.7,231.385a5.925,5.925,0,1,1,5.925-5.924,5.931,5.931,0,0,1-5.925,5.924m11.379-17.173h-6.146a.079.079,0,0,0-.078.078v2.043a.08.08,0,0,0,.078.079h2.447l-2.717,2.718a8.047,8.047,0,1,0-6,14.311v2.353h-2.426a.078.078,0,0,0-.078.078v2.188a.077.077,0,0,0,.078.079h2.426v2.316a.076.076,0,0,0,.076.078h2.188a.078.078,0,0,0,.08-.078v-2.316h2.424a.078.078,0,0,0,.078-.079v-2.188a.079.079,0,0,0-.078-.078H298V233.4a8.043,8.043,0,0,0,5.273-12.573l2.679-2.678v2.285a.078.078,0,0,0,.08.078h2.041a.079.079,0,0,0,.08-.078V214.29a.079.079,0,0,0-.08-.078" fill="#fff"/>
    <path id="Path_31" data-name="Path 31" d="M300.315,223.028h-7.187a.075.075,0,0,0-.078.07v1.74a.074.074,0,0,0,.078.071h7.187a.075.075,0,0,0,.08-.071V223.1a.075.075,0,0,0-.08-.07" fill="#fff"/>
    <path id="Path_32" data-name="Path 32" d="M300.315,226.135h-7.187a.076.076,0,0,0-.078.072v1.74a.075.075,0,0,0,.078.07h7.187a.075.075,0,0,0,.08-.07v-1.74a.076.076,0,0,0-.08-.072" fill="#fff"/>
    <text id="DE_GéNERO" data-name="DE GéNERO" transform="translate(286.033 209.61)" fill="#fff" font-size="5.949" font-family="BebasNeue-Regular, Bebas Neue"><tspan x="0" y="0">DE GéNERO</tspan></text>
    <text id="I" transform="translate(286.033 203.684)" fill="#fff" font-size="5.949" font-family="BebasNeue-Regular, Bebas Neue"><tspan x="0" y="0">I</tspan></text>
    <text id="GUALDADE" transform="translate(287.166 203.684)" fill="#fff" font-size="5.949" font-family="BebasNeue-Regular, Bebas Neue"><tspan x="0" y="0">GUALDADE</tspan></text>
  </g>
</svg>
