<svg xmlns="http://www.w3.org/2000/svg" width="49.451" height="49.452" viewBox="0 0 49.451 49.452">
  <g id="Group_11" data-name="Group 11" transform="translate(-99.732 -253.731)">
    <rect id="Rectangle_11" data-name="Rectangle 11" width="49.451" height="49.452" transform="translate(99.732 253.731)" fill="#fa8a14"/>
    <path id="Path_61" data-name="Path 61" d="M103.275,259.683v1.749h.014l1.177-1.22h.014v7.633h1.676v-9.972h-1.338Z" fill="#fff"/>
    <path id="Path_62" data-name="Path 62" d="M107.1,259.683v1.749h.016l1.176-1.22h.014v7.633h1.678v-9.972h-1.338Z" fill="#fff"/>
    <path id="Path_63" data-name="Path 63" d="M108.239,291.378h7.438a.182.182,0,0,0,.135-.3l-.011-.01-3.7-4.788-.035-.04a.179.179,0,0,0-.255-.013l-.023.026-.034.038-3.611,4.739-.055.067a.181.181,0,0,0-.032.1.184.184,0,0,0,.184.183" fill="#fff"/>
    <path id="Path_64" data-name="Path 64" d="M115.655,292.054H108.2a.183.183,0,0,0-.183.183v5.832a.183.183,0,0,0,.183.183h2.4v-3.669a.182.182,0,0,1,.182-.184h2.228a.182.182,0,0,1,.182.184v3.669h2.463a.182.182,0,0,0,.182-.183v-5.832a.182.182,0,0,0-.182-.183" fill="#fff"/>
    <path id="Path_65" data-name="Path 65" d="M140.746,292.914a.177.177,0,0,1-.18.176h-2.2a.178.178,0,0,1-.181-.176v-1.34a.179.179,0,0,1,.181-.176h2.2a.178.178,0,0,1,.18.176Zm0,2.476a.178.178,0,0,1-.18.177h-2.2a.179.179,0,0,1-.181-.177v-1.34a.178.178,0,0,1,.181-.175h2.2a.176.176,0,0,1,.18.175Zm-3.368-2.476a.178.178,0,0,1-.18.176h-2.2a.178.178,0,0,1-.181-.176v-1.34a.179.179,0,0,1,.181-.176h2.2a.179.179,0,0,1,.18.176Zm0,2.476a.179.179,0,0,1-.18.177h-2.2a.179.179,0,0,1-.181-.177v-1.34a.178.178,0,0,1,.181-.175h2.2a.178.178,0,0,1,.18.175Zm4.037-4.863h-7.378a.175.175,0,0,0-.179.174v7.45a.177.177,0,0,0,.179.175h7.378a.178.178,0,0,0,.18-.175V290.7a.176.176,0,0,0-.18-.174" fill="#fff"/>
    <path id="Path_66" data-name="Path 66" d="M123.214,278.53a.1.1,0,0,1-.1.094h-1.652a.1.1,0,0,1-.095-.094v-1.842a.1.1,0,0,1,.095-.1h1.652a.1.1,0,0,1,.1.1Zm0,4.23a.1.1,0,0,1-.1.094h-1.652a.094.094,0,0,1-.095-.094v-1.843a.1.1,0,0,1,.095-.094h1.652a.1.1,0,0,1,.1.094Zm0,4.23a.1.1,0,0,1-.1.1h-1.652a.1.1,0,0,1-.095-.1v-1.843a.1.1,0,0,1,.095-.094h1.652a.1.1,0,0,1,.1.094Zm0,4.231a.094.094,0,0,1-.1.093h-1.652a.094.094,0,0,1-.095-.093v-1.843a.094.094,0,0,1,.095-.094h1.652a.1.1,0,0,1,.1.094Zm0,4.229a.1.1,0,0,1-.1.1h-1.652a.1.1,0,0,1-.095-.1v-1.841a.1.1,0,0,1,.095-.094h1.652a.1.1,0,0,1,.1.094Zm-3.243-16.92a.1.1,0,0,1-.094.094h-1.653a.1.1,0,0,1-.1-.094v-1.842a.1.1,0,0,1,.1-.1h1.653a.1.1,0,0,1,.094.1Zm0,4.23a.094.094,0,0,1-.094.094h-1.653a.093.093,0,0,1-.1-.094v-1.843a.094.094,0,0,1,.1-.094h1.653a.1.1,0,0,1,.094.094Zm0,4.23a.1.1,0,0,1-.094.1h-1.653a.1.1,0,0,1-.1-.1v-1.843a.1.1,0,0,1,.1-.094h1.653a.1.1,0,0,1,.094.094Zm0,4.231a.094.094,0,0,1-.094.093h-1.653a.093.093,0,0,1-.1-.093v-1.843a.093.093,0,0,1,.1-.094h1.653a.094.094,0,0,1,.094.094Zm0,4.229a.1.1,0,0,1-.094.1h-1.653a.1.1,0,0,1-.1-.1v-1.841a.094.094,0,0,1,.1-.094h1.653a.1.1,0,0,1,.094.094Zm4.295-22.214h-7.219a.177.177,0,0,0-.177.177v24.672a.177.177,0,0,0,.177.176h7.219a.178.178,0,0,0,.178-.176V273.413a.178.178,0,0,0-.178-.177" fill="#fff"/>
    <path id="Rectangle_12" data-name="Rectangle 12" d="M.149,0H7.574a.148.148,0,0,1,.148.148V1.634a.148.148,0,0,1-.148.148H.148A.148.148,0,0,1,0,1.634V.149A.149.149,0,0,1,.149,0Z" transform="translate(133.865 288.145)" fill="#fff"/>
    <path id="Path_67" data-name="Path 67" d="M132.166,285.433a.176.176,0,0,1-.176.176h-2.152a.176.176,0,0,1-.177-.176v-1.346a.178.178,0,0,1,.177-.178h2.152a.178.178,0,0,1,.176.178Zm0,2.49a.178.178,0,0,1-.176.176h-2.152a.177.177,0,0,1-.177-.176v-1.347a.176.176,0,0,1,.177-.176h2.152a.176.176,0,0,1,.176.176Zm0,2.489a.176.176,0,0,1-.176.175h-2.152a.176.176,0,0,1-.177-.175v-1.348a.176.176,0,0,1,.177-.176h2.152a.176.176,0,0,1,.176.176Zm0,2.488a.176.176,0,0,1-.176.176h-2.152a.176.176,0,0,1-.177-.176v-1.348a.175.175,0,0,1,.177-.175h2.152a.175.175,0,0,1,.176.175Zm0,2.488a.176.176,0,0,1-.176.176h-2.152a.176.176,0,0,1-.177-.176v-1.346a.177.177,0,0,1,.177-.177h2.152a.177.177,0,0,1,.176.177Zm-3.284-10.43v2.967a.177.177,0,0,1-.177.177h-2.151a.177.177,0,0,1-.178-.177v-.374a.194.194,0,0,1,.015-.065.126.126,0,0,1,.01-.021.232.232,0,0,1,.015-.023l.022-.03c.274-.394,1.515-1.922,2.037-2.56l.051-.064a.206.206,0,0,1,.159-.074.2.2,0,0,1,.2.165Zm-.006,5.454a.175.175,0,0,1-.176.175h-2.151a.176.176,0,0,1-.178-.175v-1.348a.176.176,0,0,1,.178-.176H128.7a.175.175,0,0,1,.176.176Zm0,2.488a.175.175,0,0,1-.176.176h-2.151a.176.176,0,0,1-.178-.176v-1.348a.175.175,0,0,1,.178-.175H128.7a.174.174,0,0,1,.176.175Zm0,2.488a.175.175,0,0,1-.176.176h-2.151a.176.176,0,0,1-.178-.176v-1.346a.177.177,0,0,1,.178-.177H128.7a.176.176,0,0,1,.176.177ZM130,282.783l.051-.064c.485-.623,1.3-1.629,1.7-2.12l.053-.061a.2.2,0,0,1,.158-.075.2.2,0,0,1,.2.165V282.9a.2.2,0,0,1-.2.2l-.009,0-.01,0h-1.772l-.009,0-.009,0a.2.2,0,0,1-.2-.2.2.2,0,0,1,.04-.122m2.987-4.888a.188.188,0,0,0-.18-.138.185.185,0,0,0-.1.034l-.014.009-.06.077-7.1,9-.033.044a.2.2,0,0,0-.061.14v11.06a.176.176,0,0,0,.176.176h7.213a.176.176,0,0,0,.176-.176V277.969a.175.175,0,0,0-.017-.074" fill="#fff"/>
    <text id="CIDADES_e_" data-name="CIDADES e " transform="translate(113.125 261.294)" fill="#fff" font-size="5.949" font-family="BebasNeue-Regular, Bebas Neue"><tspan x="0" y="0">CIDADES e </tspan></text>
    <text id="COMUNIDADES" transform="translate(113.208 266.307)" fill="#fff" font-size="5.949" font-family="BebasNeue-Regular, Bebas Neue"><tspan x="0" y="0">COMUNIDADES</tspan></text>
    <text id="SUSTENTÁVEIS" transform="translate(113.208 271.841)" fill="#fff" font-size="5.949" font-family="BebasNeue-Regular, Bebas Neue"><tspan x="0" y="0">SUSTENTÁVEIS</tspan></text>
  </g>
</svg>
