<svg xmlns="http://www.w3.org/2000/svg" width="49.461" height="49.464" viewBox="0 0 49.461 49.464">
  <g id="Group_16" data-name="Group 16" transform="translate(-386.963 -253.625)">
    <rect id="Rectangle_18" data-name="Rectangle 18" width="49.461" height="49.464" transform="translate(386.963 253.625)" fill="#00588e"/>
    <path id="Path_87" data-name="Path 87" d="M390.768,259.584v1.75h.016l1.176-1.221h.016v7.635h1.676v-9.973h-1.338Z" fill="#fff"/>
    <path id="Path_88" data-name="Path 88" d="M397.859,265.5c0,.633-.236,1-.809,1s-.779-.383-.779-1v-1.824c.028-.559.264-.911.794-.911.572,0,.794.352.794,1Zm1.662-.146v-1.472c0-1.632-.647-2.457-1.853-2.457a1.435,1.435,0,0,0-1.383.809h-.014v-2.147c0-.6.19-1.029.794-1.029s.78.353.78.97v.664h1.529v-.531c0-1.471-.484-2.5-2.34-2.5-1.764,0-2.427,1.133-2.427,2.691V265.2c0,1.545.678,2.663,2.443,2.663a2.2,2.2,0,0,0,2.471-2.515" fill="#fff"/>
    <path id="Path_89" data-name="Path 89" d="M421.581,270.491a1.657,1.657,0,1,0,1.008,1.177,2.11,2.11,0,0,0-1.008-1.177" fill="#fff"/>
    <path id="Path_90" data-name="Path 90" d="M420.652,274.815a1.658,1.658,0,1,0-1.008-1.177,2.113,2.113,0,0,0,1.008,1.177" fill="#fff"/>
    <path id="Path_91" data-name="Path 91" d="M422.995,274a1.873,1.873,0,0,0,1.287.545,1.953,1.953,0,0,0,1.194-.766,1.871,1.871,0,0,0-1.287-.546,1.96,1.96,0,0,0-1.194.767" fill="#fff"/>
    <path id="Path_92" data-name="Path 92" d="M423.981,270.76a2.271,2.271,0,0,0-.479,1.568,2.164,2.164,0,0,0,1.543-.48,2.268,2.268,0,0,0,.479-1.567,2.172,2.172,0,0,0-1.543.479" fill="#fff"/>
    <path id="Path_93" data-name="Path 93" d="M422.751,276.254a1.948,1.948,0,0,0,1.325-.506,1.868,1.868,0,0,0-1.148-.8,1.964,1.964,0,0,0-1.326.506,1.876,1.876,0,0,0,1.149.8" fill="#fff"/>
    <path id="Path_94" data-name="Path 94" d="M423.361,288.123h-5.107a.722.722,0,0,0,0,1.444h5.107a.722.722,0,1,0,0-1.444" fill="#fff"/>
    <path id="Path_95" data-name="Path 95" d="M423.361,296.085h-5.107a.723.723,0,0,0,0,1.445h5.107a.723.723,0,0,0,0-1.445" fill="#fff"/>
    <path id="Path_96" data-name="Path 96" d="M400.4,286.369a3.073,3.073,0,0,0-.354-.091s.131.041.354.091" fill="#fff"/>
    <path id="Path_97" data-name="Path 97" d="M408.673,289.494c.335.006.673,0,1.012-.027v2.668l-1.012-.023Zm14.5.578h-4.732a.411.411,0,0,0-.411.411v1.433l-3.089.339-4.513-.1V289.4a12.325,12.325,0,0,0,1.8-.365,6.9,6.9,0,0,0,5.2-7.3c-.094-2.532.715-3.514,1.879-3.951a5.324,5.324,0,0,1,.964-.256,7.738,7.738,0,0,0,.417,2.2c.1-.005.206-.014.308-.025a7.274,7.274,0,0,1-.425-2.222,5.469,5.469,0,0,1,1.029-.032,6.511,6.511,0,0,1-.979-.7,4.9,4.9,0,0,1,1.643-2.687,8.685,8.685,0,0,0,1.152-1.352l-.256-.165a8.5,8.5,0,0,1-1.115,1.3,5.315,5.315,0,0,0-1.686,2.673,9.744,9.744,0,0,1-.743-.748c-1.071-1.2-2.45-.318-4.416,1.511s-4.442,1.894-6.859-.578c-3.187-3.265-5.967-3.246-7.875-3.06,1.3.556,1.762,1.774,2.421,4.872.693,3.252,2.437,4.722,4.824,4.925-1.328.47-1.393,1.219-3.172,2.447a5.54,5.54,0,0,1-4.135.476c1.454.454,3.177,1.98,4.718,2.51a11.459,11.459,0,0,0,2.814.577V292.1l-8.085-.185v1.841l15.1-.345,3.089.339v1.432a.411.411,0,0,0,.411.412h4.732a.412.412,0,0,0,.412-.412v-4.694a.412.412,0,0,0-.412-.411" fill="#fff"/>
    <path id="Path_98" data-name="Path 98" d="M399.4,293.447a.658.658,0,0,1-.6.7h-.364a.66.66,0,0,1-.606-.7v-1.273a.66.66,0,0,1,.606-.7h.364a.658.658,0,0,1,.6.7Z" fill="#fff"/>
    <text id="PAZ_JUSTIÇA_e_" data-name="PAZ, JUSTIÇA e " transform="translate(402.605 260.888)" fill="#fff" font-size="5.949" font-family="BebasNeue-Regular, Bebas Neue"><tspan x="0" y="0">PAZ, JUSTIÇA e </tspan></text>
    <text id="INSTITUIÇÕES" transform="translate(402.335 266.201)" fill="#fff" font-size="5.949" font-family="BebasNeue-Regular, Bebas Neue"><tspan x="0" y="0">INSTITUIÇÕES</tspan></text>
    <text id="EFICAZES" transform="translate(402.631 271.735)" fill="#fff" font-size="5.949" font-family="BebasNeue-Regular, Bebas Neue"><tspan x="0" y="0">EFICAZES</tspan></text>
  </g>
</svg>
