<?xml version="1.0" encoding="utf-8"?>
<!-- Generator: Adobe Illustrator 23.1.0, SVG Export Plug-In . SVG Version: 6.00 Build 0)  -->
<svg version="1.1" id="Layer_1" xmlns="http://www.w3.org/2000/svg" xmlns:xlink="http://www.w3.org/1999/xlink" x="0px" y="0px"
	 viewBox="0 0 34 34" style="enable-background:new 0 0 34 34;" xml:space="preserve">
<style type="text/css">
	.st0{fill:none;}
	.st1{fill:#074CE1;}
</style>
<g>
	<g id="Path_19" transform="translate(0 0)">
		<path class="st0" d="M17,0.2c9.3,0,16.8,7.5,16.8,16.8S26.3,33.8,17,33.8S0.2,26.3,0.2,17C0.2,7.7,7.7,0.2,17,0.2
			C17,0.2,17,0.2,17,0.2z"/>
		<path class="st1" d="M17,2C13,2,9.2,3.5,6.4,6.4S2,13,2,17s1.6,7.8,4.4,10.6S13,32,17,32s7.8-1.6,10.6-4.4S32,21,32,17
			s-1.6-7.8-4.4-10.6S21,2,17,2 M17,0.2c9.3,0,16.8,7.5,16.8,16.8S26.3,33.8,17,33.8S0.2,26.3,0.2,17S7.7,0.2,17,0.2z"/>
	</g>
	<g id="Polygon_1" transform="translate(23.1 12.239) rotate(90)">
		<path class="st1" d="M8,8.1H1.5l3.3-6.6L8,8.1z"/>
		<path class="st1" d="M4.8,3.2L2.7,7.3h4.1L4.8,3.2 M4.8-0.2l4.5,9h-9L4.8-0.2z"/>
	</g>
</g>
</svg>
