<?xml version="1.0" encoding="UTF-8" standalone="no"?>
<svg xmlns="http://www.w3.org/2000/svg" style="isolation:isolate" viewBox="0 0 286 222.76" width="286pt" height="297.013">
  <path d="M285.832 92.572c-4.762 5.504-11.797 8.99-19.639 8.99h-48.364c-18.245 0-21.009 6.652-21.009 12.163V130.119c0 14.326-11.634 25.96-25.96 25.96h-48.364c-18.245 0-21.009 6.652-21.009 12.163V184.636c0 14.326-11.634 25.961-25.961 25.961H27.163c-18.245 0-21.009 6.652-21.009 12.163H0V206.366c0-14.326 11.634-25.961 25.961-25.961h48.363c17.985 0 21.009-5.896 21.009-12.163v-16.393c0-14.327 11.635-25.961 25.961-25.961h48.364c17.984 0 21.009-5.897 21.009-12.163V97.331c0-14.326 11.634-25.96 25.96-25.96h48.364c15.716 0 20.008-4.503 20.841-9.821v31.022z" fill="#FFCE35"/>
  <path d="M286 33.168c-4.764 5.618-11.873 9.186-19.807 9.186h-48.364c-18.245 0-21.009 6.652-21.009 12.163V70.911c0 14.327-11.634 25.961-25.96 25.961h-48.364c-18.245 0-21.009 6.652-21.009 12.163v16.393c0 14.327-11.634 25.961-25.961 25.961H27.163c-18.245 0-21.009 6.652-21.009 12.163H0v-16.393c0-14.327 11.634-25.961 25.961-25.961h48.363c17.985 0 21.009-5.897 21.009-12.163V92.641c0-14.326 11.635-25.961 25.961-25.961h48.364c17.984 0 21.009-5.896 21.009-12.163V38.124c0-14.327 11.634-25.961 25.96-25.961h48.364C282.975 12.163 286 6.266 286 0v33.168z" fill="#0857FF"/>
</svg>
