<?xml version="1.0" encoding="UTF-8" standalone="no"?><!DOCTYPE svg PUBLIC "-//W3C//DTD SVG 1.1//EN" "http://www.w3.org/Graphics/SVG/1.1/DTD/svg11.dtd"><svg width="100%" height="100%" viewBox="0 0 561 267" version="1.1" xmlns="http://www.w3.org/2000/svg" xmlns:xlink="http://www.w3.org/1999/xlink" xml:space="preserve" xmlns:serif="http://www.serif.com/" style="fill-rule:evenodd;clip-rule:evenodd;stroke-linejoin:round;stroke-miterlimit:2;"><rect id="Artboard6" x="0" y="0" width="560.409" height="266.989" style="fill:none;"/><clipPath id="_clip1"><rect x="0" y="0" width="560.409" height="266.989"/></clipPath><g clip-path="url(#_clip1)"><path d="M294.2,84.588l-97.298,-0.039c-25.757,0 -46.637,20.881 -46.637,46.638c0,-0 0.557,26.692 -3.918,34.54c-5.593,9.809 -13.402,21.74 -33.789,21.74l-0.002,0.004l-100.843,-0.031c-25.756,-0 -46.636,20.88 -46.636,46.637l-0,29.411l11.037,0c2.309,-10.715 17.299,-21.802 37.726,-21.802l0.001,-0.004l100.843,0.032c25.757,-0 46.636,-20.881 46.636,-46.638c0,-0 -0.302,-28.842 1.962,-36.623c3.012,-10.355 15.373,-19.657 35.746,-19.657l0.002,-0.004l97.298,0.038c25.757,-0 46.637,-20.881 46.637,-46.638c-0,0 -0.302,-28.841 1.961,-36.623c3.013,-10.355 15.373,-19.657 35.747,-19.657l0.001,-0.004l99.732,0.032c25.757,-0 46.637,-20.881 46.637,-46.638l-0,-29.411l-11.037,0c-2.309,10.715 -17.299,21.802 -37.726,21.802l-0.002,0.004l-99.731,-0.031c-25.757,-0 -46.637,20.88 -46.637,46.637c-0,0 0.556,26.692 -3.919,34.541c-5.592,9.808 -13.401,21.739 -33.789,21.739l-0.002,0.005Z" style="fill:#ffce34;"/><path d="M225.292,38.55c-20.374,-0 -32.734,9.302 -35.746,19.657c-2.264,7.781 -1.962,36.623 -1.962,36.623c0,25.757 -20.88,46.637 -46.637,46.637l-100.842,-0.031l-0.002,0.004c-20.426,-0 -35.417,11.087 -37.726,21.802l-11.036,-0l-0,-29.411c-0,-25.757 20.879,-46.638 46.636,-46.638l100.843,0.032l0.001,-0.004c20.388,-0 28.197,-11.931 33.79,-21.74c4.475,-7.849 3.918,-34.54 3.918,-34.54c0,-25.757 20.88,-46.638 46.637,-46.638l99.732,0.032l0.002,-0.005c20.426,0 35.417,-11.087 37.726,-21.801l11.036,-0l0,29.41c0,25.757 -20.879,46.638 -46.636,46.638l-99.732,-0.032l-0.002,0.005Z" style="fill:#0857ff;"/></g></svg>