<?xml version="1.0" encoding="UTF-8" standalone="no"?>
<svg xmlns="http://www.w3.org/2000/svg" style="isolation:isolate" viewBox="0 0 1708 440" width="1708" height="440pt">
  <path d="M1280.832 309.572c-4.762 5.504-11.797 8.99-19.639 8.99h-48.364c-18.245 0-21.009 6.652-21.009 12.163V347.119c0 14.326-11.634 25.96-25.96 25.96h-48.364c-18.245 0-21.009 6.652-21.009 12.163V401.636c0 14.326-11.634 25.961-25.961 25.961h-48.363c-18.245 0-21.009 6.652-21.009 12.163H995V423.366c0-14.326 11.634-25.961 25.961-25.961h48.363c17.985 0 21.009-5.896 21.009-12.163v-16.393c0-14.327 11.635-25.961 25.961-25.961h48.364c17.984 0 21.009-5.897 21.009-12.163V314.331c0-14.326 11.634-25.96 25.96-25.96h48.364c15.716 0 20.008-4.503 20.841-9.821v31.022z" fill="#FFCE35"/>
  <path d="M1281 250.168c-4.764 5.618-11.873 9.186-19.807 9.186h-48.364c-18.245 0-21.009 6.652-21.009 12.163V287.911c0 14.327-11.634 25.961-25.96 25.961h-48.364c-18.245 0-21.009 6.652-21.009 12.163v16.393c0 14.327-11.634 25.961-25.961 25.961h-48.363c-18.245 0-21.009 6.652-21.009 12.163H995v-16.393c0-14.327 11.634-25.961 25.961-25.961h48.363c17.985 0 21.009-5.897 21.009-12.163V309.641c0-14.326 11.635-25.961 25.961-25.961h48.364c17.984 0 21.009-5.896 21.009-12.163v-16.393c0-14.327 11.634-25.961 25.96-25.961h48.364c17.984 0 21.009-5.897 21.009-12.163v33.168z" fill="#0857FF"/>
  <path d="M0 44.595c11.482-.192 13.249-4.526 13.249-8.129V25.5c0-9.582 7.781-17.364 17.364-17.364h32.35c12.204 0 14.052-4.45 14.052-8.136h4.116v10.965c0 9.583-7.782 17.365-17.364 17.365h-32.35c-12.029 0-14.052 3.944-14.052 8.136v10.965c0 9.583-7.782 17.365-17.365 17.365V44.595z" fill="#FFCE35"/>
  <path d="M0 84.198c11.482-.193 13.249-4.526 13.249-8.129V65.103c0-9.583 7.781-17.365 17.364-17.365h32.35c12.204 0 14.052-4.449 14.052-8.135h4.116v10.965c0 9.583-7.782 17.365-17.364 17.365h-32.35c-12.029 0-14.052 3.944-14.052 8.136v10.965c0 9.583-7.782 17.365-17.365 17.365V84.198z" fill="#0857FF"/>
</svg>
