<?xml version="1.0" encoding="UTF-8" standalone="no"?>
<svg xmlns="http://www.w3.org/2000/svg" style="isolation:isolate" viewBox="0 0 81.131 104.399" width="108.175" height="139.199">
  <path d="M0 44.595c11.482-.192 13.249-4.526 13.249-8.129V25.5c0-9.582 7.781-17.364 17.364-17.364h32.35c12.204 0 14.052-4.45 14.052-8.136h4.116v10.965c0 9.583-7.782 17.365-17.364 17.365h-32.35c-12.029 0-14.052 3.944-14.052 8.136v10.965c0 9.583-7.782 17.365-17.365 17.365V44.595z" fill="#FFCE35"/>
  <path d="M0 84.198c11.482-.193 13.249-4.526 13.249-8.129V65.103c0-9.583 7.781-17.365 17.364-17.365h32.35c12.204 0 14.052-4.449 14.052-8.135h4.116v10.965c0 9.583-7.782 17.365-17.364 17.365h-32.35c-12.029 0-14.052 3.944-14.052 8.136v10.965c0 9.583-7.782 17.365-17.365 17.365V84.198z" fill="#0857FF"/>
</svg>
